<?xml version="1.0" encoding="UTF-8"?>
<!DOCTYPE svg PUBLIC "-//W3C//DTD SVG 1.1//EN" "http://www.w3.org/Graphics/SVG/1.1/DTD/svg11.dtd">
<svg xmlns="http://www.w3.org/2000/svg" version="1.1" width="512px" height="512px" style="shape-rendering:geometricPrecision; text-rendering:geometricPrecision; image-rendering:optimizeQuality; fill-rule:evenodd; clip-rule:evenodd" xmlns:xlink="http://www.w3.org/1999/xlink">
<g><path style="opacity:1" fill="#5a658a" d="M 174.5,57.5 C 184.85,57.4402 195.183,57.7735 205.5,58.5C 213.168,89.84 220.835,121.173 228.5,152.5C 218.546,153.907 208.546,154.907 198.5,155.5C 190.186,122.909 182.186,90.2422 174.5,57.5 Z"/></g>
<g><path style="opacity:1" fill="#5a658a" d="M 146.5,57.5 C 154.028,90.6127 162.028,123.613 170.5,156.5C 132.424,156.727 95.0911,151.727 58.5,141.5C 57.8333,141.5 57.5,141.167 57.5,140.5C 52.8333,119.833 48.1667,99.1667 43.5,78.5C 55.5338,72.8154 68.2005,68.6487 81.5,66C 102.977,61.6071 124.644,58.7738 146.5,57.5 Z"/></g>
<g><path style="opacity:1" fill="#3d4a75" d="M 146.5,57.5 C 155.833,57.5 165.167,57.5 174.5,57.5C 182.186,90.2422 190.186,122.909 198.5,155.5C 189.177,156.068 179.844,156.401 170.5,156.5C 162.028,123.613 154.028,90.6127 146.5,57.5 Z"/></g>
<g><path style="opacity:1" fill="#3d4a75" d="M 205.5,58.5 C 234.55,60.3415 262.884,65.8415 290.5,75C 303.259,79.4551 314.092,86.6218 323,96.5C 324.707,98.9088 325.54,101.575 325.5,104.5C 325.095,114.8 320.429,122.634 311.5,128C 297.125,136.349 281.792,142.349 265.5,146C 253.26,148.748 240.927,150.915 228.5,152.5C 220.835,121.173 213.168,89.84 205.5,58.5 Z"/></g>
<g><path style="opacity:0.993" fill="#b82a2a" d="M 496.5,88.5 C 495.373,87.8783 494.373,87.045 493.5,86C 459.5,85.3333 425.5,85.3333 391.5,86C 390.627,87.045 389.627,87.8783 388.5,88.5C 388.334,80.4931 388.5,72.4931 389,64.5C 389.5,63.3333 390.333,62.5 391.5,62C 403.5,61.3333 415.5,61.3333 427.5,62C 430.125,64.1962 431.125,67.0295 430.5,70.5C 450.836,70.3334 471.169,70.5 491.5,71C 493.848,71.1102 495.348,72.2769 496,74.5C 496.499,79.1548 496.666,83.8215 496.5,88.5 Z"/></g>
<g><path style="opacity:1" fill="#3d4a75" d="M 43.5,78.5 C 48.1667,99.1667 52.8333,119.833 57.5,140.5C 42.0793,136.545 28.9127,128.878 18,117.5C 16.7874,115.075 15.6207,112.741 14.5,110.5C 13.8256,105.016 14.9923,100.016 18,95.5C 24.7973,87.1912 33.2973,81.5245 43.5,78.5 Z"/></g>
<g><path style="opacity:0.999" fill="#ec514d" d="M 496.5,88.5 C 496.667,111.836 496.5,135.169 496,158.5C 495.167,159.333 494.333,160.167 493.5,161C 459.5,161.667 425.5,161.667 391.5,161C 390.667,160.167 389.833,159.333 389,158.5C 388.5,148.172 388.334,137.839 388.5,127.5C 388.5,123.5 388.5,119.5 388.5,115.5C 388.5,106.5 388.5,97.5 388.5,88.5C 389.627,87.8783 390.627,87.045 391.5,86C 425.5,85.3333 459.5,85.3333 493.5,86C 494.373,87.045 495.373,87.8783 496.5,88.5 Z"/></g>
<g><path style="opacity:0.993" fill="#4f5d98" d="M 325.5,104.5 C 326.664,134.664 326.831,164.997 326,195.5C 325.059,198.154 324.226,200.821 323.5,203.5C 309.815,215.849 293.815,224.349 275.5,229C 266.682,231.124 258.015,233.29 249.5,235.5C 249.167,235.5 248.833,235.5 248.5,235.5C 242.305,207.721 235.639,180.054 228.5,152.5C 240.927,150.915 253.26,148.748 265.5,146C 281.792,142.349 297.125,136.349 311.5,128C 320.429,122.634 325.095,114.8 325.5,104.5 Z"/></g>
<g><path style="opacity:1" fill="#4f5d99" d="M 14.5,110.5 C 15.6207,112.741 16.7874,115.075 18,117.5C 28.9127,128.878 42.0793,136.545 57.5,140.5C 57.5,141.167 57.8333,141.5 58.5,141.5C 61.3987,154.028 64.3987,166.528 67.5,179C 67.3917,180.681 66.7251,181.848 65.5,182.5C 58.1218,180.708 50.7885,178.708 43.5,176.5C 38.8487,177.193 37.3487,179.859 39,184.5C 41.8922,187.057 45.0589,189.224 48.5,191C 56.2943,194.21 64.2943,196.71 72.5,198.5C 75.4812,209.758 78.1478,221.091 80.5,232.5C 62.3724,229.402 45.3724,223.236 29.5,214C 24.953,210.279 20.6197,206.446 16.5,202.5C 16.2914,201.078 15.7914,199.745 15,198.5C 14.5,169.169 14.3334,139.835 14.5,110.5 Z"/></g>
<g><path style="opacity:0.96" fill="#e8e8ff" d="M 388.5,115.5 C 388.5,119.5 388.5,123.5 388.5,127.5C 380.167,127.5 371.833,127.5 363.5,127.5C 363.5,155.833 363.5,184.167 363.5,212.5C 359.833,212.5 356.167,212.5 352.5,212.5C 352.333,181.498 352.5,150.498 353,119.5C 353.652,117.277 355.152,116.11 357.5,116C 367.828,115.5 378.161,115.334 388.5,115.5 Z"/></g>
<g><path style="opacity:1" fill="#bb2d2c" d="M 399.5,134.5 C 414.167,134.5 428.833,134.5 443.5,134.5C 443.5,136.167 443.5,137.833 443.5,139.5C 429.163,139.667 414.829,139.5 400.5,139C 399.62,137.644 399.286,136.144 399.5,134.5 Z"/></g>
<g><path style="opacity:1" fill="#6b76a8" d="M 58.5,141.5 C 95.0911,151.727 132.424,156.727 170.5,156.5C 177.968,184.704 184.968,213.038 191.5,241.5C 154.48,243.284 117.814,240.618 81.5,233.5C 80.8333,233.5 80.5,233.167 80.5,232.5C 78.1478,221.091 75.4812,209.758 72.5,198.5C 83.1694,201.188 94.0028,203.188 105,204.5C 110.907,204.265 113.574,201.265 113,195.5C 111.891,193.185 110.057,191.685 107.5,191C 93.1036,189.549 79.1036,186.716 65.5,182.5C 66.7251,181.848 67.3917,180.681 67.5,179C 64.3987,166.528 61.3987,154.028 58.5,141.5 Z"/></g>
<g><path style="opacity:1" fill="#b82a2a" d="M 399.5,145.5 C 405.167,145.5 410.833,145.5 416.5,145.5C 416.5,146.833 416.5,148.167 416.5,149.5C 410.833,149.5 405.167,149.5 399.5,149.5C 399.5,148.167 399.5,146.833 399.5,145.5 Z"/></g>
<g><path style="opacity:1" fill="#b72a2a" d="M 422.5,145.5 C 429.5,145.5 436.5,145.5 443.5,145.5C 443.5,146.833 443.5,148.167 443.5,149.5C 436.5,149.5 429.5,149.5 422.5,149.5C 422.5,148.167 422.5,146.833 422.5,145.5 Z"/></g>
<g><path style="opacity:1" fill="#6b75a8" d="M 228.5,152.5 C 235.639,180.054 242.305,207.721 248.5,235.5C 238.871,237.092 229.204,238.426 219.5,239.5C 219.167,239.5 218.833,239.5 218.5,239.5C 212.451,211.353 205.785,183.353 198.5,155.5C 208.546,154.907 218.546,153.907 228.5,152.5 Z"/></g>
<g><path style="opacity:1" fill="#4f5d99" d="M 198.5,155.5 C 205.785,183.353 212.451,211.353 218.5,239.5C 209.537,240.497 200.537,241.164 191.5,241.5C 184.968,213.038 177.968,184.704 170.5,156.5C 179.844,156.401 189.177,156.068 198.5,155.5 Z"/></g>
<g><path style="opacity:1" fill="#7ad281" d="M 291.5,167.5 C 303.779,166.421 308.279,171.754 305,183.5C 297.774,190.682 291.441,190.016 286,181.5C 284.268,175.314 286.101,170.647 291.5,167.5 Z"/></g>
<g><path style="opacity:1" fill="#e7e7fc" d="M 65.5,182.5 C 79.1036,186.716 93.1036,189.549 107.5,191C 110.057,191.685 111.891,193.185 113,195.5C 113.574,201.265 110.907,204.265 105,204.5C 94.0028,203.188 83.1694,201.188 72.5,198.5C 64.2943,196.71 56.2943,194.21 48.5,191C 45.0589,189.224 41.8922,187.057 39,184.5C 37.3487,179.859 38.8487,177.193 43.5,176.5C 50.7885,178.708 58.1218,180.708 65.5,182.5 Z"/></g>
<g><path style="opacity:1" fill="#f8c432" d="M 255.5,177.5 C 266.54,176.704 271.04,181.704 269,192.5C 265.723,198.109 260.89,199.942 254.5,198C 246.325,190.721 246.658,183.888 255.5,177.5 Z"/></g>
<g><path style="opacity:1" fill="#ed6d6b" d="M 217.5,183.5 C 227.337,182.511 232.17,186.844 232,196.5C 228.826,203.505 223.659,205.672 216.5,203C 209.606,196.024 209.939,189.524 217.5,183.5 Z"/></g>
<g><path style="opacity:0.994" fill="#f9ac00" d="M 496.5,227.5 C 495.373,226.878 494.373,226.045 493.5,225C 459.5,224.333 425.5,224.333 391.5,225C 390.627,226.045 389.627,226.878 388.5,227.5C 388.334,219.493 388.5,211.493 389,203.5C 389.5,202.333 390.333,201.5 391.5,201C 403.5,200.333 415.5,200.333 427.5,201C 430.125,203.196 431.125,206.03 430.5,209.5C 450.503,209.333 470.503,209.5 490.5,210C 492.931,210.295 494.764,211.462 496,213.5C 496.499,218.155 496.666,222.821 496.5,227.5 Z"/></g>
<g><path style="opacity:1" fill="#3d4a75" d="M 16.5,202.5 C 20.6197,206.446 24.953,210.279 29.5,214C 45.3724,223.236 62.3724,229.402 80.5,232.5C 80.5,233.167 80.8333,233.5 81.5,233.5C 83.1513,240.105 84.4846,246.771 85.5,253.5C 66.8931,250.576 49.2264,244.742 32.5,236C 24.089,231.101 18.089,224.268 14.5,215.5C 14.2694,211.007 14.936,206.674 16.5,202.5 Z"/></g>
<g><path style="opacity:1" fill="#3d4a75" d="M 323.5,203.5 C 324.695,205.751 325.695,208.085 326.5,210.5C 324.656,221.2 318.989,229.366 309.5,235C 291.748,244.195 273.082,250.695 253.5,254.5C 251.692,248.269 250.359,241.935 249.5,235.5C 258.015,233.29 266.682,231.124 275.5,229C 293.815,224.349 309.815,215.849 323.5,203.5 Z"/></g>
<g><path style="opacity:0.952" fill="#ec524e" d="M 352.5,212.5 C 356.167,212.5 359.833,212.5 363.5,212.5C 366.044,212.104 368.211,212.771 370,214.5C 370.5,226.162 370.667,237.829 370.5,249.5C 369.167,253.5 369.167,257.5 370.5,261.5C 370.667,273.171 370.5,284.838 370,296.5C 368.266,298.451 366.099,299.451 363.5,299.5C 359.833,298.167 356.167,298.167 352.5,299.5C 349.439,299.556 347.272,298.222 346,295.5C 345.5,284.172 345.333,272.838 345.5,261.5C 346.833,257.5 346.833,253.5 345.5,249.5C 345.333,238.162 345.5,226.828 346,215.5C 347.287,212.855 349.453,211.855 352.5,212.5 Z"/></g>
<g><path style="opacity:0.991" fill="#4f5d98" d="M 326.5,210.5 C 326.5,223.5 326.5,236.5 326.5,249.5C 325.167,253.5 325.167,257.5 326.5,261.5C 326.667,274.837 326.5,288.171 326,301.5C 324.864,304.096 324.031,306.763 323.5,309.5C 317.423,315.049 310.756,319.882 303.5,324C 293.734,328.532 283.734,332.365 273.5,335.5C 271.306,324.389 268.639,313.389 265.5,302.5C 267.173,301.657 268.34,300.324 269,298.5C 271.286,290.39 268.452,285.39 260.5,283.5C 258.637,273.716 256.304,264.049 253.5,254.5C 273.082,250.695 291.748,244.195 309.5,235C 318.989,229.366 324.656,221.2 326.5,210.5 Z"/></g>
<g><path style="opacity:1" fill="#4f5d99" d="M 14.5,215.5 C 18.089,224.268 24.089,231.101 32.5,236C 49.2264,244.742 66.8931,250.576 85.5,253.5C 85.5,254.167 85.8333,254.5 86.5,254.5C 89.514,267.851 92.514,281.184 95.5,294.5C 94.5,294.5 93.5,294.5 92.5,294.5C 75.7176,291.888 59.3843,287.554 43.5,281.5C 38.9223,282.868 37.4223,285.868 39,290.5C 46.3971,295.86 54.5638,299.694 63.5,302C 75.6739,305.468 88.0072,307.968 100.5,309.5C 102.852,320.909 105.519,332.242 108.5,343.5C 80.0862,340.899 53.4195,332.732 28.5,319C 24.2871,315.612 20.2871,312.112 16.5,308.5C 16.1077,306.821 15.6077,305.154 15,303.5C 14.5,274.169 14.3334,244.835 14.5,215.5 Z"/></g>
<g><path style="opacity:0.996" fill="#fcc62d" d="M 496.5,227.5 C 496.667,250.836 496.5,274.169 496,297.5C 495.167,298.333 494.333,299.167 493.5,300C 459.5,300.667 425.5,300.667 391.5,300C 390.667,299.167 389.833,298.333 389,297.5C 388.5,285.505 388.333,273.505 388.5,261.5C 388.5,257.5 388.5,253.5 388.5,249.5C 388.5,242.167 388.5,234.833 388.5,227.5C 389.627,226.878 390.627,226.045 391.5,225C 425.5,224.333 459.5,224.333 493.5,225C 494.373,226.045 495.373,226.878 496.5,227.5 Z"/></g>
<g><path style="opacity:1" fill="#5b668b" d="M 81.5,233.5 C 117.814,240.618 154.48,243.284 191.5,241.5C 193.475,248.067 195.142,254.733 196.5,261.5C 159.534,263.314 122.867,260.981 86.5,254.5C 85.8333,254.5 85.5,254.167 85.5,253.5C 84.4846,246.771 83.1513,240.105 81.5,233.5 Z"/></g>
<g><path style="opacity:1" fill="#5a658b" d="M 248.5,235.5 C 248.833,235.5 249.167,235.5 249.5,235.5C 250.359,241.935 251.692,248.269 253.5,254.5C 243.657,255.902 233.99,257.569 224.5,259.5C 224.167,259.5 223.833,259.5 223.5,259.5C 222.485,252.771 221.151,246.105 219.5,239.5C 229.204,238.426 238.871,237.092 248.5,235.5 Z"/></g>
<g><path style="opacity:1" fill="#3d4a75" d="M 218.5,239.5 C 218.833,239.5 219.167,239.5 219.5,239.5C 221.151,246.105 222.485,252.771 223.5,259.5C 214.473,259.836 205.473,260.503 196.5,261.5C 195.142,254.733 193.475,248.067 191.5,241.5C 200.537,241.164 209.537,240.497 218.5,239.5 Z"/></g>
<g><path style="opacity:0.921" fill="#e7e5fb" d="M 326.5,249.5 C 332.833,249.5 339.167,249.5 345.5,249.5C 346.833,253.5 346.833,257.5 345.5,261.5C 339.167,261.5 332.833,261.5 326.5,261.5C 325.167,257.5 325.167,253.5 326.5,249.5 Z"/></g>
<g><path style="opacity:0.921" fill="#e9e7fc" d="M 370.5,249.5 C 376.5,249.5 382.5,249.5 388.5,249.5C 388.5,253.5 388.5,257.5 388.5,261.5C 382.5,261.5 376.5,261.5 370.5,261.5C 369.167,257.5 369.167,253.5 370.5,249.5 Z"/></g>
<g><path style="opacity:1" fill="#6a75a8" d="M 86.5,254.5 C 122.867,260.981 159.534,263.314 196.5,261.5C 203.821,289.451 210.821,317.451 217.5,345.5C 181.037,348.737 144.704,348.071 108.5,343.5C 105.519,332.242 102.852,320.909 100.5,309.5C 103.85,309.665 107.183,309.498 110.5,309C 114.802,304.203 114.136,300.203 108.5,297C 102.936,296.751 97.6022,295.918 92.5,294.5C 93.5,294.5 94.5,294.5 95.5,294.5C 92.514,281.184 89.514,267.851 86.5,254.5 Z"/></g>
<g><path style="opacity:1" fill="#6a75a8" d="M 253.5,254.5 C 256.304,264.049 258.637,273.716 260.5,283.5C 249.507,284.821 246.34,290.487 251,300.5C 255.303,304.948 260.136,305.615 265.5,302.5C 268.639,313.389 271.306,324.389 273.5,335.5C 263.891,337.755 254.224,339.755 244.5,341.5C 240.626,326.329 236.626,311.329 232.5,296.5C 231.833,296.5 231.5,296.167 231.5,295.5C 232.097,295.265 232.43,294.765 232.5,294C 229.278,282.612 226.611,271.112 224.5,259.5C 233.99,257.569 243.657,255.902 253.5,254.5 Z"/></g>
<g><path style="opacity:1" fill="#505d98" d="M 223.5,259.5 C 223.833,259.5 224.167,259.5 224.5,259.5C 226.611,271.112 229.278,282.612 232.5,294C 232.43,294.765 232.097,295.265 231.5,295.5C 228.174,289.173 223.174,287.339 216.5,290C 211.404,294.248 210.237,299.415 213,305.5C 219.337,311.041 225.337,310.707 231,304.5C 232.079,301.937 232.579,299.271 232.5,296.5C 236.626,311.329 240.626,326.329 244.5,341.5C 235.571,343.154 226.571,344.488 217.5,345.5C 210.821,317.451 203.821,289.451 196.5,261.5C 205.473,260.503 214.473,259.836 223.5,259.5 Z"/></g>
<g><path style="opacity:1" fill="#7ad281" d="M 292.5,272.5 C 305.176,272.991 309.009,278.991 304,290.5C 300.319,293.36 296.152,294.193 291.5,293C 285.891,289.723 284.058,284.89 286,278.5C 288.063,276.266 290.229,274.266 292.5,272.5 Z"/></g>
<g><path style="opacity:1" fill="#f9ae04" d="M 399.5,273.5 C 414.167,273.5 428.833,273.5 443.5,273.5C 443.5,275.167 443.5,276.833 443.5,278.5C 429.163,278.667 414.829,278.5 400.5,278C 399.62,276.644 399.286,275.144 399.5,273.5 Z"/></g>
<g><path style="opacity:1" fill="#e6e6fd" d="M 92.5,294.5 C 97.6022,295.918 102.936,296.751 108.5,297C 114.136,300.203 114.802,304.203 110.5,309C 107.183,309.498 103.85,309.665 100.5,309.5C 88.0072,307.968 75.6739,305.468 63.5,302C 54.5638,299.694 46.3971,295.86 39,290.5C 37.4223,285.868 38.9223,282.868 43.5,281.5C 59.3843,287.554 75.7176,291.888 92.5,294.5 Z"/></g>
<g><path style="opacity:1" fill="#f9cb4b" d="M 260.5,283.5 C 268.452,285.39 271.286,290.39 269,298.5C 268.34,300.324 267.173,301.657 265.5,302.5C 260.136,305.615 255.303,304.948 251,300.5C 246.34,290.487 249.507,284.821 260.5,283.5 Z"/></g>
<g><path style="opacity:1" fill="#f9ac01" d="M 399.5,284.5 C 405.167,284.5 410.833,284.5 416.5,284.5C 416.5,285.833 416.5,287.167 416.5,288.5C 410.833,288.5 405.167,288.5 399.5,288.5C 399.5,287.167 399.5,285.833 399.5,284.5 Z"/></g>
<g><path style="opacity:1" fill="#f9ac00" d="M 422.5,284.5 C 429.5,284.5 436.5,284.5 443.5,284.5C 443.5,285.833 443.5,287.167 443.5,288.5C 436.5,288.5 429.5,288.5 422.5,288.5C 422.5,287.167 422.5,285.833 422.5,284.5 Z"/></g>
<g><path style="opacity:1" fill="#e9524f" d="M 231.5,295.5 C 231.5,296.167 231.833,296.5 232.5,296.5C 232.579,299.271 232.079,301.937 231,304.5C 225.337,310.707 219.337,311.041 213,305.5C 210.237,299.415 211.404,294.248 216.5,290C 223.174,287.339 228.174,289.173 231.5,295.5 Z"/></g>
<g><path style="opacity:0.977" fill="#e9e8fe" d="M 363.5,299.5 C 363.5,327.5 363.5,355.5 363.5,383.5C 371.833,383.5 380.167,383.5 388.5,383.5C 388.5,387.5 388.5,391.5 388.5,395.5C 378.161,395.666 367.828,395.5 357.5,395C 355.152,394.89 353.652,393.723 353,391.5C 352.5,360.835 352.333,330.168 352.5,299.5C 356.167,298.167 359.833,298.167 363.5,299.5 Z"/></g>
<g><path style="opacity:1" fill="#3d4a75" d="M 16.5,308.5 C 20.2871,312.112 24.2871,315.612 28.5,319C 53.4195,332.732 80.0862,340.899 108.5,343.5C 110.276,350.495 111.942,357.495 113.5,364.5C 90.1699,361.734 67.5032,356.234 45.5,348C 34.5883,343.809 25.4216,337.309 18,328.5C 16.522,325.842 15.3554,323.175 14.5,320.5C 14.1901,316.3 14.8568,312.3 16.5,308.5 Z"/></g>
<g><path style="opacity:1" fill="#3d4a75" d="M 323.5,309.5 C 325.277,312.505 326.277,315.838 326.5,319.5C 323.7,328.154 318.367,334.987 310.5,340C 300.455,345.96 289.788,350.46 278.5,353.5C 276.544,347.688 274.877,341.688 273.5,335.5C 283.734,332.365 293.734,328.532 303.5,324C 310.756,319.882 317.423,315.049 323.5,309.5 Z"/></g>
<g><path style="opacity:0.981" fill="#4f5d98" d="M 326.5,319.5 C 326.969,349.883 326.469,380.217 325,410.5C 318.656,421.268 309.489,428.601 297.5,432.5C 295.307,421.395 292.64,410.395 289.5,399.5C 289.624,398.893 289.957,398.56 290.5,398.5C 301.296,400.87 306.463,396.537 306,385.5C 302.96,379.397 298.126,377.231 291.5,379C 289.341,380.059 287.674,381.559 286.5,383.5C 283.387,374.06 280.721,364.393 278.5,354.5C 278.5,354.167 278.5,353.833 278.5,353.5C 289.788,350.46 300.455,345.96 310.5,340C 318.367,334.987 323.7,328.154 326.5,319.5 Z"/></g>
<g><path style="opacity:0.997" fill="#4f5d99" d="M 14.5,320.5 C 15.3554,323.175 16.522,325.842 18,328.5C 25.4216,337.309 34.5883,343.809 45.5,348C 67.5032,356.234 90.1699,361.734 113.5,364.5C 121.13,393.688 128.13,423.021 134.5,452.5C 108.69,450.698 83.3562,446.198 58.5,439C 42.7534,434.882 29.2534,427.049 18,415.5C 16.5611,413.725 15.5611,411.725 15,409.5C 14.5,379.835 14.3334,350.169 14.5,320.5 Z"/></g>
<g><path style="opacity:1" fill="#5b668b" d="M 273.5,335.5 C 274.877,341.688 276.544,347.688 278.5,353.5C 278.5,353.833 278.5,354.167 278.5,354.5C 268.867,356.658 259.201,358.658 249.5,360.5C 249.167,360.5 248.833,360.5 248.5,360.5C 247.641,354.065 246.308,347.731 244.5,341.5C 254.224,339.755 263.891,337.755 273.5,335.5 Z"/></g>
<g><path style="opacity:0.99" fill="#74c579" d="M 496.5,366.5 C 495.373,365.878 494.373,365.045 493.5,364C 459.5,363.333 425.5,363.333 391.5,364C 390.364,365.145 389.364,366.312 388.5,367.5C 388.334,359.16 388.5,350.827 389,342.5C 389.5,341.333 390.333,340.5 391.5,340C 403.5,339.333 415.5,339.333 427.5,340C 430.186,342.546 431.186,345.713 430.5,349.5C 451.503,349.333 472.503,349.5 493.5,350C 494.667,350.5 495.5,351.333 496,352.5C 496.499,357.155 496.666,361.821 496.5,366.5 Z"/></g>
<g><path style="opacity:1" fill="#3d4a75" d="M 244.5,341.5 C 246.308,347.731 247.641,354.065 248.5,360.5C 240.088,362.639 231.421,363.972 222.5,364.5C 220.39,358.399 218.723,352.066 217.5,345.5C 226.571,344.488 235.571,343.154 244.5,341.5 Z"/></g>
<g><path style="opacity:1" fill="#5b668b" d="M 108.5,343.5 C 144.704,348.071 181.037,348.737 217.5,345.5C 218.723,352.066 220.39,358.399 222.5,364.5C 222.5,364.833 222.5,365.167 222.5,365.5C 186.119,368.466 149.786,368.132 113.5,364.5C 111.942,357.495 110.276,350.495 108.5,343.5 Z"/></g>
<g><path style="opacity:1" fill="#6b75a8" d="M 278.5,354.5 C 280.721,364.393 283.387,374.06 286.5,383.5C 284.236,389.573 285.569,394.573 290.5,398.5C 289.957,398.56 289.624,398.893 289.5,399.5C 292.64,410.395 295.307,421.395 297.5,432.5C 289.335,436.667 280.668,439.667 271.5,441.5C 270.504,441.586 269.671,441.252 269,440.5C 266.176,430.538 263.676,420.538 261.5,410.5C 269.018,407.748 271.518,402.415 269,394.5C 265.57,390.083 261.07,388.416 255.5,389.5C 253.975,379.735 251.975,370.068 249.5,360.5C 259.201,358.658 268.867,356.658 278.5,354.5 Z"/></g>
<g><path style="opacity:0.998" fill="#4f5d99" d="M 248.5,360.5 C 248.833,360.5 249.167,360.5 249.5,360.5C 251.975,370.068 253.975,379.735 255.5,389.5C 247.528,394.5 246.528,400.666 252.5,408C 255.206,409.908 258.206,410.741 261.5,410.5C 263.676,420.538 266.176,430.538 269,440.5C 269.671,441.252 270.504,441.586 271.5,441.5C 262.471,444.374 253.138,446.374 243.5,447.5C 239.839,434.19 236.172,420.857 232.5,407.5C 232.793,404.246 232.126,401.246 230.5,398.5C 227.99,387.459 225.323,376.459 222.5,365.5C 222.5,365.167 222.5,364.833 222.5,364.5C 231.421,363.972 240.088,362.639 248.5,360.5 Z"/></g>
<g><path style="opacity:0.997" fill="#7ad580" d="M 496.5,366.5 C 496.667,389.836 496.5,413.169 496,436.5C 495.167,437.333 494.333,438.167 493.5,439C 459.5,439.667 425.5,439.667 391.5,439C 390.667,438.167 389.833,437.333 389,436.5C 388.5,422.837 388.333,409.171 388.5,395.5C 388.5,391.5 388.5,387.5 388.5,383.5C 388.5,378.167 388.5,372.833 388.5,367.5C 389.364,366.312 390.364,365.145 391.5,364C 425.5,363.333 459.5,363.333 493.5,364C 494.373,365.045 495.373,365.878 496.5,366.5 Z"/></g>
<g><path style="opacity:1" fill="#6b75a8" d="M 113.5,364.5 C 149.786,368.132 186.119,368.466 222.5,365.5C 225.323,376.459 227.99,387.459 230.5,398.5C 223.608,392.677 217.442,393.344 212,400.5C 210.433,412.794 215.599,417.294 227.5,414C 229.826,412.195 231.492,410.028 232.5,407.5C 236.172,420.857 239.839,434.19 243.5,447.5C 228.443,450.442 213.109,452.275 197.5,453C 176.488,453.722 155.488,453.555 134.5,452.5C 128.13,423.021 121.13,393.688 113.5,364.5 Z"/></g>
<g><path style="opacity:1" fill="#7bd382" d="M 290.5,398.5 C 285.569,394.573 284.236,389.573 286.5,383.5C 287.674,381.559 289.341,380.059 291.5,379C 298.126,377.231 302.96,379.397 306,385.5C 306.463,396.537 301.296,400.87 290.5,398.5 Z"/></g>
<g><path style="opacity:1" fill="#e5e5fc" d="M 41.5,387.5 C 54.2047,390.809 66.8714,394.309 79.5,398C 89.0636,400.205 98.7302,401.872 108.5,403C 114.727,406.478 115.06,410.478 109.5,415C 89.8962,414.674 70.8962,411.007 52.5,404C 47.7582,401.88 43.2582,399.38 39,396.5C 37.9271,392.9 38.7605,389.9 41.5,387.5 Z"/></g>
<g><path style="opacity:1" fill="#f7c73f" d="M 255.5,389.5 C 261.07,388.416 265.57,390.083 269,394.5C 271.518,402.415 269.018,407.748 261.5,410.5C 258.206,410.741 255.206,409.908 252.5,408C 246.528,400.666 247.528,394.5 255.5,389.5 Z"/></g>
<g><path style="opacity:1" fill="#ed6d6b" d="M 230.5,398.5 C 232.126,401.246 232.793,404.246 232.5,407.5C 231.492,410.028 229.826,412.195 227.5,414C 215.599,417.294 210.433,412.794 212,400.5C 217.442,393.344 223.608,392.677 230.5,398.5 Z"/></g>
<g><path style="opacity:1" fill="#74c679" d="M 400.5,412.5 C 414.833,412.5 429.167,412.5 443.5,412.5C 443.5,414.167 443.5,415.833 443.5,417.5C 429.163,417.667 414.829,417.5 400.5,417C 399.272,415.51 399.272,414.01 400.5,412.5 Z"/></g>
</svg>
