<?xml version="1.0" encoding="UTF-8"?>
<!DOCTYPE svg PUBLIC "-//W3C//DTD SVG 1.1//EN" "http://www.w3.org/Graphics/SVG/1.1/DTD/svg11.dtd">
<svg xmlns="http://www.w3.org/2000/svg" version="1.1" width="512px" height="512px" style="shape-rendering:geometricPrecision; text-rendering:geometricPrecision; image-rendering:optimizeQuality; fill-rule:evenodd; clip-rule:evenodd" xmlns:xlink="http://www.w3.org/1999/xlink">
<g><path style="opacity:0.997" fill="#f44c71" d="M 232.5,-0.5 C 247.833,-0.5 263.167,-0.5 278.5,-0.5C 361.304,9.13781 425.804,48.4711 472,117.5C 494.472,153.416 507.638,192.416 511.5,234.5C 511.5,248.5 511.5,262.5 511.5,276.5C 499.483,375.326 448.816,446.493 359.5,490C 332.498,501.583 304.498,508.75 275.5,511.5C 261.833,511.5 248.167,511.5 234.5,511.5C 133.813,499.25 61.9796,447.25 19,355.5C 8.86392,330.621 2.36392,304.954 -0.5,278.5C -0.5,263.167 -0.5,247.833 -0.5,232.5C 9.81928,145.987 51.8193,79.8206 125.5,34C 158.835,14.9427 194.502,3.44269 232.5,-0.5 Z"/></g>
<g><path style="opacity:1" fill="#fff9fa" d="M 152.5,108.5 C 220.501,108.333 288.501,108.5 356.5,109C 369.313,111.494 379.146,118.327 386,129.5C 391.034,138.233 394.367,147.566 396,157.5C 396.5,218.832 396.667,280.166 396.5,341.5C 403.615,341.075 410.615,341.575 417.5,343C 419.523,346.183 420.023,349.683 419,353.5C 413.848,380.652 397.682,396.818 370.5,402C 293.833,402.667 217.167,402.667 140.5,402C 116.142,397.307 100.309,383.14 93,359.5C 92.3371,356.023 91.8371,352.523 91.5,349C 91.3049,346.648 91.9716,344.648 93.5,343C 100.385,341.575 107.385,341.075 114.5,341.5C 114.333,280.166 114.5,218.832 115,157.5C 117.928,133.566 130.428,117.233 152.5,108.5 Z"/></g>
<g><path style="opacity:1" fill="#f44d71" d="M 154.5,118.5 C 221.501,118.333 288.501,118.5 355.5,119C 361.66,120.08 366.993,122.747 371.5,127C 379.138,135.779 383.972,145.945 386,157.5C 386.5,218.832 386.667,280.166 386.5,341.5C 352.165,341.333 317.832,341.5 283.5,342C 282.069,342.465 280.903,343.299 280,344.5C 279.501,350.157 279.334,355.824 279.5,361.5C 263.5,361.5 247.5,361.5 231.5,361.5C 231.666,356.156 231.499,350.823 231,345.5C 230.5,343.667 229.333,342.5 227.5,342C 193.168,341.5 158.835,341.333 124.5,341.5C 124.333,280.166 124.5,218.832 125,157.5C 127.234,142.508 134.4,130.675 146.5,122C 149.158,120.522 151.825,119.355 154.5,118.5 Z"/></g>
<g><path style="opacity:1" fill="#fefbfc" d="M 158.5,166.5 C 223.168,166.333 287.834,166.5 352.5,167C 356.482,170.048 356.482,173.048 352.5,176C 287.833,176.667 223.167,176.667 158.5,176C 154.562,172.887 154.562,169.72 158.5,166.5 Z"/></g>
<g><path style="opacity:1" fill="#fefcfc" d="M 157.5,194.5 C 222.501,194.333 287.501,194.5 352.5,195C 356.482,197.952 356.482,200.952 352.5,204C 287.833,204.667 223.167,204.667 158.5,204C 154.956,201.127 154.623,197.96 157.5,194.5 Z"/></g>
<g><path style="opacity:1" fill="#fffafb" d="M 245.5,225.5 C 249.733,224.742 252.399,226.409 253.5,230.5C 247.101,254.195 240.601,277.862 234,301.5C 231.333,304.167 228.667,304.167 226,301.5C 225.333,298.833 225.333,296.167 226,293.5C 231.92,272.568 237.586,251.568 243,230.5C 243.366,228.548 244.199,226.882 245.5,225.5 Z"/></g>
<g><path style="opacity:1" fill="#fefafb" d="M 164.5,236.5 C 167.365,236.055 169.865,236.722 172,238.5C 172.333,250.833 172.667,263.167 173,275.5C 174.804,278.817 177.637,280.15 181.5,279.5C 184.637,279.949 187.137,278.949 189,276.5C 189.333,264.167 189.667,251.833 190,239.5C 192.661,236.034 195.661,235.701 199,238.5C 199.667,251.5 199.667,264.5 199,277.5C 197.167,283.333 193.333,287.167 187.5,289C 179.264,290.995 172.098,289.162 166,283.5C 164.438,281.043 163.438,278.376 163,275.5C 162.333,263.167 162.333,250.833 163,238.5C 163.717,237.956 164.217,237.289 164.5,236.5 Z"/></g>
<g><path style="opacity:1" fill="#fefdfd" d="M 211.5,236.5 C 214.365,236.055 216.865,236.722 219,238.5C 219.667,254.5 219.667,270.5 219,286.5C 217.334,289.379 214.834,290.212 211.5,289C 210.874,288.25 210.374,287.416 210,286.5C 209.333,270.5 209.333,254.5 210,238.5C 210.717,237.956 211.217,237.289 211.5,236.5 Z"/></g>
<g><path style="opacity:1" fill="#fffafb" d="M 309.5,239.5 C 311.199,239.34 312.866,239.506 314.5,240C 318.955,245.744 323.289,251.577 327.5,257.5C 331.993,252.168 336.327,246.668 340.5,241C 346.167,239.672 348.667,241.839 348,247.5C 342.996,253.522 338.496,259.855 334.5,266.5C 338.435,272.945 342.601,279.278 347,285.5C 347.993,291.502 345.493,293.668 339.5,292C 335.622,286.411 331.622,280.911 327.5,275.5C 323.007,280.832 318.673,286.332 314.5,292C 308.507,293.668 306.007,291.502 307,285.5C 311.833,279.167 316.667,272.833 321.5,266.5C 316.911,259.656 312.078,252.99 307,246.5C 306.333,245.167 306.333,243.833 307,242.5C 308.045,241.627 308.878,240.627 309.5,239.5 Z"/></g>
<g><path style="opacity:1" fill="#fffafb" d="M 262.5,239.5 C 265.652,238.959 268.152,239.959 270,242.5C 270.333,254.833 270.667,267.167 271,279.5C 274.822,283.721 279.322,284.554 284.5,282C 285.701,281.097 286.535,279.931 287,278.5C 287.333,266.167 287.667,253.833 288,241.5C 290.795,238.887 293.629,238.887 296.5,241.5C 297.647,254.121 297.814,266.788 297,279.5C 293.338,290.252 285.838,294.752 274.5,293C 267.52,291.44 263.02,287.273 261,280.5C 260.333,267.5 260.333,254.5 261,241.5C 261.717,240.956 262.217,240.289 262.5,239.5 Z"/></g>
<g><path style="opacity:1" fill="#f77d98" d="M 221.5,352.5 C 181.486,351.839 141.819,352.506 102.5,354.5C 101.596,353.791 101.263,352.791 101.5,351.5C 141.67,351.168 181.67,351.501 221.5,352.5 Z"/></g>
<g><path style="opacity:1" fill="#f77d98" d="M 289.5,352.5 C 329.33,351.501 369.33,351.168 409.5,351.5C 409.737,352.791 409.404,353.791 408.5,354.5C 369.181,352.506 329.514,351.839 289.5,352.5 Z"/></g>
<g><path style="opacity:1" fill="#f44d72" d="M 221.5,352.5 C 221.334,358.176 221.501,363.843 222,369.5C 222.5,370 223,370.5 223.5,371C 244.833,371.667 266.167,371.667 287.5,371C 288.126,370.25 288.626,369.416 289,368.5C 289.499,363.177 289.666,357.844 289.5,352.5C 329.514,351.839 369.181,352.506 408.5,354.5C 403.533,375.299 390.533,387.799 369.5,392C 292.833,392.667 216.167,392.667 139.5,392C 123.552,388.382 112.052,379.215 105,364.5C 103.85,361.232 103.016,357.899 102.5,354.5C 141.819,352.506 181.486,351.839 221.5,352.5 Z"/></g>
</svg>
