<?xml version="1.0" encoding="UTF-8"?>
<!DOCTYPE svg PUBLIC "-//W3C//DTD SVG 1.1//EN" "http://www.w3.org/Graphics/SVG/1.1/DTD/svg11.dtd">
<svg xmlns="http://www.w3.org/2000/svg" version="1.1" width="512px" height="512px" style="shape-rendering:geometricPrecision; text-rendering:geometricPrecision; image-rendering:optimizeQuality; fill-rule:evenodd; clip-rule:evenodd" xmlns:xlink="http://www.w3.org/1999/xlink">
<g><path style="opacity:0.967" fill="#004fac" d="M 115.5,26.5 C 157.726,24.9291 187.559,43.2624 205,81.5C 209.587,94.443 211.42,107.776 210.5,121.5C 178.833,121.5 147.167,121.5 115.5,121.5C 115.5,89.8333 115.5,58.1667 115.5,26.5 Z"/></g>
<g><path style="opacity:0.983" fill="#004fac" d="M 308.5,31.5 C 369.501,31.3333 430.501,31.5 491.5,32C 494.494,32.4057 496.661,33.9057 498,36.5C 498.667,143.5 498.667,250.5 498,357.5C 496.833,358.667 495.667,359.833 494.5,361C 470.167,361.333 445.833,361.667 421.5,362C 445.608,384.107 469.108,406.94 492,430.5C 498.565,440.704 500.232,451.704 497,463.5C 487.061,482.212 471.895,488.378 451.5,482C 448.833,480.333 446.167,478.667 443.5,477C 422.667,456.167 401.833,435.333 381,414.5C 375.957,406.913 370.79,399.413 365.5,392C 355.05,397.212 344.05,401.378 332.5,404.5C 332.5,425.5 332.5,446.5 332.5,467.5C 336.514,467.334 340.514,467.501 344.5,468C 351.901,472.926 352.235,478.259 345.5,484C 235.833,484.667 126.167,484.667 16.5,484C 12.6729,480.692 11.5063,476.526 13,471.5C 14.3189,469.513 16.1523,468.346 18.5,468C 22.1516,467.501 25.8183,467.335 29.5,467.5C 29.3333,417.832 29.5,368.166 30,318.5C 30.4384,314.433 32.6051,311.933 36.5,311C 53.5,310.333 70.5,310.333 87.5,311C 91.3949,311.933 93.5616,314.433 94,318.5C 94.5,368.166 94.6667,417.832 94.5,467.5C 99.5,467.5 104.5,467.5 109.5,467.5C 109.333,395.833 109.5,324.166 110,252.5C 110.833,250.333 112.333,248.833 114.5,248C 132.5,247.333 150.5,247.333 168.5,248C 171.102,248.935 172.602,250.768 173,253.5C 173.5,324.833 173.667,396.166 173.5,467.5C 178.5,467.5 183.5,467.5 188.5,467.5C 188.829,408.792 188.496,350.125 187.5,291.5C 189.565,245.015 210.732,210.348 251,187.5C 251.333,153.833 251.667,120.167 252,86.5C 268.804,68.6951 285.971,51.1951 303.5,34C 305.315,33.2432 306.981,32.4098 308.5,31.5 Z M 252.5,396.5 C 257.716,398.357 262.883,400.357 268,402.5C 268.5,424.164 268.667,445.831 268.5,467.5C 263.167,467.5 257.833,467.5 252.5,467.5C 252.5,443.833 252.5,420.167 252.5,396.5 Z"/></g>
<g><path style="opacity:1" fill="#b2d5f3" d="M 132.5,43.5 C 167.178,49.5113 187.511,69.8446 193.5,104.5C 173.167,104.5 152.833,104.5 132.5,104.5C 132.5,84.1667 132.5,63.8333 132.5,43.5 Z"/></g>
<g><path style="opacity:1" fill="#b2d5f3" d="M 322.5,48.5 C 375.833,48.5 429.167,48.5 482.5,48.5C 482.5,147.5 482.5,246.5 482.5,345.5C 457.491,345.833 432.491,345.5 407.5,344.5C 431.664,289.463 421.664,241.63 377.5,201C 344.078,176.485 307.411,169.985 267.5,181.5C 267.5,155.5 267.5,129.5 267.5,103.5C 284.903,103.958 302.236,103.458 319.5,102C 320.701,101.097 321.535,99.9308 322,98.5C 322.5,81.8367 322.667,65.17 322.5,48.5 Z"/></g>
<g><path style="opacity:0.97" fill="#004fac" d="M 89.5,51.5 C 95.5,51.5 101.5,51.5 107.5,51.5C 107.5,77.5 107.5,103.5 107.5,129.5C 133.5,129.5 159.5,129.5 185.5,129.5C 186.37,177.97 163.703,209.136 117.5,223C 78.4108,229.527 47.5774,216.694 25,184.5C 11.8718,161.454 8.87179,137.121 16,111.5C 28.9089,77.149 53.4089,57.149 89.5,51.5 Z"/></g>
<g><path style="opacity:0.994" fill="#56a3fe" d="M 305.5,55.5 C 306.494,65.9869 306.828,76.6536 306.5,87.5C 295.828,87.6665 285.161,87.4998 274.5,87C 285.035,76.6317 295.369,66.1317 305.5,55.5 Z"/></g>
<g><path style="opacity:0.999" fill="#56a3fe" d="M 85.5,68.5 C 87.1667,68.5 88.8333,68.5 90.5,68.5C 90.6666,91.1691 90.5,113.836 90,136.5C 75.3333,152.5 60.6667,168.5 46,184.5C 28.4279,162.967 24.0945,138.967 33,112.5C 43.6084,89.4672 61.1084,74.8005 85.5,68.5 Z"/></g>
<g><path style="opacity:1" fill="#004fac" d="M 359.5,94.5 C 389.502,94.3334 419.502,94.5 449.5,95C 452.366,96.3929 453.699,98.7262 453.5,102C 453.699,105.274 452.366,107.607 449.5,109C 419.5,109.667 389.5,109.667 359.5,109C 354.232,104.171 354.232,99.3373 359.5,94.5 Z"/></g>
<g><path style="opacity:0.753" fill="#76a7db" d="M 132.5,43.5 C 132.5,63.8333 132.5,84.1667 132.5,104.5C 152.833,104.5 173.167,104.5 193.5,104.5C 173.007,105.497 152.34,105.831 131.5,105.5C 131.169,84.6599 131.503,63.9933 132.5,43.5 Z"/></g>
<g><path style="opacity:1" fill="#0450ad" d="M 301.5,133.5 C 350.834,133.333 400.168,133.5 449.5,134C 453.277,136.911 454.444,140.744 453,145.5C 451.786,147.049 450.286,148.215 448.5,149C 399.5,149.667 350.5,149.667 301.5,149C 296.931,146.459 295.431,142.625 297,137.5C 298.397,135.93 299.897,134.596 301.5,133.5 Z"/></g>
<g><path style="opacity:1" fill="#56a3fe" d="M 101.5,146.5 C 123.833,146.5 146.167,146.5 168.5,146.5C 160.735,185.64 136.902,206.307 97,208.5C 82.3816,208.183 69.2149,203.683 57.5,195C 72.3735,178.963 87.0401,162.796 101.5,146.5 Z"/></g>
<g><path style="opacity:1" fill="#0250ac" d="M 361.5,172.5 C 390.502,172.333 419.502,172.5 448.5,173C 453.224,175.435 454.724,179.269 453,184.5C 451.786,186.049 450.286,187.215 448.5,188C 419.167,188.667 389.833,188.667 360.5,188C 353.536,182.332 353.869,177.165 361.5,172.5 Z"/></g>
<g><path style="opacity:0.998" fill="#55a2fd" d="M 291.5,191.5 C 342.638,188.969 378.472,210.969 399,257.5C 413.345,308.273 398.845,348.439 355.5,378C 307.695,401.672 265.195,394.505 228,356.5C 203.501,324.892 198.167,290.225 212,252.5C 227.972,218.352 254.472,198.019 291.5,191.5 Z"/></g>
<g><path style="opacity:1" fill="#0150ac" d="M 297.5,203.5 C 344.921,203.771 375.754,226.437 390,271.5C 397.223,317.22 380.39,350.72 339.5,372C 299.237,386.687 264.737,378.187 236,346.5C 215.877,318.755 211.877,288.755 224,256.5C 238.949,225.454 263.449,207.788 297.5,203.5 Z"/></g>
<g><path style="opacity:1" fill="#014fac" d="M 414.5,212.5 C 426.171,212.333 437.838,212.5 449.5,213C 450.931,213.465 452.097,214.299 453,215.5C 453.667,218.167 453.667,220.833 453,223.5C 452.5,225.333 451.333,226.5 449.5,227C 437.833,227.667 426.167,227.667 414.5,227C 409.235,222.076 409.235,217.242 414.5,212.5 Z"/></g>
<g><path style="opacity:1" fill="#b2d5f3" d="M 295.5,219.5 C 336.643,218.303 363.143,237.303 375,276.5C 380.221,312.893 366.721,339.726 334.5,357C 297.649,370.602 267.483,361.769 244,330.5C 225.039,295.311 229.873,263.811 258.5,236C 269.563,227.486 281.896,221.986 295.5,219.5 Z"/></g>
<g><path style="opacity:1" fill="#0751ad" d="M 430.5,251.5 C 436.842,251.334 443.175,251.5 449.5,252C 453.277,254.911 454.444,258.744 453,263.5C 451.681,265.487 449.848,266.654 447.5,267C 441.388,267.909 435.388,267.576 429.5,266C 424.003,260.683 424.336,255.85 430.5,251.5 Z"/></g>
<g><path style="opacity:0.769" fill="#85b2e1" d="M 125.5,263.5 C 136.167,263.5 146.833,263.5 157.5,263.5C 157.5,331.833 157.5,400.167 157.5,468.5C 146.833,468.5 136.167,468.5 125.5,468.5C 125.5,400.167 125.5,331.833 125.5,263.5 Z"/></g>
<g><path style="opacity:1" fill="#b2d6f3" d="M 126.5,264.5 C 136.5,264.5 146.5,264.5 156.5,264.5C 156.5,332.167 156.5,399.833 156.5,467.5C 146.5,467.5 136.5,467.5 126.5,467.5C 126.5,399.833 126.5,332.167 126.5,264.5 Z"/></g>
<g><path style="opacity:1" fill="#0350ac" d="M 331.5,270.5 C 339.696,270.529 342.863,274.529 341,282.5C 329.868,295.3 318.368,307.8 306.5,320C 303.5,322 300.5,322 297.5,320C 291.333,313.833 285.167,307.667 279,301.5C 276.677,291.493 280.511,287.993 290.5,291C 293.833,294.333 297.167,297.667 300.5,301C 301.167,301.667 301.833,301.667 302.5,301C 312.061,290.609 321.728,280.442 331.5,270.5 Z"/></g>
<g><path style="opacity:1" fill="#0350ac" d="M 431.5,290.5 C 437.952,290.084 444.285,290.584 450.5,292C 453.394,294.909 454.227,298.409 453,302.5C 451.786,304.049 450.286,305.215 448.5,306C 441.724,306.92 435.057,306.586 428.5,305C 423.819,298.904 424.819,294.071 431.5,290.5 Z"/></g>
<g><path style="opacity:1" fill="#56a3fe" d="M 46.5,327.5 C 56.8333,327.5 67.1667,327.5 77.5,327.5C 77.5,374.5 77.5,421.5 77.5,468.5C 67.1667,468.5 56.8333,468.5 46.5,468.5C 46.5,421.5 46.5,374.5 46.5,327.5 Z"/></g>
<g><path style="opacity:1" fill="#56a3fe" d="M 205.5,352.5 C 214.018,364.858 224.184,375.858 236,385.5C 236.5,413.165 236.667,440.831 236.5,468.5C 226.167,468.5 215.833,468.5 205.5,468.5C 205.5,429.833 205.5,391.167 205.5,352.5 Z"/></g>
<g><path style="opacity:0.999" fill="#b0d3f2" d="M 394.5,364.5 C 400.37,367.368 405.704,371.034 410.5,375.5C 403.833,382.833 396.833,389.833 389.5,396.5C 385.601,391.716 381.934,386.716 378.5,381.5C 384.517,376.457 389.85,370.79 394.5,364.5 Z"/></g>
<g><path style="opacity:1" fill="#55a2fd" d="M 422.5,385.5 C 441.415,402.913 459.915,420.913 478,439.5C 486.505,454.828 482.172,464.494 465,468.5C 461.988,468.274 459.155,467.441 456.5,466C 437.362,447.862 418.528,429.362 400,410.5C 399.333,409.833 399.333,409.167 400,408.5C 407.702,400.965 415.202,393.298 422.5,385.5 Z"/></g>
<g><path style="opacity:1" fill="#b2d5f3" d="M 284.5,405.5 C 294.744,407.224 305.077,407.89 315.5,407.5C 315.5,427.833 315.5,448.167 315.5,468.5C 305.167,468.5 294.833,468.5 284.5,468.5C 284.5,447.5 284.5,426.5 284.5,405.5 Z"/></g>
</svg>
