<?xml version="1.0" encoding="UTF-8"?>
<!DOCTYPE svg PUBLIC "-//W3C//DTD SVG 1.1//EN" "http://www.w3.org/Graphics/SVG/1.1/DTD/svg11.dtd">
<svg xmlns="http://www.w3.org/2000/svg" version="1.1" width="512px" height="512px" style="shape-rendering:geometricPrecision; text-rendering:geometricPrecision; image-rendering:optimizeQuality; fill-rule:evenodd; clip-rule:evenodd" xmlns:xlink="http://www.w3.org/1999/xlink">
<g><path style="opacity:0.997" fill="#020202" d="M 74.5,-0.5 C 118.5,-0.5 162.5,-0.5 206.5,-0.5C 209.93,1.93541 211.596,5.26875 211.5,9.5C 210.731,14.7691 207.731,17.9358 202.5,19C 164.835,19.5 127.168,19.6667 89.5,19.5C 89.3333,106.834 89.5,194.167 90,281.5C 117.347,309.014 144.847,336.347 172.5,363.5C 187.29,348.099 204.957,337.266 225.5,331C 232.068,329.215 238.735,328.049 245.5,327.5C 249.884,327.826 254.217,327.492 258.5,326.5C 258.376,325.893 258.043,325.56 257.5,325.5C 246.521,314.855 235.521,304.188 224.5,293.5C 198.725,317.319 172.059,318.486 144.5,297C 125.901,275.335 123.734,252.168 138,227.5C 151.971,212.529 166.304,197.862 181,183.5C 203.667,130.167 226.333,76.8333 249,23.5C 252.915,19.4502 257.415,18.6168 262.5,21C 278.5,37 294.5,53 310.5,69C 315.74,67.7399 321.073,66.4065 326.5,65C 351.75,62.5942 368.25,73.4276 376,97.5C 376.667,102.5 376.667,107.5 376,112.5C 374.695,118.401 373.029,124.067 371,129.5C 388.029,146.195 404.696,163.195 421,180.5C 421.333,168.167 421.667,155.833 422,143.5C 423.495,138.838 426.661,136.172 431.5,135.5C 435.689,135.182 438.855,136.848 441,140.5C 441.333,145.5 441.667,150.5 442,155.5C 465.47,173.481 488.637,191.814 511.5,210.5C 511.5,297.167 511.5,383.833 511.5,470.5C 505.5,491.833 491.833,505.5 470.5,511.5C 327.167,511.5 183.833,511.5 40.5,511.5C 19.1667,505.5 5.5,491.833 -0.5,470.5C -0.5,383.833 -0.5,297.167 -0.5,210.5C 22.2861,191.602 45.2861,172.935 68.5,154.5C 69.3333,104.503 69.8333,54.5033 70,4.5C 71.3657,2.63834 72.8657,0.971672 74.5,-0.5 Z"/></g>
<g><path style="opacity:0.976" fill="#060606" d="M 349.5,-0.5 C 352.5,-0.5 355.5,-0.5 358.5,-0.5C 362.003,1.82375 364.003,5.15708 364.5,9.5C 363.671,17.3228 363.171,25.3228 363,33.5C 359.608,39.4667 354.774,40.9667 348.5,38C 346.951,36.786 345.785,35.286 345,33.5C 343.599,25.5852 343.099,17.5852 343.5,9.5C 343.992,5.16914 345.992,1.83581 349.5,-0.5 Z"/></g>
<g><path style="opacity:0.977" fill="#030303" d="M 428.5,-0.5 C 430.833,-0.5 433.167,-0.5 435.5,-0.5C 441.802,3.23707 443.635,8.57041 441,15.5C 437.964,18.7044 434.797,21.7044 431.5,24.5C 419.702,35.798 408.035,47.298 396.5,59C 388.05,61.8984 383.05,58.8984 381.5,50C 381.384,47.4557 382.217,45.289 384,43.5C 395.369,32.2984 406.535,20.9651 417.5,9.5C 420.569,5.42778 424.235,2.09445 428.5,-0.5 Z"/></g>
<g><path style="opacity:1" fill="#ebf0f8" d="M 211.5,9.5 C 255.5,9.5 299.5,9.5 343.5,9.5C 343.099,17.5852 343.599,25.5852 345,33.5C 345.785,35.286 346.951,36.786 348.5,38C 354.774,40.9667 359.608,39.4667 363,33.5C 363.171,25.3228 363.671,17.3228 364.5,9.5C 382.167,9.5 399.833,9.5 417.5,9.5C 406.535,20.9651 395.369,32.2984 384,43.5C 382.217,45.289 381.384,47.4557 381.5,50C 383.05,58.8984 388.05,61.8984 396.5,59C 408.035,47.298 419.702,35.798 431.5,24.5C 431.5,41.8333 431.5,59.1667 431.5,76.5C 423.677,77.3292 415.677,77.8292 407.5,78C 401.533,81.3924 400.033,86.2258 403,92.5C 404.214,94.0488 405.714,95.2155 407.5,96C 415.677,96.1708 423.677,96.6708 431.5,97.5C 431.5,110.167 431.5,122.833 431.5,135.5C 426.661,136.172 423.495,138.838 422,143.5C 421.667,155.833 421.333,168.167 421,180.5C 404.696,163.195 388.029,146.195 371,129.5C 373.029,124.067 374.695,118.401 376,112.5C 376.667,107.5 376.667,102.5 376,97.5C 368.25,73.4276 351.75,62.5942 326.5,65C 321.073,66.4065 315.74,67.7399 310.5,69C 294.5,53 278.5,37 262.5,21C 257.415,18.6168 252.915,19.4502 249,23.5C 226.333,76.8333 203.667,130.167 181,183.5C 166.304,197.862 151.971,212.529 138,227.5C 123.734,252.168 125.901,275.335 144.5,297C 172.059,318.486 198.725,317.319 224.5,293.5C 235.521,304.188 246.521,314.855 257.5,325.5C 253.5,326.167 249.5,326.833 245.5,327.5C 238.735,328.049 232.068,329.215 225.5,331C 204.957,337.266 187.29,348.099 172.5,363.5C 144.847,336.347 117.347,309.014 90,281.5C 89.5,194.167 89.3333,106.834 89.5,19.5C 127.168,19.6667 164.835,19.5 202.5,19C 207.731,17.9358 210.731,14.7691 211.5,9.5 Z"/></g>
<g><path style="opacity:1" fill="#fdfdfd" d="M 260.5,47.5 C 304.965,91.4653 349.299,135.632 393.5,180C 386.5,183.167 379.5,186.333 372.5,189.5C 332.347,148.847 292.014,108.347 251.5,68C 254.406,61.1131 257.406,54.2798 260.5,47.5 Z"/></g>
<g><path style="opacity:1" fill="#020202" d="M 118.5,55.5 C 132.837,55.3334 147.171,55.5001 161.5,56C 171.921,59.8356 173.254,65.8356 165.5,74C 164.167,74.3333 162.833,74.6667 161.5,75C 147.167,75.6667 132.833,75.6667 118.5,75C 113.091,73.7148 110.425,70.2148 110.5,64.5C 111.108,59.5882 113.775,56.5882 118.5,55.5 Z"/></g>
<g><path style="opacity:1" fill="#050606" d="M 195.5,55.5 C 205.155,56.3081 208.655,61.3081 206,70.5C 200.333,77.1667 194.667,77.1667 189,70.5C 186.427,63.3711 188.594,58.3711 195.5,55.5 Z"/></g>
<g><path style="opacity:0.972" fill="#020202" d="M 431.5,76.5 C 442.472,78.9502 445.138,85.1169 439.5,95C 437.091,96.7068 434.425,97.5402 431.5,97.5C 423.677,96.6708 415.677,96.1708 407.5,96C 405.714,95.2155 404.214,94.0488 403,92.5C 400.033,86.2258 401.533,81.3924 407.5,78C 415.677,77.8292 423.677,77.3292 431.5,76.5 Z"/></g>
<g><path style="opacity:1" fill="#f55959" d="M 327.5,84.5 C 348.69,83.182 357.856,92.8487 355,113.5C 345.242,104.246 336.075,94.5794 327.5,84.5 Z"/></g>
<g><path style="opacity:1" fill="#4cb9f5" d="M 242.5,88.5 C 279.146,124.812 315.812,161.146 352.5,197.5C 321.292,211.27 289.958,224.77 258.5,238C 256.553,238.991 254.553,239.325 252.5,239C 234.926,221.928 217.926,204.428 201.5,186.5C 215.176,153.817 228.843,121.15 242.5,88.5 Z"/></g>
<g><path style="opacity:1" fill="#020202" d="M 118.5,111.5 C 135.503,111.333 152.503,111.5 169.5,112C 176.85,113.679 179.683,118.179 178,125.5C 175.924,128.588 173.091,130.421 169.5,131C 152.5,131.667 135.5,131.667 118.5,131C 113.091,129.715 110.425,126.215 110.5,120.5C 111.108,115.588 113.775,112.588 118.5,111.5 Z"/></g>
<g><path style="opacity:1" fill="#71d7fd" d="M 68.5,180.5 C 69.6635,206.997 69.8302,233.664 69,260.5C 54.3193,245.986 39.8193,231.319 25.5,216.5C 39.6793,204.254 54.0126,192.254 68.5,180.5 Z"/></g>
<g><path style="opacity:1" fill="#71d7fd" d="M 441.5,181.5 C 456.54,192.688 471.207,204.355 485.5,216.5C 471.181,231.319 456.681,245.986 442,260.5C 441.5,234.169 441.333,207.835 441.5,181.5 Z"/></g>
<g><path style="opacity:1" fill="#ecf1f9" d="M 420.5,186.5 C 421.664,217.997 421.831,249.664 421,281.5C 393.833,308.667 366.667,335.833 339.5,363C 338.833,363.667 338.167,363.667 337.5,363C 320.792,345.321 300.459,333.987 276.5,329C 285,320.5 293.5,312 302,303.5C 305.914,298.983 306.248,294.316 303,289.5C 292,278.5 281,267.5 270,256.5C 269.312,255.668 269.479,255.002 270.5,254.5C 319.208,233.764 367.874,212.931 416.5,192C 418.464,190.549 419.797,188.716 420.5,186.5 Z"/></g>
<g><path style="opacity:1" fill="#fc5c5c" d="M 187.5,204.5 C 188.552,204.351 189.552,204.517 190.5,205C 206.014,220.347 221.347,235.847 236.5,251.5C 224.285,264.883 211.285,277.383 197.5,289C 173.706,296.853 157.539,289.019 149,265.5C 147.147,253.728 150.147,243.395 158,234.5C 168.036,224.632 177.869,214.632 187.5,204.5 Z"/></g>
<g><path style="opacity:1" fill="#fdd99a" d="M 19.5,240.5 C 65.479,285.812 111.146,331.479 156.5,377.5C 116.791,414.877 76.4576,451.543 35.5,487.5C 26.6443,482.796 21.4776,475.463 20,465.5C 19.5,390.501 19.3333,315.501 19.5,240.5 Z"/></g>
<g><path style="opacity:1" fill="#fdd99a" d="M 490.5,240.5 C 491.666,315.332 491.832,390.332 491,465.5C 489.522,475.463 484.356,482.796 475.5,487.5C 434.542,451.543 394.209,414.877 354.5,377.5C 399.854,331.812 445.188,286.146 490.5,240.5 Z"/></g>
<g><path style="opacity:1" fill="#667cf7" d="M 250.5,266.5 C 260.746,275.242 270.579,284.575 280,294.5C 280.667,295.5 280.667,296.5 280,297.5C 276.318,301.349 272.485,305.016 268.5,308.5C 258.134,299.134 248.467,289.134 239.5,278.5C 243.189,274.48 246.855,270.48 250.5,266.5 Z"/></g>
<g><path style="opacity:1" fill="#85888c" d="M 257.5,325.5 C 258.043,325.56 258.376,325.893 258.5,326.5C 254.217,327.492 249.884,327.826 245.5,327.5C 249.5,326.833 253.5,326.167 257.5,325.5 Z"/></g>
<g><path style="opacity:1" fill="#feb853" d="M 246.5,346.5 C 269.12,345.542 289.787,351.375 308.5,364C 355.466,405.964 402.132,448.297 448.5,491C 319.833,491.667 191.167,491.667 62.5,491C 72.8677,480.964 83.5344,471.297 94.5,462C 120.882,461.964 147.216,461.298 173.5,460C 178.833,454.333 178.833,448.667 173.5,443C 154.885,441.718 136.218,441.052 117.5,441C 145.833,415.333 174.167,389.667 202.5,364C 215.863,354.716 230.53,348.883 246.5,346.5 Z"/></g>
<g><path style="opacity:1" fill="#0a0602" d="M 205.5,441.5 C 215.482,440.982 219.649,445.648 218,455.5C 212,463.5 206,463.5 200,455.5C 199.333,452.833 199.333,450.167 200,447.5C 201.36,444.977 203.193,442.977 205.5,441.5 Z"/></g>
</svg>
