<svg version="1.1" id="Layer_1" xmlns="http://www.w3.org/2000/svg" xmlns:xlink="http://www.w3.org/1999/xlink" x="0px" y="0px"
	 width="100%" viewBox="0 0 512 512" enable-background="new 0 0 512 512" xml:space="preserve">
<path fill="#000000" opacity="1.000000" stroke="none" 
	d="
M513.000000,194.000000 
	C513.000000,300.640747 513.000000,406.781494 513.000000,512.961121 
	C342.400909,512.961121 171.801804,512.961121 1.101355,512.961121 
	C1.101355,342.442627 1.101355,171.885147 1.101355,1.163839 
	C171.666534,1.163839 342.333252,1.163839 513.000000,1.163839 
	C513.000000,65.198151 513.000000,129.349075 513.000000,194.000000 
M217.000900,163.304657 
	C217.000900,160.026779 217.000900,156.748901 217.000900,153.124527 
	C214.636246,153.124527 212.837708,153.124573 211.039185,153.124527 
	C189.379517,153.123825 167.719757,153.088470 146.060196,153.137756 
	C135.936874,153.160782 128.647430,148.663986 123.629799,139.949203 
	C122.849312,138.593658 120.820374,137.151489 119.345917,137.127060 
	C106.353798,136.911667 93.353996,136.851334 80.361473,137.058731 
	C68.553368,137.247192 57.976200,146.211441 57.347488,157.924377 
	C56.546932,172.838760 57.153553,187.828674 57.153553,202.850464 
	C94.126137,194.255341 130.077591,217.181885 136.695251,256.666687 
	C147.388977,256.666687 158.101715,256.666687 169.262909,256.666687 
	C169.262909,248.598969 169.262909,240.858871 169.262909,233.379440 
	C185.447876,233.379440 201.178238,233.379440 217.168243,233.379440 
	C217.168243,260.033234 217.168243,286.308838 217.168243,312.757599 
	C222.503128,312.757599 227.566895,312.757599 233.071457,312.757599 
	C233.071457,275.458801 233.071457,238.400101 233.071457,201.278656 
	C249.243591,201.278656 264.971649,201.278656 281.139557,201.278656 
	C281.139557,238.613251 281.139557,275.672180 281.139557,312.685120 
	C286.651306,312.685120 291.715881,312.685120 297.217651,312.685120 
	C297.217651,280.644836 297.217651,248.917953 297.217651,217.352768 
	C313.393921,217.352768 329.123444,217.352768 345.296356,217.352768 
	C345.296356,230.770004 345.296356,243.838120 345.296356,256.782928 
	C361.358887,256.782928 376.969757,256.782928 393.024902,256.782928 
	C393.024902,232.840851 393.024902,209.111145 393.024902,184.939117 
	C414.530853,184.939117 435.594940,184.939117 456.903992,184.939117 
	C456.903992,175.865738 457.347717,167.209473 456.795654,158.617188 
	C456.045868,146.947662 446.007202,137.398361 434.325623,137.107178 
	C421.004761,136.775131 407.669067,136.950027 394.341980,137.099472 
	C393.082916,137.113586 391.274658,138.214539 390.677307,139.325073 
	C385.489685,148.969666 377.536102,153.274628 366.625153,153.183823 
	C343.300964,152.989700 319.973083,153.023895 296.649384,153.245758 
	C293.568268,153.275055 290.099762,154.314255 287.498230,155.967590 
	C274.720154,164.088364 262.239166,172.674698 249.529648,180.905746 
	C234.596985,190.576569 217.854034,181.927612 217.000900,163.304657 
M456.968933,386.126465 
	C456.968933,377.852600 456.968933,369.578735 456.968933,361.266052 
	C323.418945,361.266052 190.363297,361.266052 57.000381,361.266052 
	C57.000381,368.830200 56.978809,376.132355 57.004841,383.434326 
	C57.060223,398.967499 67.099159,408.989319 82.717499,408.991394 
	C198.870392,409.006775 315.023285,409.004913 431.176178,408.993042 
	C445.519531,408.991577 454.444580,401.336945 456.968933,386.126465 
M269.243835,148.720230 
	C273.264709,146.055832 277.471924,143.628647 281.252991,140.658936 
	C284.885712,137.805710 288.730927,137.024384 293.243225,137.054062 
	C317.563995,137.214111 341.886353,137.139633 366.208160,137.124359 
	C374.460815,137.119171 376.996307,134.618149 376.999359,126.499031 
	C377.010590,96.346649 377.009277,66.194267 377.000336,36.041889 
	C376.997833,27.640932 374.438568,25.123915 365.895447,25.123268 
	C293.263184,25.117777 220.630936,25.117495 147.998688,25.123707 
	C139.531494,25.124432 137.001053,27.665895 136.998978,36.141113 
	C136.991653,66.126907 136.992340,96.112694 136.998535,126.098488 
	C137.000305,134.694794 139.381836,137.120621 147.883926,137.124908 
	C174.371384,137.138245 200.858826,137.129807 227.346283,137.129807 
	C229.120117,137.129807 230.893967,137.129822 232.996231,137.129822 
	C232.996231,145.804626 232.847778,153.942703 233.099213,162.068420 
	C233.163177,164.135620 234.004272,167.342056 235.371506,167.914062 
	C237.119278,168.645309 240.123596,167.810730 241.957947,166.654190 
	C250.960068,160.978409 259.753693,154.971924 269.243835,148.720230 
M118.930740,309.428711 
	C101.621132,326.523743 80.957809,332.193115 57.308960,327.162903 
	C57.308960,333.279785 57.308960,339.023071 57.308960,344.714569 
	C190.650375,344.714569 323.682617,344.714569 456.690125,344.714569 
	C456.690125,339.358459 456.690125,334.295105 456.690125,328.791077 
	C435.319855,328.791077 414.256134,328.791077 392.753235,328.791077 
	C392.753235,309.948303 392.753235,291.550598 392.753235,273.367950 
	C376.573029,273.367950 360.843170,273.367950 345.212463,273.367950 
	C345.212463,286.681427 345.212463,299.626068 345.212463,313.020020 
	C350.482056,313.020020 355.558472,313.020020 360.739410,313.020020 
	C360.739410,318.539459 360.739410,323.603455 360.739410,328.739014 
	C291.430420,328.739014 222.382355,328.739014 153.284943,328.739014 
	C153.284943,323.409302 153.284943,318.345337 153.284943,312.833862 
	C158.634644,312.833862 163.709030,312.833862 168.669220,312.833862 
	C168.669220,299.315674 168.669220,286.252563 168.669220,273.281250 
	C157.735703,273.281250 147.135117,273.281250 136.417297,273.281250 
	C134.375397,287.060638 128.758591,298.889069 118.930740,309.428711 
M488.999603,284.500000 
	C488.999603,256.744965 488.999603,228.989929 488.999603,201.289673 
	C462.026733,201.289673 435.629639,201.289673 409.287720,201.289673 
	C409.287720,238.640701 409.287720,275.701752 409.287720,312.710388 
	C435.973175,312.710388 462.370239,312.710388 488.999603,312.710388 
	C488.999603,303.448608 488.999603,294.474304 488.999603,284.500000 
M260.500000,456.999512 
	C280.572998,456.999512 300.646027,456.999512 320.676697,456.999512 
	C320.676697,446.008453 320.676697,435.621979 320.676697,425.301025 
	C277.997406,425.301025 235.641556,425.301025 193.323059,425.301025 
	C193.323059,435.991211 193.323059,446.377594 193.323059,456.694641 
	C193.957779,456.833130 194.271667,456.961243 194.585648,456.961517 
	C216.223770,456.980713 237.861877,456.989685 260.500000,456.999512 
M31.449350,288.955200 
	C42.664524,307.079834 60.864388,315.500732 81.537796,312.130646 
	C105.087845,308.291656 122.237213,286.433319 120.913223,261.943268 
	C119.621300,238.046326 99.394226,218.059555 75.498154,217.067719 
	C37.625641,215.495789 13.578604,254.063568 31.449350,288.955200 
M149.453766,483.145508 
	C148.539093,484.836670 147.624405,486.527832 146.488159,488.628662 
	C220.431229,488.628662 293.655945,488.628662 367.008606,488.628662 
	C363.556702,478.664215 355.040680,473.013031 343.668091,473.009186 
	C285.892029,472.989594 228.115952,473.022614 170.339920,472.975098 
	C161.952515,472.968201 155.151993,476.017242 149.453766,483.145508 
M249.000488,293.499573 
	C249.000488,299.920227 249.000488,306.340851 249.000488,312.655640 
	C254.695023,312.655640 259.751892,312.655640 264.683411,312.655640 
	C264.683411,280.625671 264.683411,248.940598 264.683411,217.344116 
	C259.305603,217.344116 254.248795,217.344116 249.000488,217.344116 
	C249.000488,242.624756 249.000488,267.562286 249.000488,293.499573 
M313.000427,283.500000 
	C313.000427,293.244843 313.000427,302.989655 313.000427,312.667542 
	C318.672241,312.667542 323.726501,312.667542 328.693604,312.667542 
	C328.693604,285.981537 328.693604,259.628693 328.693604,233.332092 
	C323.328583,233.332092 318.274353,233.332092 313.000427,233.332092 
	C313.000427,249.941772 313.000427,266.220886 313.000427,283.500000 
M200.999512,301.481323 
	C200.999512,284.091125 200.999512,266.700928 200.999512,249.310684 
	C195.369354,249.310684 190.317642,249.310684 185.288147,249.310684 
	C185.288147,270.643860 185.288147,291.665527 185.288147,312.688599 
	C190.632111,312.688599 195.683838,312.688599 200.999512,312.688599 
	C200.999512,309.078308 200.999512,305.776398 200.999512,301.481323 
z"/>
<path fill="#69D6F3" opacity="1.000000" stroke="none" 
	d="
M217.001526,163.767731 
	C217.854034,181.927612 234.596985,190.576569 249.529648,180.905746 
	C262.239166,172.674698 274.720154,164.088364 287.498230,155.967590 
	C290.099762,154.314255 293.568268,153.275055 296.649384,153.245758 
	C319.973083,153.023895 343.300964,152.989700 366.625153,153.183823 
	C377.536102,153.274628 385.489685,148.969666 390.677307,139.325073 
	C391.274658,138.214539 393.082916,137.113586 394.341980,137.099472 
	C407.669067,136.950027 421.004761,136.775131 434.325623,137.107178 
	C446.007202,137.398361 456.045868,146.947662 456.795654,158.617188 
	C457.347717,167.209473 456.903992,175.865738 456.903992,184.939117 
	C435.594940,184.939117 414.530853,184.939117 393.024902,184.939117 
	C393.024902,209.111145 393.024902,232.840851 393.024902,256.782928 
	C376.969757,256.782928 361.358887,256.782928 345.296356,256.782928 
	C345.296356,243.838120 345.296356,230.770004 345.296356,217.352768 
	C329.123444,217.352768 313.393921,217.352768 297.217651,217.352768 
	C297.217651,248.917953 297.217651,280.644836 297.217651,312.685120 
	C291.715881,312.685120 286.651306,312.685120 281.139557,312.685120 
	C281.139557,275.672180 281.139557,238.613251 281.139557,201.278656 
	C264.971649,201.278656 249.243591,201.278656 233.071457,201.278656 
	C233.071457,238.400101 233.071457,275.458801 233.071457,312.757599 
	C227.566895,312.757599 222.503128,312.757599 217.168243,312.757599 
	C217.168243,286.308838 217.168243,260.033234 217.168243,233.379440 
	C201.178238,233.379440 185.447876,233.379440 169.262909,233.379440 
	C169.262909,240.858871 169.262909,248.598969 169.262909,256.666687 
	C158.101715,256.666687 147.388977,256.666687 136.695251,256.666687 
	C130.077591,217.181885 94.126137,194.255341 57.153553,202.850464 
	C57.153553,187.828674 56.546932,172.838760 57.347488,157.924377 
	C57.976200,146.211441 68.553368,137.247192 80.361473,137.058731 
	C93.353996,136.851334 106.353798,136.911667 119.345917,137.127060 
	C120.820374,137.151489 122.849312,138.593658 123.629799,139.949203 
	C128.647430,148.663986 135.936874,153.160782 146.060196,153.137756 
	C167.719757,153.088470 189.379517,153.123825 211.039185,153.124527 
	C212.837708,153.124573 214.636246,153.124527 217.000900,153.124527 
	C217.000900,156.748901 217.000900,160.026779 217.001526,163.767731 
z"/>
<path fill="#CCD1D9" opacity="1.000000" stroke="none" 
	d="
M456.950378,386.579102 
	C454.444580,401.336945 445.519531,408.991577 431.176178,408.993042 
	C315.023285,409.004913 198.870392,409.006775 82.717499,408.991394 
	C67.099159,408.989319 57.060223,398.967499 57.004841,383.434326 
	C56.978809,376.132355 57.000381,368.830200 57.000381,361.266052 
	C190.363297,361.266052 323.418945,361.266052 456.968933,361.266052 
	C456.968933,369.578735 456.968933,377.852600 456.950378,386.579102 
M222.315735,377.479889 
	C216.070450,381.212830 215.148529,387.883453 220.426407,391.509552 
	C223.506927,393.625946 226.735474,393.621613 229.712051,391.373779 
	C232.648315,389.156342 233.838348,386.079529 232.543732,382.541107 
	C230.950058,378.185242 227.636063,376.464630 222.315735,377.479889 
M249.008530,385.394562 
	C250.588425,391.315826 254.611923,394.231262 259.271759,392.631805 
	C263.180237,391.290314 265.219208,388.428589 264.937714,384.240997 
	C264.672150,380.289917 261.258179,377.006134 257.309082,377.045380 
	C252.416428,377.093964 249.662857,379.768829 249.008530,385.394562 
M288.603424,377.005432 
	C284.660522,377.392395 281.610413,379.548248 281.369019,383.339233 
	C281.204224,385.927551 282.411469,389.712830 284.330688,391.026367 
	C286.440247,392.470154 290.731018,392.818054 292.850922,391.570129 
	C294.991394,390.310059 296.685181,386.510132 296.689148,383.820099 
	C296.695068,379.809906 293.555328,377.448761 288.603424,377.005432 
z"/>
<path fill="#E4E7EB" opacity="1.000000" stroke="none" 
	d="
M268.932373,148.901245 
	C259.753693,154.971924 250.960068,160.978409 241.957947,166.654190 
	C240.123596,167.810730 237.119278,168.645309 235.371506,167.914062 
	C234.004272,167.342056 233.163177,164.135620 233.099213,162.068420 
	C232.847778,153.942703 232.996231,145.804626 232.996231,137.129822 
	C230.893967,137.129822 229.120117,137.129807 227.346283,137.129807 
	C200.858826,137.129807 174.371384,137.138245 147.883926,137.124908 
	C139.381836,137.120621 137.000305,134.694794 136.998535,126.098488 
	C136.992340,96.112694 136.991653,66.126907 136.998978,36.141113 
	C137.001053,27.665895 139.531494,25.124432 147.998688,25.123707 
	C220.630936,25.117495 293.263184,25.117777 365.895447,25.123268 
	C374.438568,25.123915 376.997833,27.640932 377.000336,36.041889 
	C377.009277,66.194267 377.010590,96.346649 376.999359,126.499031 
	C376.996307,134.618149 374.460815,137.119171 366.208160,137.124359 
	C341.886353,137.139633 317.563995,137.214111 293.243225,137.054062 
	C288.730927,137.024384 284.885712,137.805710 281.252991,140.658936 
	C277.471924,143.628647 273.264709,146.055832 268.932373,148.901245 
M157.543457,51.156357 
	C152.063980,59.334736 151.247299,67.925560 156.002792,76.591354 
	C160.744080,85.231209 168.364456,89.270996 178.225555,89.139153 
	C182.887756,89.076828 187.554520,89.028404 192.213852,89.161369 
	C197.561646,89.313972 201.091110,92.728828 200.970566,97.375580 
	C200.853516,101.888489 197.494919,104.955856 192.318207,105.091438 
	C188.323975,105.196053 184.324936,105.125320 180.328049,105.119026 
	C172.559036,105.106796 171.336807,104.298279 168.489563,97.433502 
	C163.345642,97.433502 158.266251,97.433502 153.192902,97.433502 
	C153.452209,110.440361 163.210052,120.582413 175.808014,121.040108 
	C181.463043,121.245560 187.132584,121.197838 192.792450,121.094887 
	C206.569489,120.844292 217.009155,110.453712 216.990036,97.125313 
	C216.971054,83.890709 206.404068,73.414932 192.707047,73.138123 
	C187.712891,73.037186 182.713394,73.196594 177.719437,73.090675 
	C172.527786,72.980553 169.171204,69.929893 169.028534,65.418892 
	C168.881393,60.765976 172.402908,57.339294 177.736359,57.159191 
	C181.562439,57.029987 185.406738,57.310520 189.224289,57.088356 
	C195.366730,56.730892 200.113937,58.303669 201.204834,64.758881 
	C206.786896,64.758881 211.843842,64.758881 216.896881,64.758881 
	C216.097168,51.249538 206.489700,41.646729 193.471207,41.162529 
	C188.648148,40.983150 183.811722,41.198360 178.983902,41.104561 
	C170.464172,40.939022 163.372513,43.839081 157.543457,51.156357 
M309.056000,44.355896 
	C301.800323,48.884041 297.352875,55.327038 297.111450,63.928638 
	C296.789398,75.402069 296.791656,86.897697 297.096283,98.372063 
	C297.423767,110.706390 307.584930,120.629105 319.928406,121.041603 
	C325.746338,121.236038 331.578735,121.211624 337.399261,121.069099 
	C350.555695,120.746948 360.733307,110.654221 360.952362,97.538910 
	C361.135712,86.558647 361.115631,75.570747 360.943665,64.590027 
	C360.788757,54.696304 354.855194,45.580185 345.400665,42.995335 
	C333.606781,39.770897 321.497253,39.432701 309.056000,44.355896 
M281.000000,75.744362 
	C281.370270,72.289177 278.822449,73.152122 277.016052,73.143715 
	C267.752106,73.100586 258.487823,73.123749 249.001114,73.123749 
	C249.001114,71.556877 249.006683,70.579300 249.000244,69.601799 
	C248.931686,59.197044 251.012695,57.127670 261.552338,57.126392 
	C267.972137,57.125614 274.391907,57.126251 280.632202,57.126251 
	C280.632202,51.405132 280.632202,46.345657 280.632202,41.144684 
	C272.278900,41.144684 264.285797,40.919827 256.310120,41.196434 
	C243.785370,41.630810 233.516708,51.423508 233.124557,63.629501 
	C232.750244,75.281235 232.783096,86.961678 233.113815,98.615967 
	C233.434189,109.906013 242.679871,120.035637 253.730713,120.824677 
	C262.635742,121.460503 271.622345,120.953430 280.755981,120.953430 
	C280.755981,115.659782 280.755981,110.592827 280.755981,105.121552 
	C273.060303,105.121552 265.601685,105.187996 258.144806,105.101036 
	C251.907150,105.028290 249.127838,102.139282 249.007935,95.843399 
	C248.967697,93.730766 249.001572,91.616707 249.001572,89.057755 
	C259.891052,89.057755 270.291748,89.057755 281.000977,89.057755 
	C281.000977,84.641739 281.000977,80.672424 281.000000,75.744362 
z"/>
<path fill="#69D6F4" opacity="1.000000" stroke="none" 
	d="
M119.182709,309.176453 
	C128.758591,298.889069 134.375397,287.060638 136.417297,273.281250 
	C147.135117,273.281250 157.735703,273.281250 168.669220,273.281250 
	C168.669220,286.252563 168.669220,299.315674 168.669220,312.833862 
	C163.709030,312.833862 158.634644,312.833862 153.284943,312.833862 
	C153.284943,318.345337 153.284943,323.409302 153.284943,328.739014 
	C222.382355,328.739014 291.430420,328.739014 360.739410,328.739014 
	C360.739410,323.603455 360.739410,318.539459 360.739410,313.020020 
	C355.558472,313.020020 350.482056,313.020020 345.212463,313.020020 
	C345.212463,299.626068 345.212463,286.681427 345.212463,273.367950 
	C360.843170,273.367950 376.573029,273.367950 392.753235,273.367950 
	C392.753235,291.550598 392.753235,309.948303 392.753235,328.791077 
	C414.256134,328.791077 435.319855,328.791077 456.690125,328.791077 
	C456.690125,334.295105 456.690125,339.358459 456.690125,344.714569 
	C323.682617,344.714569 190.650375,344.714569 57.308960,344.714569 
	C57.308960,339.023071 57.308960,333.279785 57.308960,327.162903 
	C80.957809,332.193115 101.621132,326.523743 119.182709,309.176453 
z"/>
<path fill="#E6E9ED" opacity="1.000000" stroke="none" 
	d="
M488.999603,285.000000 
	C488.999603,294.474304 488.999603,303.448608 488.999603,312.710388 
	C462.370239,312.710388 435.973175,312.710388 409.287720,312.710388 
	C409.287720,275.701752 409.287720,238.640701 409.287720,201.289673 
	C435.629639,201.289673 462.026733,201.289673 488.999603,201.289673 
	C488.999603,228.989929 488.999603,256.744965 488.999603,285.000000 
M459.491821,233.000412 
	C463.923828,233.000412 468.355804,233.000412 472.705322,233.000412 
	C472.705322,227.349991 472.705322,222.282684 472.705322,217.289307 
	C456.681458,217.289307 440.954254,217.289307 425.295105,217.289307 
	C425.295105,222.650848 425.295105,227.718155 425.295105,233.000412 
	C436.558014,233.000412 447.526581,233.000412 459.491821,233.000412 
M466.423676,265.000397 
	C468.527313,265.000397 470.630951,265.000397 472.726501,265.000397 
	C472.726501,259.392639 472.726501,254.325195 472.726501,249.269684 
	C456.723328,249.269684 440.995544,249.269684 425.275818,249.269684 
	C425.275818,254.611938 425.275818,259.679382 425.275818,265.000397 
	C438.846252,265.000397 452.141907,265.000397 466.423676,265.000397 
M426.722656,281.004913 
	C426.149933,281.604889 425.099426,282.190308 425.080688,282.807129 
	C424.940582,287.418152 425.004517,292.035370 425.004517,296.776672 
	C441.178162,296.776672 456.907379,296.776672 472.769836,296.776672 
	C472.769836,291.483185 472.769836,286.415710 472.769836,281.523407 
	C472.411285,281.255493 472.283508,281.076385 472.155304,281.076080 
	C457.332794,281.042084 442.510223,281.021423 426.722656,281.004913 
z"/>
<path fill="#AAB2BD" opacity="1.000000" stroke="none" 
	d="
M260.000000,456.999512 
	C237.861877,456.989685 216.223770,456.980713 194.585648,456.961517 
	C194.271667,456.961243 193.957779,456.833130 193.323059,456.694641 
	C193.323059,446.377594 193.323059,435.991211 193.323059,425.301025 
	C235.641556,425.301025 277.997406,425.301025 320.676697,425.301025 
	C320.676697,435.621979 320.676697,446.008453 320.676697,456.999512 
	C300.646027,456.999512 280.572998,456.999512 260.000000,456.999512 
z"/>
<path fill="#F8D46E" opacity="1.000000" stroke="none" 
	d="
M31.260586,288.638000 
	C13.578604,254.063568 37.625641,215.495789 75.498154,217.067719 
	C99.394226,218.059555 119.621300,238.046326 120.913223,261.943268 
	C122.237213,286.433319 105.087845,308.291656 81.537796,312.130646 
	C60.864388,315.500732 42.664524,307.079834 31.260586,288.638000 
M97.306343,244.249344 
	C85.914124,232.117935 70.002319,229.527084 56.561611,237.615021 
	C43.729118,245.337006 37.823650,260.728638 42.632755,274.808655 
	C47.031773,287.688019 56.311234,295.308716 69.724846,296.728607 
	C83.186684,298.153625 93.978493,292.574677 100.675354,280.768219 
	C107.704926,268.375153 106.297974,256.177643 97.306343,244.249344 
z"/>
<path fill="#969FAA" opacity="1.000000" stroke="none" 
	d="
M149.682953,482.851501 
	C155.151993,476.017242 161.952515,472.968201 170.339920,472.975098 
	C228.115952,473.022614 285.892029,472.989594 343.668091,473.009186 
	C355.040680,473.013031 363.556702,478.664215 367.008606,488.628662 
	C293.655945,488.628662 220.431229,488.628662 146.488159,488.628662 
	C147.624405,486.527832 148.539093,484.836670 149.682953,482.851501 
z"/>
<path fill="#FF826E" opacity="1.000000" stroke="none" 
	d="
M249.000488,292.999695 
	C249.000488,267.562286 249.000488,242.624756 249.000488,217.344116 
	C254.248795,217.344116 259.305603,217.344116 264.683411,217.344116 
	C264.683411,248.940598 264.683411,280.625671 264.683411,312.655640 
	C259.751892,312.655640 254.695023,312.655640 249.000488,312.655640 
	C249.000488,306.340851 249.000488,299.920227 249.000488,292.999695 
z"/>
<path fill="#FF826E" opacity="1.000000" stroke="none" 
	d="
M313.000427,283.000000 
	C313.000427,266.220886 313.000427,249.941772 313.000427,233.332092 
	C318.274353,233.332092 323.328583,233.332092 328.693604,233.332092 
	C328.693604,259.628693 328.693604,285.981537 328.693604,312.667542 
	C323.726501,312.667542 318.672241,312.667542 313.000427,312.667542 
	C313.000427,302.989655 313.000427,293.244843 313.000427,283.000000 
z"/>
<path fill="#FF826E" opacity="1.000000" stroke="none" 
	d="
M200.999512,301.977905 
	C200.999512,305.776398 200.999512,309.078308 200.999512,312.688599 
	C195.683838,312.688599 190.632111,312.688599 185.288147,312.688599 
	C185.288147,291.665527 185.288147,270.643860 185.288147,249.310684 
	C190.317642,249.310684 195.369354,249.310684 200.999512,249.310684 
	C200.999512,266.700928 200.999512,284.091125 200.999512,301.977905 
z"/>
<path fill="#0A0A0A" opacity="1.000000" stroke="none" 
	d="
M222.686493,377.337219 
	C227.636063,376.464630 230.950058,378.185242 232.543732,382.541107 
	C233.838348,386.079529 232.648315,389.156342 229.712051,391.373779 
	C226.735474,393.621613 223.506927,393.625946 220.426407,391.509552 
	C215.148529,387.883453 216.070450,381.212830 222.686493,377.337219 
z"/>
<path fill="#0A0A0A" opacity="1.000000" stroke="none" 
	d="
M249.008545,385.001923 
	C249.662857,379.768829 252.416428,377.093964 257.309082,377.045380 
	C261.258179,377.006134 264.672150,380.289917 264.937714,384.240997 
	C265.219208,388.428589 263.180237,391.290314 259.271759,392.631805 
	C254.611923,394.231262 250.588425,391.315826 249.008545,385.001923 
z"/>
<path fill="#0A0A0A" opacity="1.000000" stroke="none" 
	d="
M288.996033,377.005432 
	C293.555328,377.448761 296.695068,379.809906 296.689148,383.820099 
	C296.685181,386.510132 294.991394,390.310059 292.850922,391.570129 
	C290.731018,392.818054 286.440247,392.470154 284.330688,391.026367 
	C282.411469,389.712830 281.204224,385.927551 281.369019,383.339233 
	C281.610413,379.548248 284.660522,377.392395 288.996033,377.005432 
z"/>
<path fill="#040404" opacity="1.000000" stroke="none" 
	d="
M157.767944,50.868355 
	C163.372513,43.839081 170.464172,40.939022 178.983902,41.104561 
	C183.811722,41.198360 188.648148,40.983150 193.471207,41.162529 
	C206.489700,41.646729 216.097168,51.249538 216.896881,64.758881 
	C211.843842,64.758881 206.786896,64.758881 201.204834,64.758881 
	C200.113937,58.303669 195.366730,56.730892 189.224289,57.088356 
	C185.406738,57.310520 181.562439,57.029987 177.736359,57.159191 
	C172.402908,57.339294 168.881393,60.765976 169.028534,65.418892 
	C169.171204,69.929893 172.527786,72.980553 177.719437,73.090675 
	C182.713394,73.196594 187.712891,73.037186 192.707047,73.138123 
	C206.404068,73.414932 216.971054,83.890709 216.990036,97.125313 
	C217.009155,110.453712 206.569489,120.844292 192.792450,121.094887 
	C187.132584,121.197838 181.463043,121.245560 175.808014,121.040108 
	C163.210052,120.582413 153.452209,110.440361 153.192902,97.433502 
	C158.266251,97.433502 163.345642,97.433502 168.489563,97.433502 
	C171.336807,104.298279 172.559036,105.106796 180.328049,105.119026 
	C184.324936,105.125320 188.323975,105.196053 192.318207,105.091438 
	C197.494919,104.955856 200.853516,101.888489 200.970566,97.375580 
	C201.091110,92.728828 197.561646,89.313972 192.213852,89.161369 
	C187.554520,89.028404 182.887756,89.076828 178.225555,89.139153 
	C168.364456,89.270996 160.744080,85.231209 156.002792,76.591354 
	C151.247299,67.925560 152.063980,59.334736 157.767944,50.868355 
z"/>
<path fill="#020303" opacity="1.000000" stroke="none" 
	d="
M309.394043,44.186287 
	C321.497253,39.432701 333.606781,39.770897 345.400665,42.995335 
	C354.855194,45.580185 360.788757,54.696304 360.943665,64.590027 
	C361.115631,75.570747 361.135712,86.558647 360.952362,97.538910 
	C360.733307,110.654221 350.555695,120.746948 337.399261,121.069099 
	C331.578735,121.211624 325.746338,121.236038 319.928406,121.041603 
	C307.584930,120.629105 297.423767,110.706390 297.096283,98.372063 
	C296.791656,86.897697 296.789398,75.402069 297.111450,63.928638 
	C297.352875,55.327038 301.800323,48.884041 309.394043,44.186287 
M313.000977,71.594391 
	C313.001221,79.738464 312.941345,87.883125 313.021576,96.026405 
	C313.080750,102.035393 315.926544,104.965965 321.791138,105.096214 
	C326.608673,105.203201 331.432434,105.203629 336.249878,105.094353 
	C341.909210,104.965965 344.898102,102.085236 344.961761,96.477547 
	C345.076904,86.340332 345.064606,76.200256 344.970703,66.062630 
	C344.918915,60.474903 341.917755,57.352543 336.434326,57.169773 
	C331.453735,57.003765 326.458649,57.000996 321.478394,57.171825 
	C316.225403,57.352016 313.261444,60.440304 313.019653,65.644928 
	C312.942627,67.303490 313.003296,68.968460 313.000977,71.594391 
z"/>
<path fill="#020303" opacity="1.000000" stroke="none" 
	d="
M281.000488,76.223740 
	C281.000977,80.672424 281.000977,84.641739 281.000977,89.057755 
	C270.291748,89.057755 259.891052,89.057755 249.001572,89.057755 
	C249.001572,91.616707 248.967697,93.730766 249.007935,95.843399 
	C249.127838,102.139282 251.907150,105.028290 258.144806,105.101036 
	C265.601685,105.187996 273.060303,105.121552 280.755981,105.121552 
	C280.755981,110.592827 280.755981,115.659782 280.755981,120.953430 
	C271.622345,120.953430 262.635742,121.460503 253.730713,120.824677 
	C242.679871,120.035637 233.434189,109.906013 233.113815,98.615967 
	C232.783096,86.961678 232.750244,75.281235 233.124557,63.629501 
	C233.516708,51.423508 243.785370,41.630810 256.310120,41.196434 
	C264.285797,40.919827 272.278900,41.144684 280.632202,41.144684 
	C280.632202,46.345657 280.632202,51.405132 280.632202,57.126251 
	C274.391907,57.126251 267.972137,57.125614 261.552338,57.126392 
	C251.012695,57.127670 248.931686,59.197044 249.000244,69.601799 
	C249.006683,70.579300 249.001114,71.556877 249.001114,73.123749 
	C258.487823,73.123749 267.752106,73.100586 277.016052,73.143715 
	C278.822449,73.152122 281.370270,72.289177 281.000488,76.223740 
z"/>
<path fill="#000000" opacity="1.000000" stroke="none" 
	d="
M458.993469,233.000412 
	C447.526581,233.000412 436.558014,233.000412 425.295105,233.000412 
	C425.295105,227.718155 425.295105,222.650848 425.295105,217.289307 
	C440.954254,217.289307 456.681458,217.289307 472.705322,217.289307 
	C472.705322,222.282684 472.705322,227.349991 472.705322,233.000412 
	C468.355804,233.000412 463.923828,233.000412 458.993469,233.000412 
z"/>
<path fill="#000000" opacity="1.000000" stroke="none" 
	d="
M465.930603,265.000397 
	C452.141907,265.000397 438.846252,265.000397 425.275818,265.000397 
	C425.275818,259.679382 425.275818,254.611938 425.275818,249.269684 
	C440.995544,249.269684 456.723328,249.269684 472.726501,249.269684 
	C472.726501,254.325195 472.726501,259.392639 472.726501,265.000397 
	C470.630951,265.000397 468.527313,265.000397 465.930603,265.000397 
z"/>
<path fill="#000000" opacity="1.000000" stroke="none" 
	d="
M427.205170,281.002441 
	C442.510223,281.021423 457.332794,281.042084 472.155304,281.076080 
	C472.283508,281.076385 472.411285,281.255493 472.769836,281.523407 
	C472.769836,286.415710 472.769836,291.483185 472.769836,296.776672 
	C456.907379,296.776672 441.178162,296.776672 425.004517,296.776672 
	C425.004517,292.035370 424.940582,287.418152 425.080688,282.807129 
	C425.099426,282.190308 426.149933,281.604889 427.205170,281.002441 
z"/>
<path fill="#030302" opacity="1.000000" stroke="none" 
	d="
M97.541275,244.521286 
	C106.297974,256.177643 107.704926,268.375153 100.675354,280.768219 
	C93.978493,292.574677 83.186684,298.153625 69.724846,296.728607 
	C56.311234,295.308716 47.031773,287.688019 42.632755,274.808655 
	C37.823650,260.728638 43.729118,245.337006 56.561611,237.615021 
	C70.002319,229.527084 85.914124,232.117935 97.541275,244.521286 
M85.497162,274.888947 
	C89.949860,268.069580 90.149910,261.597961 86.084633,255.884872 
	C82.116646,250.308533 75.281052,247.768387 68.987953,249.531631 
	C62.400654,251.377304 57.703102,256.833557 57.059841,263.386292 
	C56.413467,269.970703 60.000088,276.377594 65.987831,279.334686 
	C72.530617,282.565887 78.821686,281.281586 85.497162,274.888947 
z"/>
<path fill="#E4E7EB" opacity="1.000000" stroke="none" 
	d="
M313.000977,71.112442 
	C313.003296,68.968460 312.942627,67.303490 313.019653,65.644928 
	C313.261444,60.440304 316.225403,57.352016 321.478394,57.171825 
	C326.458649,57.000996 331.453735,57.003765 336.434326,57.169773 
	C341.917755,57.352543 344.918915,60.474903 344.970703,66.062630 
	C345.064606,76.200256 345.076904,86.340332 344.961761,96.477547 
	C344.898102,102.085236 341.909210,104.965965 336.249878,105.094353 
	C331.432434,105.203629 326.608673,105.203201 321.791138,105.096214 
	C315.926544,104.965965 313.080750,102.035393 313.021576,96.026405 
	C312.941345,87.883125 313.001221,79.738464 313.000977,71.112442 
z"/>
<path fill="#FAE5A4" opacity="1.000000" stroke="none" 
	d="
M85.254829,275.169922 
	C78.821686,281.281586 72.530617,282.565887 65.987831,279.334686 
	C60.000088,276.377594 56.413467,269.970703 57.059841,263.386292 
	C57.703102,256.833557 62.400654,251.377304 68.987953,249.531631 
	C75.281052,247.768387 82.116646,250.308533 86.084633,255.884872 
	C90.149910,261.597961 89.949860,268.069580 85.254829,275.169922 
z"/>
</svg>