<?xml version="1.0" encoding="UTF-8"?>
<!DOCTYPE svg PUBLIC "-//W3C//DTD SVG 1.1//EN" "http://www.w3.org/Graphics/SVG/1.1/DTD/svg11.dtd">
<svg xmlns="http://www.w3.org/2000/svg" version="1.1" width="512px" height="512px" style="shape-rendering:geometricPrecision; text-rendering:geometricPrecision; image-rendering:optimizeQuality; fill-rule:evenodd; clip-rule:evenodd" xmlns:xlink="http://www.w3.org/1999/xlink">
<g><path style="opacity:0.983" fill="#162081" d="M 153.5,8.5 C 221.834,8.33334 290.167,8.5 358.5,9C 374.644,12.3103 383.644,22.1436 385.5,38.5C 399.833,38.1691 411.5,43.5025 420.5,54.5C 439.012,49.2787 453.512,54.612 464,70.5C 472.251,89.2478 468.751,105.414 453.5,119C 448.581,122.127 443.248,124.127 437.5,125C 419.836,125.5 402.17,125.667 384.5,125.5C 384.5,153.167 384.5,180.833 384.5,208.5C 396.851,208.832 409.185,208.499 421.5,207.5C 435.807,189.012 454.14,183.512 476.5,191C 488.42,196.086 496.753,204.586 501.5,216.5C 501.372,220.085 499.705,222.585 496.5,224C 487.833,224.333 479.167,224.667 470.5,225C 463.462,229.186 462.795,234.186 468.5,240C 477.759,241.251 487.092,241.918 496.5,242C 501.299,245.071 502.465,249.238 500,254.5C 485.33,276.39 465.497,282.89 440.5,274C 432.652,270.487 426.319,265.154 421.5,258C 409.171,257.5 396.838,257.333 384.5,257.5C 384.5,282.167 384.5,306.833 384.5,331.5C 416.168,331.333 447.835,331.5 479.5,332C 492.006,335.505 499.173,343.672 501,356.5C 501.879,367.55 501.546,378.55 500,389.5C 495.537,401.298 487.037,407.798 474.5,409C 444.502,409.5 414.502,409.667 384.5,409.5C 384.667,432.169 384.5,454.836 384,477.5C 381.009,489.158 373.842,496.991 362.5,501C 292.869,502.65 223.203,502.983 153.5,502C 133.013,496.899 124.013,483.733 126.5,462.5C 109.652,465.336 98.8184,458.669 94,442.5C 91.7369,440.409 89.0702,439.076 86,438.5C 76.7427,444.469 67.2427,444.969 57.5,440C 54.3333,436.833 51.1667,433.667 48,430.5C 43.4829,424.034 42.4829,417.034 45,409.5C 52.3206,398.822 49.4872,392.322 36.5,390C 28.5892,384.84 25.2559,377.506 26.5,368C 25.5092,353.99 31.8425,345.323 45.5,342C 47.7635,340.221 49.0969,337.887 49.5,335C 40.4153,319.264 43.4153,306.264 58.5,296C 62.4802,294.203 66.6469,293.037 71,292.5C 76.3175,293.384 81.3175,295.05 86,297.5C 89.267,297.304 91.9337,295.97 94,293.5C 98.4621,277.346 108.962,271.013 125.5,274.5C 126.497,267.532 126.83,260.532 126.5,253.5C 91.1049,253.98 55.7715,253.48 20.5,252C 16,250.167 12.8333,247 11,242.5C 9.88492,232.556 9.38492,222.556 9.5,212.5C 9.38492,202.444 9.88492,192.444 11,182.5C 12.8333,178 16,174.833 20.5,173C 55.7715,171.52 91.1049,171.02 126.5,171.5C 126.333,125.499 126.5,79.4988 127,33.5C 130.896,19.7669 139.729,11.4336 153.5,8.5 Z"/></g>
<g><path style="opacity:1" fill="#d6e7fe" d="M 142.5,472.5 C 142.5,399.5 142.5,326.5 142.5,253.5C 181.337,253.832 220.004,253.499 258.5,252.5C 266.747,251.763 272.247,247.429 275,239.5C 275.667,221.5 275.667,203.5 275,185.5C 273.5,178.667 269.333,174.5 262.5,173C 222.501,172.5 182.501,172.333 142.5,172.5C 142.333,126.499 142.5,80.4988 143,34.5C 144.833,30 148,26.8333 152.5,25C 222.224,24.01 291.891,24.3433 361.5,26C 367.932,29.6986 370.432,35.1986 369,42.5C 359.89,46.6106 353.056,53.1106 348.5,62C 323.991,63.1896 312.491,76.0229 314,100.5C 317.175,113.009 325.009,120.842 337.5,124C 347.828,124.5 358.161,124.666 368.5,124.5C 368.5,193.5 368.5,262.5 368.5,331.5C 305.832,331.333 243.166,331.5 180.5,332C 162.818,338.213 155.151,350.713 157.5,369.5C 156.588,378.627 158.088,387.294 162,395.5C 166.415,401.571 172.248,405.738 179.5,408C 242.499,408.5 305.499,408.667 368.5,408.5C 368.667,430.836 368.5,453.169 368,475.5C 366.421,481.41 362.588,484.91 356.5,486C 288.5,486.667 220.5,486.667 152.5,486C 146.609,483.382 143.276,478.882 142.5,472.5 Z"/></g>
<g><path style="opacity:1" fill="#202786" d="M 236.5,37.5 C 248.838,37.3335 261.171,37.5001 273.5,38C 281.089,42.5289 281.422,47.5289 274.5,53C 261.833,53.6667 249.167,53.6667 236.5,53C 232.139,50.7742 230.639,47.2742 232,42.5C 233.366,40.6383 234.866,38.9717 236.5,37.5 Z"/></g>
<g><path style="opacity:1" fill="#fdfdfe" d="M 379.5,54.5 C 388.289,53.1896 396.289,55.023 403.5,60C 406.952,64.2723 410.619,68.2723 414.5,72C 418.71,73.0199 422.377,72.0199 425.5,69C 444.507,67.0076 453.34,75.5076 452,94.5C 449.833,102 445,106.833 437.5,109C 404.833,109.667 372.167,109.667 339.5,109C 327.962,103.14 325.462,94.6399 332,83.5C 334.408,81.0439 337.241,79.2106 340.5,78C 345.806,78.5426 351.139,78.8759 356.5,79C 359.514,74.315 362.347,69.4817 365,64.5C 369.208,60.1025 374.042,56.7692 379.5,54.5 Z"/></g>
<g><path style="opacity:0.977" fill="#151f81" d="M 87.5,57.5 C 109.754,60.2701 119.254,72.9368 116,95.5C 109.792,116.711 96.2917,131.211 75.5,139C 73.1667,139.667 70.8333,139.667 68.5,139C 55.0115,133.507 43.8448,125.007 35,113.5C 25.4569,98.3026 25.1236,82.9693 34,67.5C 45.5996,57.0869 58.2663,55.7536 72,63.5C 76.9884,60.7446 82.1551,58.7446 87.5,57.5 Z"/></g>
<g><path style="opacity:1" fill="#29a9f3" d="M 86.5,73.5 C 91.8744,72.9369 96.0411,74.9369 99,79.5C 102.2,93.5612 98.033,105.061 86.5,114C 82.5,116.667 78.5,119.333 74.5,122C 68.573,121.378 63.2397,119.045 58.5,115C 49.3991,108.232 44.0657,99.2324 42.5,88C 43.9515,76.2093 50.2848,72.2093 61.5,76C 63.8333,77.6667 66.1667,79.3333 68.5,81C 70.8333,81.6667 73.1667,81.6667 75.5,81C 78.8861,77.9825 82.5527,75.4825 86.5,73.5 Z"/></g>
<g><path style="opacity:1" fill="#fefefe" d="M 26.5,187.5 C 82.5,187.5 138.5,187.5 194.5,187.5C 194.5,204.167 194.5,220.833 194.5,237.5C 138.499,237.667 82.499,237.5 26.5,237C 25.1736,220.5 25.1736,204 26.5,187.5 Z"/></g>
<g><path style="opacity:1" fill="#faf9fb" d="M 209.5,187.5 C 226.17,187.333 242.837,187.5 259.5,188C 260.159,196.091 260.493,204.258 260.5,212.5C 260.493,220.742 260.159,228.909 259.5,237C 242.837,237.5 226.17,237.667 209.5,237.5C 209.5,220.833 209.5,204.167 209.5,187.5 Z"/></g>
<g><path style="opacity:1" fill="#f38980" d="M 223.5,201.5 C 231.167,201.5 238.833,201.5 246.5,201.5C 246.5,208.833 246.5,216.167 246.5,223.5C 238.833,223.5 231.167,223.5 223.5,223.5C 223.5,216.167 223.5,208.833 223.5,201.5 Z"/></g>
<g><path style="opacity:1" fill="#33c69f" d="M 474.5,207.5 C 472.5,208.167 470.5,208.833 468.5,209.5C 456.184,212.155 449.517,219.822 448.5,232.5C 449.077,245.688 455.744,253.688 468.5,256.5C 470.5,257.167 472.5,257.833 474.5,258.5C 454.261,266.466 439.761,260.466 431,240.5C 428.331,231.515 429.665,223.181 435,215.5C 446.063,202.747 459.229,200.08 474.5,207.5 Z"/></g>
<g><path style="opacity:1" fill="#f38b82" d="M 44.5,204.5 C 52.921,204.725 56.0877,208.725 54,216.5C 49.3333,221.833 44.6667,221.833 40,216.5C 38.3087,211.131 39.8087,207.131 44.5,204.5 Z"/></g>
<g><path style="opacity:1" fill="#ffc61b" d="M 64.5,204.5 C 101.502,204.333 138.502,204.5 175.5,205C 183.393,209.91 183.393,214.91 175.5,220C 138.5,220.667 101.5,220.667 64.5,220C 59.4648,216.987 58.2981,212.82 61,207.5C 62.1451,206.364 63.3117,205.364 64.5,204.5 Z"/></g>
<g><path style="opacity:1" fill="#246a8e" d="M 474.5,207.5 C 475.043,207.56 475.376,207.893 475.5,208.5C 473.257,209.474 470.924,209.808 468.5,209.5C 470.5,208.833 472.5,208.167 474.5,207.5 Z"/></g>
<g><path style="opacity:1" fill="#d6e7fe" d="M 414.5,228.5 C 414.5,231.5 414.5,234.5 414.5,237.5C 414.5,238.833 414.5,240.167 414.5,241.5C 404.5,241.5 394.5,241.5 384.5,241.5C 384.5,235.833 384.5,230.167 384.5,224.5C 394.5,224.5 404.5,224.5 414.5,224.5C 414.5,225.833 414.5,227.167 414.5,228.5 Z"/></g>
<g><path style="opacity:1" fill="#4a54a2" d="M 414.5,228.5 C 414.5,227.167 414.5,225.833 414.5,224.5C 404.5,224.5 394.5,224.5 384.5,224.5C 384.5,230.167 384.5,235.833 384.5,241.5C 394.5,241.5 404.5,241.5 414.5,241.5C 414.5,240.167 414.5,238.833 414.5,237.5C 415.451,238.919 415.784,240.585 415.5,242.5C 404.833,242.5 394.167,242.5 383.5,242.5C 383.5,236.167 383.5,229.833 383.5,223.5C 394.167,223.5 404.833,223.5 415.5,223.5C 415.784,225.415 415.451,227.081 414.5,228.5 Z"/></g>
<g><path style="opacity:1" fill="#484fa0" d="M 258.5,252.5 C 220.004,253.499 181.337,253.832 142.5,253.5C 142.5,326.5 142.5,399.5 142.5,472.5C 141.501,399.335 141.167,326.002 141.5,252.5C 180.5,252.5 219.5,252.5 258.5,252.5 Z"/></g>
<g><path style="opacity:1" fill="#247290" d="M 468.5,256.5 C 471.187,256.336 473.854,256.503 476.5,257C 475.956,257.717 475.289,258.217 474.5,258.5C 472.5,257.833 470.5,257.167 468.5,256.5 Z"/></g>
<g><path style="opacity:1" fill="#34c89f" d="M 123.5,405.5 C 124.5,405.5 125.5,405.5 126.5,405.5C 126.5,418.5 126.5,431.5 126.5,444.5C 126.389,445.117 126.056,445.617 125.5,446C 121.044,446.867 116.711,446.534 112.5,445C 109.175,433.675 101.842,426.342 90.5,423C 83.4891,422.135 77.1558,423.802 71.5,428C 70.5,428.667 69.5,428.667 68.5,428C 64.691,424.871 61.691,421.204 59.5,417C 67.9843,404.835 67.3176,393.168 57.5,382C 53.5465,379.19 49.2132,377.19 44.5,376C 42.0259,373.959 41.0259,371.292 41.5,368C 41.3047,365.207 41.9713,362.707 43.5,360.5C 48.2941,358.269 52.9607,355.769 57.5,353C 67.2217,342.304 67.8884,331.137 59.5,319.5C 61.5,314.167 65.1667,310.5 70.5,308.5C 83.2202,315.91 95.0536,314.577 106,304.5C 108.569,300.905 110.236,296.905 111,292.5C 111.833,291.667 112.667,290.833 113.5,290C 117.5,289.333 121.5,289.333 125.5,290C 126,290.5 126.5,291 127,291.5C 127.5,306.163 127.667,320.83 127.5,335.5C 109.6,333.033 96.4331,339.7 88,355.5C 80.8862,378.099 88.0528,394.266 109.5,404C 114.102,405.122 118.768,405.622 123.5,405.5 Z"/></g>
<g><path style="opacity:1" fill="#fdfdfe" d="M 180.5,347.5 C 256.833,347.5 333.167,347.5 409.5,347.5C 409.5,362.833 409.5,378.167 409.5,393.5C 333.833,393.667 258.166,393.5 182.5,393C 178.725,391.558 175.892,389.058 174,385.5C 173.333,375.167 173.333,364.833 174,354.5C 175.694,351.642 177.861,349.309 180.5,347.5 Z"/></g>
<g><path style="opacity:1" fill="#2168bd" d="M 474.5,347.5 C 458.167,347.5 441.833,347.5 425.5,347.5C 425.5,362.5 425.5,377.5 425.5,392.5C 442.167,392.5 458.833,392.5 475.5,392.5C 458.675,393.497 441.675,393.83 424.5,393.5C 424.5,377.833 424.5,362.167 424.5,346.5C 441.342,346.17 458.008,346.503 474.5,347.5 Z"/></g>
<g><path style="opacity:1" fill="#2fabf4" d="M 474.5,347.5 C 479.655,348.483 483.155,351.483 485,356.5C 485.667,365.833 485.667,375.167 485,384.5C 483.505,389.162 480.339,391.828 475.5,392.5C 458.833,392.5 442.167,392.5 425.5,392.5C 425.5,377.5 425.5,362.5 425.5,347.5C 441.833,347.5 458.167,347.5 474.5,347.5 Z"/></g>
<g><path style="opacity:1" fill="#fcfefe" d="M 447.5,349.5 C 465.074,348.4 472.408,356.4 469.5,373.5C 472.647,376.305 474.98,379.639 476.5,383.5C 471.901,393.552 466.234,394.052 459.5,385C 442.353,386.361 434.52,378.528 436,361.5C 438.691,356.311 442.524,352.311 447.5,349.5 Z"/></g>
<g><path style="opacity:1" fill="#f6f7fa" d="M 113.5,350.5 C 118.214,350.353 122.881,350.686 127.5,351.5C 127.5,364.167 127.5,376.833 127.5,389.5C 106.643,391.475 98.143,382.142 102,361.5C 105.07,356.927 108.904,353.261 113.5,350.5 Z"/></g>
<g><path style="opacity:1" fill="#3ab0f5" d="M 451.5,364.5 C 455.161,364.35 456.161,365.85 454.5,369C 450.707,369.487 449.707,367.987 451.5,364.5 Z"/></g>
<g><path style="opacity:1" fill="#24718f" d="M 123.5,405.5 C 124.568,404.566 125.901,404.232 127.5,404.5C 127.829,418.01 127.496,431.344 126.5,444.5C 126.5,431.5 126.5,418.5 126.5,405.5C 125.5,405.5 124.5,405.5 123.5,405.5 Z"/></g>
<g><path style="opacity:1" fill="#202685" d="M 236.5,457.5 C 249.171,457.333 261.838,457.5 274.5,458C 281.311,463.33 280.977,468.33 273.5,473C 261.167,473.667 248.833,473.667 236.5,473C 229.845,467.657 229.845,462.49 236.5,457.5 Z"/></g>
</svg>
