<?xml version="1.0" encoding="UTF-8"?>
<!DOCTYPE svg PUBLIC "-//W3C//DTD SVG 1.1//EN" "http://www.w3.org/Graphics/SVG/1.1/DTD/svg11.dtd">
<svg xmlns="http://www.w3.org/2000/svg" version="1.1" width="512px" height="512px" style="shape-rendering:geometricPrecision; text-rendering:geometricPrecision; image-rendering:optimizeQuality; fill-rule:evenodd; clip-rule:evenodd" xmlns:xlink="http://www.w3.org/1999/xlink">
<g><path style="opacity:0.989" fill="#3a519c" d="M 203.5,7.5 C 240.533,4.2581 267.033,19.2581 283,52.5C 294.523,88.9285 285.023,118.429 254.5,141C 218.717,159.526 186.884,154.359 159,125.5C 142.603,103.169 138.937,78.8357 148,52.5C 158.813,27.8641 177.313,12.8641 203.5,7.5 Z"/></g>
<g><path style="opacity:0.996" fill="#39519d" d="M 359.5,79.5 C 363.063,79.6252 365.563,81.2919 367,84.5C 367.333,102.167 367.667,119.833 368,137.5C 368.398,140.232 369.898,142.065 372.5,143C 406.167,143.667 439.833,143.667 473.5,143C 475.329,142.727 476.829,141.893 478,140.5C 479.29,136.27 479.79,131.936 479.5,127.5C 479.985,96.4125 479.485,65.4125 478,34.5C 476.829,33.1068 475.329,32.2735 473.5,32C 443.502,31.5 413.502,31.3334 383.5,31.5C 379.818,31.3347 376.152,31.5014 372.5,32C 371.069,32.4652 369.903,33.2986 369,34.5C 367.733,42.0624 367.066,49.7291 367,57.5C 366.15,61.513 363.65,63.513 359.5,63.5C 356.039,63.8541 353.539,62.5208 352,59.5C 351.333,50.5 351.333,41.5 352,32.5C 354.351,25.4808 358.851,20.3141 365.5,17C 403.107,15.3521 440.773,15.0187 478.5,16C 486.667,18.8333 492.167,24.3333 495,32.5C 495.667,69.1667 495.667,105.833 495,142.5C 492.167,150.667 486.667,156.167 478.5,159C 441.833,159.667 405.167,159.667 368.5,159C 360.333,156.167 354.833,150.667 352,142.5C 351.333,122.833 351.333,103.167 352,83.5C 353.539,80.4792 356.039,79.1459 359.5,79.5 Z"/></g>
<g><path style="opacity:1" fill="#f69b8c" d="M 254.5,119.5 C 246.353,119.383 238.019,119.216 229.5,119C 220.958,117.661 213.291,114.494 206.5,109.5C 221.616,101.441 236.949,93.6077 252.5,86C 256.5,81.6667 256.5,77.3333 252.5,73C 235.833,64.6667 219.167,56.3333 202.5,48C 197.726,46.6392 194.226,48.1392 192,52.5C 191.5,67.4963 191.333,82.4963 191.5,97.5C 177.524,81.0537 172.857,62.2204 177.5,41C 177.43,40.2352 177.097,39.7352 176.5,39.5C 198.983,20.2027 222.983,18.3694 248.5,34C 274.132,56.6266 278.298,82.7932 261,112.5C 258.817,114.907 256.65,117.24 254.5,119.5 Z"/></g>
<g><path style="opacity:1" fill="#57b6ea" d="M 383.5,31.5 C 383.333,44.5043 383.5,57.5043 384,70.5C 386.121,88.0836 393.954,102.417 407.5,113.5C 405.716,124.557 410.049,128.723 420.5,126C 421.781,124.591 422.781,123.091 423.5,121.5C 427.468,124.556 432.134,126.39 437.5,127C 451.496,127.5 465.496,127.667 479.5,127.5C 479.79,131.936 479.29,136.27 478,140.5C 476.829,141.893 475.329,142.727 473.5,143C 439.833,143.667 406.167,143.667 372.5,143C 369.898,142.065 368.398,140.232 368,137.5C 367.667,119.833 367.333,102.167 367,84.5C 365.563,81.2919 363.063,79.6252 359.5,79.5C 359.5,74.1667 359.5,68.8333 359.5,63.5C 363.65,63.513 366.15,61.513 367,57.5C 367.066,49.7291 367.733,42.0624 369,34.5C 369.903,33.2986 371.069,32.4652 372.5,32C 376.152,31.5014 379.818,31.3347 383.5,31.5 Z"/></g>
<g><path style="opacity:1" fill="#a9e0f8" d="M 383.5,31.5 C 413.502,31.3334 443.502,31.5 473.5,32C 475.329,32.2735 476.829,33.1068 478,34.5C 479.485,65.4125 479.985,96.4125 479.5,127.5C 465.496,127.667 451.496,127.5 437.5,127C 432.134,126.39 427.468,124.556 423.5,121.5C 423.5,112.833 423.5,104.167 423.5,95.5C 427.936,95.7899 432.27,95.2899 436.5,94C 440.379,89.631 440.379,85.2976 436.5,81C 432.27,79.7101 427.936,79.2101 423.5,79.5C 423.335,75.8183 423.501,72.1516 424,68.5C 424.465,67.0692 425.299,65.9025 426.5,65C 434.062,63.7331 441.729,63.0664 449.5,63C 453.624,62.0183 455.624,59.3516 455.5,55C 455.297,52.5941 454.297,50.5941 452.5,49C 442.5,47 432.5,47 422.5,49C 410.179,55.4767 405.179,65.6433 407.5,79.5C 403.818,79.3347 400.152,79.5014 396.5,80C 390.665,83.8549 389.998,88.5216 394.5,94C 398.7,95.3674 403.033,95.8674 407.5,95.5C 407.5,101.5 407.5,107.5 407.5,113.5C 393.954,102.417 386.121,88.0836 384,70.5C 383.5,57.5043 383.333,44.5043 383.5,31.5 Z"/></g>
<g><path style="opacity:1" fill="#f6664f" d="M 176.5,39.5 C 177.097,39.7352 177.43,40.2352 177.5,41C 172.857,62.2204 177.524,81.0537 191.5,97.5C 190.104,109.783 195.104,113.783 206.5,109.5C 213.291,114.494 220.958,117.661 229.5,119C 238.019,119.216 246.353,119.383 254.5,119.5C 231.923,138.579 207.923,140.412 182.5,125C 160.881,106.802 154.715,84.3018 164,57.5C 166.957,50.5608 171.124,44.5608 176.5,39.5 Z"/></g>
<g><path style="opacity:1" fill="#39529d" d="M 423.5,121.5 C 422.781,123.091 421.781,124.591 420.5,126C 410.049,128.723 405.716,124.557 407.5,113.5C 407.5,107.5 407.5,101.5 407.5,95.5C 403.033,95.8674 398.7,95.3674 394.5,94C 389.998,88.5216 390.665,83.8549 396.5,80C 400.152,79.5014 403.818,79.3347 407.5,79.5C 405.179,65.6433 410.179,55.4767 422.5,49C 432.5,47 442.5,47 452.5,49C 454.297,50.5941 455.297,52.5941 455.5,55C 455.624,59.3516 453.624,62.0183 449.5,63C 441.729,63.0664 434.062,63.7331 426.5,65C 425.299,65.9025 424.465,67.0692 424,68.5C 423.501,72.1516 423.335,75.8183 423.5,79.5C 427.936,79.2101 432.27,79.7101 436.5,81C 440.379,85.2976 440.379,89.631 436.5,94C 432.27,95.2899 427.936,95.7899 423.5,95.5C 423.5,104.167 423.5,112.833 423.5,121.5 Z"/></g>
<g><path style="opacity:1" fill="#3c529c" d="M 206.5,109.5 C 195.104,113.783 190.104,109.783 191.5,97.5C 191.333,82.4963 191.5,67.4963 192,52.5C 194.226,48.1392 197.726,46.6392 202.5,48C 219.167,56.3333 235.833,64.6667 252.5,73C 256.5,77.3333 256.5,81.6667 252.5,86C 236.949,93.6077 221.616,101.441 206.5,109.5 Z"/></g>
<g><path style="opacity:1" fill="#a7def7" d="M 207.5,68.5 C 214.631,71.8989 221.631,75.5656 228.5,79.5C 221.746,83.2939 214.913,86.9605 208,90.5C 207.5,83.1742 207.334,75.8409 207.5,68.5 Z"/></g>
<g><path style="opacity:0.999" fill="#38519d" d="M 19.5,87.5 C 54.1683,87.3333 88.8349,87.5 123.5,88C 124.416,88.3742 125.25,88.8742 126,89.5C 127.157,112.748 127.657,136.081 127.5,159.5C 127.333,182.167 127.167,204.833 127,227.5C 126.626,228.416 126.126,229.25 125.5,230C 107.588,231.154 89.5878,231.654 71.5,231.5C 54.1667,231.333 36.8333,231.167 19.5,231C 18.5838,230.626 17.7504,230.126 17,229.5C 15.3438,183.583 15.0104,137.583 16,91.5C 16.6897,89.6498 17.8564,88.3164 19.5,87.5 Z"/></g>
<g><path style="opacity:1" fill="#a0d41c" d="M 47.5,103.5 C 47.17,121.008 47.5033,138.341 48.5,155.5C 46.858,159.884 47.858,163.55 51.5,166.5C 50.4265,167.251 50.2599,168.251 51,169.5C 53.0911,174.694 55.9245,179.361 59.5,183.5C 51.3353,182.175 47.502,185.509 48,193.5C 48.6853,196.057 50.1853,197.891 52.5,199C 64.8333,199.667 77.1667,199.667 89.5,199C 90.5266,198.487 91.5266,197.987 92.5,197.5C 98.412,199.456 104.745,200.123 111.5,199.5C 111.5,204.833 111.5,210.167 111.5,215.5C 84.8333,215.5 58.1667,215.5 31.5,215.5C 31.5,178.167 31.5,140.833 31.5,103.5C 36.8333,103.5 42.1667,103.5 47.5,103.5 Z"/></g>
<g><path style="opacity:1" fill="#c3f136" d="M 47.5,103.5 C 68.8333,103.5 90.1667,103.5 111.5,103.5C 111.5,135.5 111.5,167.5 111.5,199.5C 104.745,200.123 98.412,199.456 92.5,197.5C 97.1807,191.737 96.1807,187.237 89.5,184C 79.5056,183.5 69.5056,183.334 59.5,183.5C 55.9245,179.361 53.0911,174.694 51,169.5C 50.2599,168.251 50.4265,167.251 51.5,166.5C 64.0912,167.646 76.7579,167.812 89.5,167C 94.1023,164.962 95.9357,161.462 95,156.5C 93.8906,154.185 92.0573,152.685 89.5,152C 77.1667,151.333 64.8333,151.333 52.5,152C 50.6763,152.66 49.343,153.827 48.5,155.5C 47.5033,138.341 47.17,121.008 47.5,103.5 Z"/></g>
<g><path style="opacity:1" fill="#3b529b" d="M 68.5,119.5 C 75.5079,119.334 82.5079,119.5 89.5,120C 95.6486,122.552 96.982,126.718 93.5,132.5C 92.3349,133.584 91.0016,134.417 89.5,135C 82.5,135.667 75.5,135.667 68.5,135C 61.8753,129.754 61.8753,124.587 68.5,119.5 Z"/></g>
<g><path style="opacity:0.981" fill="#38519d" d="M 315.5,135.5 C 326.485,134.457 329.985,139.124 326,149.5C 317.833,160.333 309.667,171.167 301.5,182C 289.333,185.833 285.167,181.667 289,169.5C 297.728,157.956 306.561,146.623 315.5,135.5 Z"/></g>
<g><path style="opacity:1" fill="#3a529c" d="M 51.5,166.5 C 47.858,163.55 46.858,159.884 48.5,155.5C 49.343,153.827 50.6763,152.66 52.5,152C 64.8333,151.333 77.1667,151.333 89.5,152C 92.0573,152.685 93.8906,154.185 95,156.5C 95.9357,161.462 94.1023,164.962 89.5,167C 76.7579,167.812 64.0912,167.646 51.5,166.5 Z"/></g>
<g><path style="opacity:0.972" fill="#38519d" d="M 347.5,175.5 C 358.485,174.457 361.985,179.124 358,189.5C 347.167,197.667 336.333,205.833 325.5,214C 313.333,217.833 309.167,213.667 313,201.5C 324.658,192.934 336.158,184.268 347.5,175.5 Z"/></g>
<g><path style="opacity:1" fill="#3a529c" d="M 59.5,183.5 C 69.5056,183.334 79.5056,183.5 89.5,184C 96.1807,187.237 97.1807,191.737 92.5,197.5C 91.5266,197.987 90.5266,198.487 89.5,199C 77.1667,199.667 64.8333,199.667 52.5,199C 50.1853,197.891 48.6853,196.057 48,193.5C 47.502,185.509 51.3353,182.175 59.5,183.5 Z"/></g>
<g><path style="opacity:0.996" fill="#3b519c" d="M 270.5,212.5 C 263.789,214.478 259.122,212.145 256.5,205.5C 255.635,204.417 254.635,204.251 253.5,205C 221.291,232.211 188.791,259.044 156,285.5C 155.333,286.5 155.333,287.5 156,288.5C 162.667,299.833 169.333,311.167 176,322.5C 177.139,326.421 176.305,329.754 173.5,332.5C 169.181,335.406 165.348,334.739 162,330.5C 155.167,318.833 148.333,307.167 141.5,295.5C 131.602,301.275 121.935,307.275 112.5,313.5C 106.393,318.583 104.893,324.917 108,332.5C 113.667,342.167 119.333,351.833 125,361.5C 130.941,368.741 138.108,370.241 146.5,366C 157.698,359.235 169.031,352.735 180.5,346.5C 223.744,330.753 266.744,314.42 309.5,297.5C 307.474,294.103 305.474,290.77 303.5,287.5C 293.895,270.055 284.061,252.722 274,235.5C 273.182,231.469 274.349,228.136 277.5,225.5C 282.031,223.675 285.864,224.675 289,228.5C 301.333,249.833 313.667,271.167 326,292.5C 329.111,296.722 330.111,301.389 329,306.5C 327.269,308.617 325.102,310.117 322.5,311C 305.579,317.473 288.579,323.639 271.5,329.5C 249.224,337.537 227.057,345.87 205,354.5C 210.281,365.063 215.615,375.729 221,386.5C 222.486,394.213 220.986,401.213 216.5,407.5C 206.946,416.306 196.279,417.806 184.5,412C 182.63,409.96 180.63,408.127 178.5,406.5C 173,396.161 167,386.161 160.5,376.5C 145.115,387.377 130.115,387.043 115.5,375.5C 111.02,378.407 106.353,380.74 101.5,382.5C 81.6169,383.656 71.7835,374.323 72,354.5C 73.6817,348.45 76.8484,343.45 81.5,339.5C 84.3116,337.592 87.3116,335.925 90.5,334.5C 88.0007,317.666 94.0007,304.833 108.5,296C 126.368,287.266 142.701,276.433 157.5,263.5C 189.019,236.487 221.019,209.987 253.5,184C 260.617,182.142 265.451,184.642 268,191.5C 270.853,195.852 273.02,200.518 274.5,205.5C 274.272,208.567 272.939,210.9 270.5,212.5 Z"/></g>
<g><path style="opacity:0.999" fill="#c3f136" d="M 270.5,212.5 C 273.1,216.701 275.434,221.034 277.5,225.5C 274.349,228.136 273.182,231.469 274,235.5C 284.061,252.722 293.895,270.055 303.5,287.5C 268.127,301.462 232.46,314.962 196.5,328C 189.675,331.356 183.008,334.856 176.5,338.5C 174.975,336.784 173.975,334.784 173.5,332.5C 176.305,329.754 177.139,326.421 176,322.5C 169.333,311.167 162.667,299.833 156,288.5C 155.333,287.5 155.333,286.5 156,285.5C 188.791,259.044 221.291,232.211 253.5,205C 254.635,204.251 255.635,204.417 256.5,205.5C 259.122,212.145 263.789,214.478 270.5,212.5 Z"/></g>
<g><path style="opacity:0.978" fill="#39519d" d="M 381.5,222.5 C 390.845,223.008 394.011,227.674 391,236.5C 390.167,237.333 389.333,238.167 388.5,239C 372.076,243.487 355.409,246.153 338.5,247C 336.667,246.5 335.5,245.333 335,243.5C 334.333,240.833 334.333,238.167 335,235.5C 335.5,233.667 336.667,232.5 338.5,232C 352.971,228.875 367.304,225.708 381.5,222.5 Z"/></g>
<g><path style="opacity:0.998" fill="#39519c" d="M 130.5,263.5 C 129.892,266.958 127.892,269.458 124.5,271C 109.504,271.5 94.5037,271.667 79.5,271.5C 71.5,271.5 63.5,271.5 55.5,271.5C 55.5,324.833 55.5,378.167 55.5,431.5C 124.833,431.5 194.167,431.5 263.5,431.5C 263.5,423.5 263.5,415.5 263.5,407.5C 263.333,388.497 263.5,369.497 264,350.5C 265.542,347.108 268.042,345.108 271.5,344.5C 274.617,344.642 277.117,345.976 279,348.5C 279.5,376.165 279.667,403.831 279.5,431.5C 286.175,431.334 292.842,431.5 299.5,432C 301.333,432.5 302.5,433.667 303,435.5C 303.667,445.167 303.667,454.833 303,464.5C 298.833,480.667 288.667,490.833 272.5,495C 197.167,495.667 121.833,495.667 46.5,495C 30.3333,490.833 20.1667,480.667 16,464.5C 15.3333,454.833 15.3333,445.167 16,435.5C 16.5,433.667 17.6667,432.5 19.5,432C 26.1583,431.5 32.825,431.334 39.5,431.5C 39.008,373.417 39.508,315.417 41,257.5C 41.7504,256.874 42.5838,256.374 43.5,256C 71.1667,255.333 98.8333,255.333 126.5,256C 129.024,257.883 130.358,260.383 130.5,263.5 Z"/></g>
<g><path style="opacity:1" fill="#a9dff8" d="M 130.5,263.5 C 139.5,263.5 148.5,263.5 157.5,263.5C 142.701,276.433 126.368,287.266 108.5,296C 94.0007,304.833 88.0007,317.666 90.5,334.5C 87.3116,335.925 84.3116,337.592 81.5,339.5C 80.7321,338.737 80.2321,337.737 80,336.5C 79.5,314.836 79.3334,293.169 79.5,271.5C 94.5037,271.667 109.504,271.5 124.5,271C 127.892,269.458 129.892,266.958 130.5,263.5 Z"/></g>
<g><path style="opacity:0.996" fill="#39519c" d="M 487.5,343.5 C 483.403,343.531 480.903,341.531 480,337.5C 479.667,319.833 479.333,302.167 479,284.5C 478.535,283.069 477.701,281.903 476.5,281C 445.588,279.515 414.588,279.015 383.5,279.5C 379.818,279.335 376.152,279.501 372.5,280C 370.333,280.833 368.833,282.333 368,284.5C 367.014,319.252 367.347,353.918 369,388.5C 369.903,389.701 371.069,390.535 372.5,391C 406.5,391.667 440.5,391.667 474.5,391C 476.667,390.167 478.167,388.667 479,386.5C 479.499,382.848 479.665,379.182 479.5,375.5C 479.335,371.818 479.501,368.152 480,364.5C 481.41,361.211 483.91,359.544 487.5,359.5C 490.961,359.146 493.461,360.479 495,363.5C 495.667,372.5 495.667,381.5 495,390.5C 492.649,397.519 488.149,402.686 481.5,406C 443.893,407.648 406.227,407.981 368.5,407C 360.333,404.167 354.833,398.667 352,390.5C 351.333,353.833 351.333,317.167 352,280.5C 354.833,272.333 360.333,266.833 368.5,264C 405.167,263.333 441.833,263.333 478.5,264C 486.667,266.833 492.167,272.333 495,280.5C 495.667,300.167 495.667,319.833 495,339.5C 493.461,342.521 490.961,343.854 487.5,343.5 Z"/></g>
<g><path style="opacity:1" fill="#57b6ea" d="M 79.5,271.5 C 79.3334,293.169 79.5,314.836 80,336.5C 80.2321,337.737 80.7321,338.737 81.5,339.5C 76.8484,343.45 73.6817,348.45 72,354.5C 71.7835,374.323 81.6169,383.656 101.5,382.5C 122.973,403.768 148.64,411.768 178.5,406.5C 180.63,408.127 182.63,409.96 184.5,412C 196.279,417.806 206.946,416.306 216.5,407.5C 232.167,407.5 247.833,407.5 263.5,407.5C 263.5,415.5 263.5,423.5 263.5,431.5C 194.167,431.5 124.833,431.5 55.5,431.5C 55.5,378.167 55.5,324.833 55.5,271.5C 63.5,271.5 71.5,271.5 79.5,271.5 Z"/></g>
<g><path style="opacity:1" fill="#a0d41c" d="M 383.5,279.5 C 383.333,293.171 383.5,306.837 384,320.5C 384.794,324.55 385.794,328.55 387,332.5C 387.959,336.168 389.459,338.835 391.5,340.5C 394.846,355.179 403.846,364.179 418.5,367.5C 419.225,368.97 420.891,370.136 423.5,371C 428.054,372.741 432.721,374.074 437.5,375C 451.496,375.5 465.496,375.667 479.5,375.5C 479.665,379.182 479.499,382.848 479,386.5C 478.167,388.667 476.667,390.167 474.5,391C 440.5,391.667 406.5,391.667 372.5,391C 371.069,390.535 369.903,389.701 369,388.5C 367.347,353.918 367.014,319.252 368,284.5C 368.833,282.333 370.333,280.833 372.5,280C 376.152,279.501 379.818,279.335 383.5,279.5 Z"/></g>
<g><path style="opacity:1" fill="#c3f136" d="M 383.5,279.5 C 414.588,279.015 445.588,279.515 476.5,281C 477.701,281.903 478.535,283.069 479,284.5C 479.333,302.167 479.667,319.833 480,337.5C 480.903,341.531 483.403,343.531 487.5,343.5C 487.5,348.833 487.5,354.167 487.5,359.5C 483.91,359.544 481.41,361.211 480,364.5C 479.501,368.152 479.335,371.818 479.5,375.5C 465.496,375.667 451.496,375.5 437.5,375C 432.721,374.074 428.054,372.741 423.5,371C 420.891,370.136 419.225,368.97 418.5,367.5C 441.302,367.782 453.635,356.615 455.5,334C 451.098,310.615 437.098,300.949 413.5,305C 397.926,311.635 390.593,323.468 391.5,340.5C 389.459,338.835 387.959,336.168 387,332.5C 385.794,328.55 384.794,324.55 384,320.5C 383.5,306.837 383.333,293.171 383.5,279.5 Z"/></g>
<g><path style="opacity:1" fill="#a0d31e" d="M 303.5,287.5 C 305.474,290.77 307.474,294.103 309.5,297.5C 266.744,314.42 223.744,330.753 180.5,346.5C 179.404,343.968 178.071,341.635 176.5,339.5C 176.5,339.167 176.5,338.833 176.5,338.5C 183.008,334.856 189.675,331.356 196.5,328C 232.46,314.962 268.127,301.462 303.5,287.5 Z"/></g>
<g><path style="opacity:1" fill="#f79b8c" d="M 173.5,332.5 C 173.975,334.784 174.975,336.784 176.5,338.5C 176.5,338.833 176.5,339.167 176.5,339.5C 158.886,349.595 141.886,348.762 125.5,337C 118.957,330.417 114.624,322.583 112.5,313.5C 121.935,307.275 131.602,301.275 141.5,295.5C 148.333,307.167 155.167,318.833 162,330.5C 165.348,334.739 169.181,335.406 173.5,332.5 Z"/></g>
<g><path style="opacity:1" fill="#3a529c" d="M 418.5,367.5 C 403.846,364.179 394.846,355.179 391.5,340.5C 390.593,323.468 397.926,311.635 413.5,305C 437.098,300.949 451.098,310.615 455.5,334C 453.635,356.615 441.302,367.782 418.5,367.5 Z"/></g>
<g><path style="opacity:1" fill="#f66650" d="M 112.5,313.5 C 114.624,322.583 118.957,330.417 125.5,337C 141.886,348.762 158.886,349.595 176.5,339.5C 178.071,341.635 179.404,343.968 180.5,346.5C 169.031,352.735 157.698,359.235 146.5,366C 138.108,370.241 130.941,368.741 125,361.5C 119.333,351.833 113.667,342.167 108,332.5C 104.893,324.917 106.393,318.583 112.5,313.5 Z"/></g>
<g><path style="opacity:1" fill="#56b5e9" d="M 426.5,320.5 C 422.555,325.003 422.555,329.503 426.5,334C 429.8,335.879 433.134,335.879 436.5,334C 437.823,333.184 438.489,332.017 438.5,330.5C 440.893,343.132 435.559,350.132 422.5,351.5C 410.831,349.317 405.998,342.317 408,330.5C 411.638,321.937 417.805,318.603 426.5,320.5 Z"/></g>
<g><path style="opacity:1" fill="#a6ddf7" d="M 426.5,320.5 C 432.602,321.266 436.602,324.599 438.5,330.5C 438.489,332.017 437.823,333.184 436.5,334C 433.134,335.879 429.8,335.879 426.5,334C 422.555,329.503 422.555,325.003 426.5,320.5 Z"/></g>
<g><path style="opacity:1" fill="#a9dff8" d="M 271.5,329.5 C 271.5,334.5 271.5,339.5 271.5,344.5C 268.042,345.108 265.542,347.108 264,350.5C 263.5,369.497 263.333,388.497 263.5,407.5C 247.833,407.5 232.167,407.5 216.5,407.5C 220.986,401.213 222.486,394.213 221,386.5C 215.615,375.729 210.281,365.063 205,354.5C 227.057,345.87 249.224,337.537 271.5,329.5 Z"/></g>
<g><path style="opacity:1" fill="#c95145" d="M 96.5,348.5 C 98.0174,348.511 99.1841,349.177 100,350.5C 102.223,353.779 104.057,357.279 105.5,361C 101.915,365.45 97.2487,367.116 91.5,366C 87.9651,363.293 86.7984,359.793 88,355.5C 90.6278,352.79 93.4611,350.456 96.5,348.5 Z"/></g>
<g><path style="opacity:1" fill="#ef624e" d="M 186.5,361.5 C 187.822,361.33 188.989,361.663 190,362.5C 195,371.167 200,379.833 205,388.5C 206.622,397.79 202.789,401.29 193.5,399C 187.27,389.764 181.437,380.264 176,370.5C 175.251,369.365 175.417,368.365 176.5,367.5C 180.135,365.835 183.469,363.835 186.5,361.5 Z"/></g>
<g><path style="opacity:1" fill="#a8dff8" d="M 178.5,406.5 C 148.64,411.768 122.973,403.768 101.5,382.5C 106.353,380.74 111.02,378.407 115.5,375.5C 130.115,387.043 145.115,387.377 160.5,376.5C 167,386.161 173,396.161 178.5,406.5 Z"/></g>
<g><path style="opacity:1" fill="#fabb07" d="M 49.5,447.5 C 54.4423,459.404 63.4423,464.737 76.5,463.5C 74.525,464.646 73.025,466.313 72,468.5C 71.5014,472.152 71.3347,475.818 71.5,479.5C 64.1591,479.666 56.8258,479.5 49.5,479C 35.1135,473.403 29.1135,462.903 31.5,447.5C 37.5,447.5 43.5,447.5 49.5,447.5 Z"/></g>
<g><path style="opacity:1" fill="#f8e009" d="M 49.5,447.5 C 128.833,447.5 208.167,447.5 287.5,447.5C 287.666,451.846 287.499,456.179 287,460.5C 286.768,461.737 286.268,462.737 285.5,463.5C 270.833,463.5 256.167,463.5 241.5,463.5C 239.833,463.5 238.167,463.5 236.5,463.5C 184.833,463.5 133.167,463.5 81.5,463.5C 79.8333,463.5 78.1667,463.5 76.5,463.5C 63.4423,464.737 54.4423,459.404 49.5,447.5 Z"/></g>
<g><path style="opacity:1" fill="#fbbb04" d="M 81.5,463.5 C 133.167,463.5 184.833,463.5 236.5,463.5C 234.525,464.646 233.025,466.313 232,468.5C 231.501,472.152 231.335,475.818 231.5,479.5C 183.5,479.5 135.5,479.5 87.5,479.5C 87.6653,475.818 87.4986,472.152 87,468.5C 85.6484,466.251 83.8151,464.584 81.5,463.5 Z"/></g>
<g><path style="opacity:1" fill="#f9ba09" d="M 241.5,463.5 C 256.167,463.5 270.833,463.5 285.5,463.5C 282.686,471.145 277.353,476.312 269.5,479C 262.174,479.5 254.841,479.666 247.5,479.5C 247.665,475.818 247.499,472.152 247,468.5C 245.648,466.251 243.815,464.584 241.5,463.5 Z"/></g>
</svg>
