<?xml version="1.0" encoding="UTF-8"?>
<!DOCTYPE svg PUBLIC "-//W3C//DTD SVG 1.1//EN" "http://www.w3.org/Graphics/SVG/1.1/DTD/svg11.dtd">
<svg xmlns="http://www.w3.org/2000/svg" version="1.1" width="512px" height="512px" style="shape-rendering:geometricPrecision; text-rendering:geometricPrecision; image-rendering:optimizeQuality; fill-rule:evenodd; clip-rule:evenodd" xmlns:xlink="http://www.w3.org/1999/xlink">
<g><path style="opacity:0.982" fill="#0068a3" d="M 233.5,-0.5 C 248.167,-0.5 262.833,-0.5 277.5,-0.5C 325.659,3.92416 368.992,20.5908 407.5,49.5C 306.167,49.5 204.833,49.5 103.5,49.5C 142.008,20.5908 185.341,3.92416 233.5,-0.5 Z"/></g>
<g><path style="opacity:0.997" fill="#d2e3fe" d="M 103.5,49.5 C 204.833,49.5 306.167,49.5 407.5,49.5C 422.17,49.3334 436.837,49.5001 451.5,50C 470.445,53.9448 481.611,65.4448 485,84.5C 485.5,103.83 485.667,123.164 485.5,142.5C 485.5,217.833 485.5,293.167 485.5,368.5C 476.238,388.409 464.238,406.409 449.5,422.5C 320.167,422.5 190.833,422.5 61.5,422.5C 46.7618,406.409 34.7618,388.409 25.5,368.5C 25.5,293.167 25.5,217.833 25.5,142.5C 25.3334,123.164 25.5,103.83 26,84.5C 29.3886,65.4448 40.5552,53.9448 59.5,50C 74.1629,49.5001 88.8295,49.3334 103.5,49.5 Z"/></g>
<g><path style="opacity:1" fill="#254477" d="M 61.5,70.5 C 190.5,70.3333 319.5,70.5 448.5,71C 456.333,73.5 461.5,78.6667 464,86.5C 464.667,174.167 464.667,261.833 464,349.5C 461.5,357.333 456.333,362.5 448.5,365C 319.5,365.667 190.5,365.667 61.5,365C 54.2684,362.101 49.4351,356.934 47,349.5C 46.3333,261.833 46.3333,174.167 47,86.5C 49.5996,79.0704 54.4329,73.7371 61.5,70.5 Z"/></g>
<g><path style="opacity:1" fill="#f9fafb" d="M 272.5,83.5 C 279.164,83.0002 282.331,86.0002 282,92.5C 268,121.167 254,149.833 240,178.5C 233.054,183.588 229.054,181.921 228,173.5C 242.591,143.319 257.424,113.319 272.5,83.5 Z"/></g>
<g><path style="opacity:1" fill="#fafafc" d="M 211.5,115.5 C 218.95,116.116 222.117,120.116 221,127.5C 213.587,132.79 206.087,137.957 198.5,143C 206.435,147.55 213.935,152.716 221,158.5C 221.438,166.062 217.938,169.562 210.5,169C 199.231,162.117 188.398,154.617 178,146.5C 176.773,142.409 177.606,138.909 180.5,136C 191.242,129.64 201.575,122.807 211.5,115.5 Z"/></g>
<g><path style="opacity:1" fill="#f9fafb" d="M 294.5,115.5 C 296.655,115.372 298.655,115.872 300.5,117C 310.167,123.333 319.833,129.667 329.5,136C 334.405,139.962 334.739,144.296 330.5,149C 321.563,154.273 312.897,159.94 304.5,166C 294.913,172.393 289.746,169.893 289,158.5C 296.225,152.943 303.725,147.776 311.5,143C 304.42,138.043 297.253,133.21 290,128.5C 288.064,123.028 289.564,118.694 294.5,115.5 Z"/></g>
<g><path style="opacity:0.969" fill="#0068a3" d="M 25.5,142.5 C 25.5,217.833 25.5,293.167 25.5,368.5C 11.1475,339.778 2.48087,309.444 -0.5,277.5C -0.5,262.833 -0.5,248.167 -0.5,233.5C 2.48087,201.556 11.1475,171.222 25.5,142.5 Z"/></g>
<g><path style="opacity:0.969" fill="#0068a3" d="M 485.5,142.5 C 499.852,171.222 508.519,201.556 511.5,233.5C 511.5,248.167 511.5,262.833 511.5,277.5C 508.519,309.444 499.852,339.778 485.5,368.5C 485.5,293.167 485.5,217.833 485.5,142.5 Z"/></g>
<g><path style="opacity:1" fill="#fafbfc" d="M 82.5,191.5 C 109.835,191.333 137.169,191.5 164.5,192C 172.339,193.849 175.173,198.682 173,206.5C 171.332,210.165 168.499,212.332 164.5,213C 137.5,213.667 110.5,213.667 83.5,213C 76.3335,210.166 73.8335,204.999 76,197.5C 77.914,195.144 80.0807,193.144 82.5,191.5 Z"/></g>
<g><path style="opacity:1" fill="#2289cf" d="M 223.5,191.5 C 291.167,191.333 358.834,191.5 426.5,192C 434.925,194.094 437.759,199.26 435,207.5C 432.924,210.588 430.091,212.421 426.5,213C 359.5,213.667 292.5,213.667 225.5,213C 217.005,209.515 214.838,203.682 219,195.5C 220.667,194.267 222.167,192.933 223.5,191.5 Z"/></g>
<g><path style="opacity:1" fill="#0068a2" d="M 83.5,233.5 C 110.502,233.333 137.502,233.5 164.5,234C 172.087,236.003 174.92,240.836 173,248.5C 171.301,252.205 168.467,254.372 164.5,255C 137.167,255.667 109.833,255.667 82.5,255C 75.4486,251.375 73.6153,245.875 77,238.5C 78.9651,236.45 81.1318,234.783 83.5,233.5 Z"/></g>
<g><path style="opacity:1" fill="#fb4078" d="M 225.5,233.5 C 292.501,233.333 359.501,233.5 426.5,234C 436.011,237.039 438.344,242.872 433.5,251.5C 431.705,253.703 429.371,254.869 426.5,255C 359.5,255.667 292.5,255.667 225.5,255C 219.679,253.712 216.679,250.046 216.5,244C 217.59,238.751 220.59,235.251 225.5,233.5 Z"/></g>
<g><path style="opacity:1" fill="#fbd871" d="M 81.5,276.5 C 110.169,276.333 138.835,276.5 167.5,277C 173.109,280.277 174.942,285.11 173,291.5C 171.833,294 170,295.833 167.5,297C 138.833,297.667 110.167,297.667 81.5,297C 75.3984,292.895 73.8984,287.395 77,280.5C 78.6667,279.267 80.1667,277.933 81.5,276.5 Z"/></g>
<g><path style="opacity:1" fill="#fefefe" d="M 222.5,276.5 C 291.501,276.333 360.501,276.5 429.5,277C 438.684,283.622 438.684,290.289 429.5,297C 360.5,297.667 291.5,297.667 222.5,297C 214.681,290.109 214.681,283.275 222.5,276.5 Z"/></g>
<g><path style="opacity:1" fill="#0168a2" d="M 81.5,318.5 C 110.169,318.333 138.835,318.5 167.5,319C 174.679,324.615 175.346,330.949 169.5,338C 167.913,338.862 166.246,339.529 164.5,340C 137.833,340.667 111.167,340.667 84.5,340C 76.6022,337.71 73.7689,332.543 76,324.5C 77.3597,321.977 79.193,319.977 81.5,318.5 Z"/></g>
<g><path style="opacity:1" fill="#f7d571" d="M 223.5,318.5 C 292.167,318.333 360.834,318.5 429.5,319C 437.975,324.553 438.642,330.886 431.5,338C 429.913,338.862 428.246,339.529 426.5,340C 359.5,340.667 292.5,340.667 225.5,340C 217.433,337.032 214.933,331.532 218,323.5C 219.73,321.598 221.563,319.931 223.5,318.5 Z"/></g>
<g><path style="opacity:0.985" fill="#0269a3" d="M 62.5,423.5 C 103.5,423.5 144.5,423.5 185.5,423.5C 185.805,432.917 185.472,442.25 184.5,451.5C 176.826,451.334 169.159,451.5 161.5,452C 146.398,457.028 138.731,467.528 138.5,483.5C 108.783,469.123 83.4493,449.123 62.5,423.5 Z"/></g>
<g><path style="opacity:1" fill="#87a9e5" d="M 61.5,422.5 C 190.833,422.5 320.167,422.5 449.5,422.5C 449.5,423.167 449.167,423.5 448.5,423.5C 407.5,423.5 366.5,423.5 325.5,423.5C 325.195,432.917 325.528,442.25 326.5,451.5C 279.167,451.5 231.833,451.5 184.5,451.5C 185.472,442.25 185.805,432.917 185.5,423.5C 144.5,423.5 103.5,423.5 62.5,423.5C 61.8333,423.5 61.5,423.167 61.5,422.5 Z"/></g>
<g><path style="opacity:0.985" fill="#0269a3" d="M 448.5,423.5 C 427.551,449.123 402.217,469.123 372.5,483.5C 372.287,467.578 364.62,457.078 349.5,452C 341.841,451.5 334.174,451.334 326.5,451.5C 325.528,442.25 325.195,432.917 325.5,423.5C 366.5,423.5 407.5,423.5 448.5,423.5 Z"/></g>
<g><path style="opacity:1" fill="#d2e2fe" d="M 184.5,451.5 C 231.833,451.5 279.167,451.5 326.5,451.5C 334.174,451.334 341.841,451.5 349.5,452C 364.62,457.078 372.287,467.578 372.5,483.5C 342.608,498.909 310.942,508.242 277.5,511.5C 262.833,511.5 248.167,511.5 233.5,511.5C 200.058,508.242 168.392,498.909 138.5,483.5C 138.731,467.528 146.398,457.028 161.5,452C 169.159,451.5 176.826,451.334 184.5,451.5 Z"/></g>
</svg>
