<?xml version="1.0" encoding="UTF-8"?>
<!DOCTYPE svg PUBLIC "-//W3C//DTD SVG 1.1//EN" "http://www.w3.org/Graphics/SVG/1.1/DTD/svg11.dtd">
<svg xmlns="http://www.w3.org/2000/svg" version="1.1" width="512px" height="512px" style="shape-rendering:geometricPrecision; text-rendering:geometricPrecision; image-rendering:optimizeQuality; fill-rule:evenodd; clip-rule:evenodd" xmlns:xlink="http://www.w3.org/1999/xlink">
<g><path style="opacity:0.994" fill="#f14f5b" d="M 423.5,29.5 C 322.332,29.8328 221.332,29.4994 120.5,28.5C 122.649,26.2542 125.316,24.7542 128.5,24C 223.833,23.3333 319.167,23.3333 414.5,24C 418.2,24.8428 421.2,26.6761 423.5,29.5 Z"/></g>
<g><path style="opacity:0.997" fill="#ef5060" d="M 120.5,28.5 C 221.332,29.4994 322.332,29.8328 423.5,29.5C 426.647,31.3129 428.647,33.9796 429.5,37.5C 324.001,38.4995 218.335,38.8328 112.5,38.5C 114.057,34.2764 116.724,30.9431 120.5,28.5 Z"/></g>
<g><path style="opacity:0.988" fill="#ee5165" d="M 429.5,37.5 C 430.268,38.2625 430.768,39.2625 431,40.5C 431.498,43.8168 431.665,47.1501 431.5,50.5C 426.167,50.5 420.833,50.5 415.5,50.5C 414.801,41.2373 410.301,38.5707 402,42.5C 400.659,45.022 399.826,47.6887 399.5,50.5C 394.167,50.5 388.833,50.5 383.5,50.5C 383.211,46.8936 383.544,43.3936 384.5,40C 301.5,39.3333 218.5,39.3333 135.5,40C 130.086,41.3001 127.42,44.8001 127.5,50.5C 122.167,50.5 116.833,50.5 111.5,50.5C 111.307,46.4338 111.64,42.4338 112.5,38.5C 218.335,38.8328 324.001,38.4995 429.5,37.5 Z"/></g>
<g><path style="opacity:1" fill="#e95471" d="M 111.5,50.5 C 116.833,50.5 122.167,50.5 127.5,50.5C 127.5,56.8333 127.5,63.1667 127.5,69.5C 122.167,69.5 116.833,69.5 111.5,69.5C 111.5,63.1667 111.5,56.8333 111.5,50.5 Z"/></g>
<g><path style="opacity:0.998" fill="#e95471" d="M 383.5,50.5 C 388.833,50.5 394.167,50.5 399.5,50.5C 399.5,52.1667 399.5,53.8333 399.5,55.5C 404.833,55.5 410.167,55.5 415.5,55.5C 415.5,53.8333 415.5,52.1667 415.5,50.5C 420.833,50.5 426.167,50.5 431.5,50.5C 431.666,56.1764 431.499,61.8431 431,67.5C 430.623,68.9423 429.79,69.9423 428.5,70.5C 413.676,69.5039 398.676,69.1706 383.5,69.5C 383.5,63.1667 383.5,56.8333 383.5,50.5 Z"/></g>
<g><path style="opacity:0.995" fill="#e6567a" d="M 255.5,81.5 C 223.5,81.5 191.5,81.5 159.5,81.5C 158.704,77.3162 160.037,74.1496 163.5,72C 192.833,71.3333 222.167,71.3333 251.5,72C 254.963,74.1496 256.296,77.3162 255.5,81.5 Z"/></g>
<g><path style="opacity:0.993" fill="#e6577c" d="M 291.5,71.5 C 310.17,71.3334 328.836,71.5001 347.5,72C 349.333,72.5 350.5,73.6667 351,75.5C 351.667,78.1667 351.667,80.8333 351,83.5C 350.5,85.3333 349.333,86.5 347.5,87C 328.833,87.6667 310.167,87.6667 291.5,87C 288.484,85.4714 287.151,82.9714 287.5,79.5C 287.282,75.9342 288.616,73.2675 291.5,71.5 Z"/></g>
<g><path style="opacity:1" fill="#e65679" d="M 383.5,69.5 C 398.676,69.1706 413.676,69.5039 428.5,70.5C 418.916,71.4732 409.25,71.8065 399.5,71.5C 399.5,74.8333 399.5,78.1667 399.5,81.5C 394.167,81.5 388.833,81.5 383.5,81.5C 383.5,77.5 383.5,73.5 383.5,69.5 Z"/></g>
<g><path style="opacity:1" fill="#e5577e" d="M 111.5,69.5 C 116.833,69.5 122.167,69.5 127.5,69.5C 127.5,76.5 127.5,83.5 127.5,90.5C 122.167,90.5 116.833,90.5 111.5,90.5C 111.5,83.5 111.5,76.5 111.5,69.5 Z"/></g>
<g><path style="opacity:1" fill="#e45880" d="M 159.5,81.5 C 191.5,81.5 223.5,81.5 255.5,81.5C 255.5,84.5 255.5,87.5 255.5,90.5C 250.167,90.5 244.833,90.5 239.5,90.5C 239.5,89.5 239.5,88.5 239.5,87.5C 218.167,87.5 196.833,87.5 175.5,87.5C 175.5,88.5 175.5,89.5 175.5,90.5C 170.167,90.5 164.833,90.5 159.5,90.5C 159.5,87.5 159.5,84.5 159.5,81.5 Z"/></g>
<g><path style="opacity:1" fill="#e35984" d="M 383.5,81.5 C 388.833,81.5 394.167,81.5 399.5,81.5C 399.5,87.8333 399.5,94.1667 399.5,100.5C 394.167,100.5 388.833,100.5 383.5,100.5C 383.5,94.1667 383.5,87.8333 383.5,81.5 Z"/></g>
<g><path style="opacity:1" fill="#e05a8a" d="M 111.5,90.5 C 116.833,90.5 122.167,90.5 127.5,90.5C 127.5,97.1667 127.5,103.833 127.5,110.5C 122.167,110.5 116.833,110.5 111.5,110.5C 111.5,103.833 111.5,97.1667 111.5,90.5 Z"/></g>
<g><path style="opacity:1" fill="#e05a8a" d="M 159.5,90.5 C 164.833,90.5 170.167,90.5 175.5,90.5C 175.5,97.1667 175.5,103.833 175.5,110.5C 170.167,110.5 164.833,110.5 159.5,110.5C 159.5,103.833 159.5,97.1667 159.5,90.5 Z"/></g>
<g><path style="opacity:1" fill="#e05a8a" d="M 239.5,90.5 C 244.833,90.5 250.167,90.5 255.5,90.5C 255.5,97.1667 255.5,103.833 255.5,110.5C 250.167,110.5 244.833,110.5 239.5,110.5C 239.5,103.833 239.5,97.1667 239.5,90.5 Z"/></g>
<g><path style="opacity:0.986" fill="#de5c91" d="M 467.5,119.5 C 459.167,120.167 450.833,120.833 442.5,121.5C 437.531,120.217 432.531,120.217 427.5,121.5C 419.5,120.833 411.5,120.167 403.5,119.5C 415.956,104.185 431.623,99.6847 450.5,106C 457.329,109.076 462.996,113.576 467.5,119.5 Z"/></g>
<g><path style="opacity:0.993" fill="#de5c90" d="M 275.5,103.5 C 299.502,103.333 323.502,103.5 347.5,104C 349.333,104.5 350.5,105.667 351,107.5C 351.667,110.167 351.667,112.833 351,115.5C 350.5,117.333 349.333,118.5 347.5,119C 323.5,119.667 299.5,119.667 275.5,119C 272.484,117.471 271.151,114.971 271.5,111.5C 271.282,107.934 272.616,105.268 275.5,103.5 Z"/></g>
<g><path style="opacity:1" fill="#de5c90" d="M 383.5,100.5 C 388.833,100.5 394.167,100.5 399.5,100.5C 399.5,107.167 399.5,113.833 399.5,120.5C 394.167,120.5 388.833,120.5 383.5,120.5C 383.5,113.833 383.5,107.167 383.5,100.5 Z"/></g>
<g><path style="opacity:1" fill="#dc5d97" d="M 111.5,110.5 C 116.833,110.5 122.167,110.5 127.5,110.5C 127.5,117.833 127.5,125.167 127.5,132.5C 122.167,132.5 116.833,132.5 111.5,132.5C 111.5,125.167 111.5,117.833 111.5,110.5 Z"/></g>
<g><path style="opacity:1" fill="#dc5d97" d="M 159.5,110.5 C 164.833,110.5 170.167,110.5 175.5,110.5C 175.5,117.833 175.5,125.167 175.5,132.5C 170.167,132.5 164.833,132.5 159.5,132.5C 159.5,125.167 159.5,117.833 159.5,110.5 Z"/></g>
<g><path style="opacity:1" fill="#dc5d97" d="M 239.5,110.5 C 244.833,110.5 250.167,110.5 255.5,110.5C 255.5,117.833 255.5,125.167 255.5,132.5C 250.167,132.5 244.833,132.5 239.5,132.5C 239.5,125.167 239.5,117.833 239.5,110.5 Z"/></g>
<g><path style="opacity:0.986" fill="#db5d99" d="M 467.5,119.5 C 470.833,122.167 473.833,125.167 476.5,128.5C 476.414,129.496 476.748,130.329 477.5,131C 470.174,131.5 462.841,131.666 455.5,131.5C 451.718,127.377 447.385,124.043 442.5,121.5C 450.833,120.833 459.167,120.167 467.5,119.5 Z"/></g>
<g><path style="opacity:0.977" fill="#da5f9d" d="M 403.5,119.5 C 411.5,120.167 419.5,120.833 427.5,121.5C 424.599,122.792 422.266,124.792 420.5,127.5C 424.855,132.187 429.188,136.854 433.5,141.5C 425.5,141.5 417.5,141.5 409.5,141.5C 408.167,140.167 406.833,140.167 405.5,141.5C 397.648,141.825 389.982,141.492 382.5,140.5C 383.46,133.922 383.793,127.255 383.5,120.5C 388.833,120.5 394.167,120.5 399.5,120.5C 399.369,121.239 399.536,121.906 400,122.5C 401.039,121.29 402.206,120.29 403.5,119.5 Z"/></g>
<g><path style="opacity:0.958" fill="#d860a1" d="M 476.5,128.5 C 484.456,134.115 490.122,141.449 493.5,150.5C 487.31,150.177 481.31,150.51 475.5,151.5C 468.5,145.167 461.833,138.5 455.5,131.5C 462.841,131.666 470.174,131.5 477.5,131C 476.748,130.329 476.414,129.496 476.5,128.5 Z"/></g>
<g><path style="opacity:1" fill="#d95fa0" d="M 159.5,132.5 C 164.833,132.5 170.167,132.5 175.5,132.5C 175.5,133.5 175.5,134.5 175.5,135.5C 196.833,135.5 218.167,135.5 239.5,135.5C 239.5,134.5 239.5,133.5 239.5,132.5C 244.833,132.5 250.167,132.5 255.5,132.5C 255.5,135.5 255.5,138.5 255.5,141.5C 223.5,141.5 191.5,141.5 159.5,141.5C 159.5,138.5 159.5,135.5 159.5,132.5 Z"/></g>
<g><path style="opacity:0.994" fill="#d761a5" d="M 111.5,132.5 C 116.833,132.5 122.167,132.5 127.5,132.5C 127.5,141.833 127.5,151.167 127.5,160.5C 122.167,160.5 116.833,160.5 111.5,160.5C 111.5,157.5 111.5,154.5 111.5,151.5C 101.45,151.169 91.4499,151.669 81.5,153C 76.663,154.247 72.663,156.747 69.5,160.5C 62.9779,160.823 56.6446,160.49 50.5,159.5C 55.6919,146.814 65.0253,138.98 78.5,136C 89.495,135.5 100.495,135.333 111.5,135.5C 111.5,134.5 111.5,133.5 111.5,132.5 Z"/></g>
<g><path style="opacity:0.994" fill="#d761a5" d="M 159.5,141.5 C 191.5,141.5 223.5,141.5 255.5,141.5C 256.296,145.684 254.963,148.85 251.5,151C 222.167,151.667 192.833,151.667 163.5,151C 160.037,148.85 158.704,145.684 159.5,141.5 Z"/></g>
<g><path style="opacity:0.992" fill="#d760a4" d="M 275.5,135.5 C 299.502,135.333 323.502,135.5 347.5,136C 349.333,136.5 350.5,137.667 351,139.5C 351.667,142.167 351.667,144.833 351,147.5C 350.5,149.333 349.333,150.5 347.5,151C 323.5,151.667 299.5,151.667 275.5,151C 272.484,149.471 271.151,146.971 271.5,143.5C 271.282,139.934 272.616,137.268 275.5,135.5 Z"/></g>
<g><path style="opacity:0.983" fill="#d662aa" d="M 382.5,140.5 C 389.982,141.492 397.648,141.825 405.5,141.5C 404.697,142.423 404.53,143.423 405,144.5C 410.37,149.702 415.536,155.035 420.5,160.5C 412.5,160.5 404.5,160.5 396.5,160.5C 394.852,159.19 393.186,157.857 391.5,156.5C 389.814,157.857 388.148,159.19 386.5,160.5C 378.648,160.825 370.982,160.492 363.5,159.5C 369.5,152.833 375.833,146.5 382.5,140.5 Z"/></g>
<g><path style="opacity:0.98" fill="#d662a9" d="M 409.5,141.5 C 417.5,141.5 425.5,141.5 433.5,141.5C 440.167,147.5 446.5,153.833 452.5,160.5C 444.5,160.5 436.5,160.5 428.5,160.5C 421.833,154.5 415.5,148.167 409.5,141.5 Z"/></g>
<g><path style="opacity:0.992" fill="#d264b6" d="M 50.5,159.5 C 56.6446,160.49 62.9779,160.823 69.5,160.5C 65.277,166.792 63.277,173.792 63.5,181.5C 58.1667,181.5 52.8333,181.5 47.5,181.5C 47.3341,176.489 47.5007,171.489 48,166.5C 48.3903,163.896 49.2237,161.562 50.5,159.5 Z"/></g>
<g><path style="opacity:0.99" fill="#d165b8" d="M 111.5,160.5 C 116.833,160.5 122.167,160.5 127.5,160.5C 127.5,169.833 127.5,179.167 127.5,188.5C 122.167,188.5 116.833,188.5 111.5,188.5C 111.5,186.833 111.5,185.167 111.5,183.5C 105.467,182.622 100.467,184.288 96.5,188.5C 91.142,188.42 85.4754,188.42 79.5,188.5C 83.3543,171.551 94.021,164.551 111.5,167.5C 111.5,165.167 111.5,162.833 111.5,160.5 Z"/></g>
<g><path style="opacity:0.982" fill="#d165b7" d="M 179.5,167.5 C 187.507,167.334 195.507,167.5 203.5,168C 205.333,168.5 206.5,169.667 207,171.5C 207.667,174.167 207.667,176.833 207,179.5C 206.5,181.333 205.333,182.5 203.5,183C 195.5,183.667 187.5,183.667 179.5,183C 176.484,181.471 175.151,178.971 175.5,175.5C 175.282,171.934 176.616,169.268 179.5,167.5 Z"/></g>
<g><path style="opacity:0.996" fill="#d165b7" d="M 363.5,159.5 C 370.982,160.492 378.648,160.825 386.5,160.5C 376.167,171.5 365.5,182.167 354.5,192.5C 347.266,191.802 339.933,191.136 332.5,190.5C 334.294,188.203 336.294,186.037 338.5,184C 301.5,183.667 264.5,183.333 227.5,183C 225.667,182.5 224.5,181.333 224,179.5C 223.183,176.036 223.517,172.702 225,169.5C 225.75,168.874 226.584,168.374 227.5,168C 267.5,167.333 307.5,167.333 347.5,168C 349.333,168.5 350.5,169.667 351,171.5C 355.036,167.296 359.202,163.296 363.5,159.5 Z"/></g>
<g><path style="opacity:0.982" fill="#d165b7" d="M 396.5,160.5 C 404.5,160.5 412.5,160.5 420.5,160.5C 427.833,167.167 434.833,174.167 441.5,181.5C 433.648,181.175 425.982,181.508 418.5,182.5C 416.186,180.523 413.853,178.523 411.5,176.5C 406.48,181.188 401.48,185.855 396.5,190.5C 393.402,189.179 389.902,188.512 386,188.5C 381.784,188.565 377.617,188.898 373.5,189.5C 381.464,181.035 389.631,172.702 398,164.5C 398.3,162.934 397.8,161.601 396.5,160.5 Z"/></g>
<g><path style="opacity:0.971" fill="#d264b5" d="M 493.5,150.5 C 496.634,161.086 495.967,171.42 491.5,181.5C 477.656,181.171 463.99,181.504 450.5,182.5C 442.833,175.5 435.5,168.167 428.5,160.5C 436.5,160.5 444.5,160.5 452.5,160.5C 458.813,166.478 465.146,172.478 471.5,178.5C 478.063,172.967 480.23,165.967 478,157.5C 476.878,155.593 476.045,153.593 475.5,151.5C 481.31,150.51 487.31,150.177 493.5,150.5 Z"/></g>
<g><path style="opacity:0.985" fill="#cd67c1" d="M 441.5,181.5 C 446.146,185.812 450.813,190.145 455.5,194.5C 456.833,193.833 457.833,192.833 458.5,191.5C 455.811,188.48 453.144,185.48 450.5,182.5C 463.99,181.504 477.656,181.171 491.5,181.5C 486.247,189.422 479.914,196.422 472.5,202.5C 461.167,201.167 449.833,201.167 438.5,202.5C 437.518,201.859 436.518,201.193 435.5,200.5C 434.482,201.193 433.482,201.859 432.5,202.5C 425.018,201.508 417.352,201.175 409.5,201.5C 413.812,196.854 418.145,192.187 422.5,187.5C 421.143,185.814 419.81,184.148 418.5,182.5C 425.982,181.508 433.648,181.175 441.5,181.5 Z"/></g>
<g><path style="opacity:1" fill="#cd67c2" d="M 47.5,181.5 C 52.8333,181.5 58.1667,181.5 63.5,181.5C 63.5,188.167 63.5,194.833 63.5,201.5C 58.1667,201.5 52.8333,201.5 47.5,201.5C 47.5,194.833 47.5,188.167 47.5,181.5 Z"/></g>
<g><path style="opacity:1" fill="#cb69c8" d="M 96.5,188.5 C 95.6022,196.124 95.2689,203.791 95.5,211.5C 90.1667,211.5 84.8333,211.5 79.5,211.5C 79.5,203.833 79.5,196.167 79.5,188.5C 85.4754,188.42 91.142,188.42 96.5,188.5 Z"/></g>
<g><path style="opacity:1" fill="#cb69c8" d="M 111.5,188.5 C 116.833,188.5 122.167,188.5 127.5,188.5C 127.5,196.167 127.5,203.833 127.5,211.5C 122.167,211.5 116.833,211.5 111.5,211.5C 111.5,203.833 111.5,196.167 111.5,188.5 Z"/></g>
<g><path style="opacity:0.995" fill="#ca69cb" d="M 163.5,199.5 C 187.502,199.333 211.502,199.5 235.5,200C 237.333,200.5 238.5,201.667 239,203.5C 239.667,206.167 239.667,208.833 239,211.5C 238.5,213.333 237.333,214.5 235.5,215C 211.5,215.667 187.5,215.667 163.5,215C 160.484,213.471 159.151,210.971 159.5,207.5C 159.282,203.934 160.616,201.268 163.5,199.5 Z"/></g>
<g><path style="opacity:0.996" fill="#cb69c9" d="M 332.5,190.5 C 339.933,191.136 347.266,191.802 354.5,192.5C 348.5,199.167 342.167,205.5 335.5,211.5C 308.833,211.5 282.167,211.5 255.5,211.5C 255.336,208.813 255.503,206.146 256,203.5C 256.5,201.667 257.667,200.5 259.5,200C 280.833,199.667 302.167,199.333 323.5,199C 326.369,195.962 329.369,193.129 332.5,190.5 Z"/></g>
<g><path style="opacity:0.981" fill="#cb69c8" d="M 396.5,190.5 C 389.833,197.833 382.833,204.833 375.5,211.5C 367.747,211.799 360.08,211.466 352.5,210.5C 359.167,203.167 366.167,196.167 373.5,189.5C 377.617,188.898 381.784,188.565 386,188.5C 389.902,188.512 393.402,189.179 396.5,190.5 Z"/></g>
<g><path style="opacity:0.981" fill="#cb69ca" d="M 409.5,201.5 C 417.352,201.175 425.018,201.508 432.5,202.5C 429.833,205.833 426.833,208.833 423.5,211.5C 415.747,211.799 408.08,211.466 400.5,210.5C 403.167,207.167 406.167,204.167 409.5,201.5 Z"/></g>
<g><path style="opacity:0.978" fill="#c76cd3" d="M 352.5,210.5 C 360.08,211.466 367.747,211.799 375.5,211.5C 368.5,219.167 361.167,226.5 353.5,233.5C 350.402,232.179 346.902,231.512 343,231.5C 339.5,231.667 336,231.833 332.5,232C 331.756,233.039 330.756,233.539 329.5,233.5C 336.833,225.5 344.5,217.833 352.5,210.5 Z"/></g>
<g><path style="opacity:0.978" fill="#c76cd3" d="M 400.5,210.5 C 408.08,211.466 415.747,211.799 423.5,211.5C 416.5,219.167 409.167,226.5 401.5,233.5C 398.402,232.179 394.902,231.512 391,231.5C 387.5,231.667 384,231.833 380.5,232C 379.756,233.039 378.756,233.539 377.5,233.5C 384.833,225.5 392.5,217.833 400.5,210.5 Z"/></g>
<g><path style="opacity:0.99" fill="#c96bcf" d="M 472.5,202.5 C 469.871,205.631 467.038,208.631 464,211.5C 463.501,215.152 463.335,218.818 463.5,222.5C 451.833,222.5 440.167,222.5 428.5,222.5C 432.797,217.702 437.297,213.035 442,208.5C 442.667,207.833 442.667,207.167 442,206.5C 440.624,205.295 439.458,203.962 438.5,202.5C 449.833,201.167 461.167,201.167 472.5,202.5 Z"/></g>
<g><path style="opacity:1" fill="#c96ace" d="M 47.5,201.5 C 52.8333,201.5 58.1667,201.5 63.5,201.5C 63.5,207.833 63.5,214.167 63.5,220.5C 58.1667,220.5 52.8333,220.5 47.5,220.5C 47.5,214.167 47.5,207.833 47.5,201.5 Z"/></g>
<g><path style="opacity:0.993" fill="#c86bd0" d="M 255.5,211.5 C 282.167,211.5 308.833,211.5 335.5,211.5C 332.833,214.833 329.833,217.833 326.5,220.5C 318.5,220.5 310.5,220.5 302.5,220.5C 303.625,218.871 304.959,217.371 306.5,216C 294.838,215.5 283.171,215.333 271.5,215.5C 271.5,217.167 271.5,218.833 271.5,220.5C 266.167,220.5 260.833,220.5 255.5,220.5C 255.5,217.5 255.5,214.5 255.5,211.5 Z"/></g>
<g><path style="opacity:1" fill="#c66cd4" d="M 79.5,211.5 C 84.8333,211.5 90.1667,211.5 95.5,211.5C 95.5,218.167 95.5,224.833 95.5,231.5C 90.1667,231.5 84.8333,231.5 79.5,231.5C 79.5,224.833 79.5,218.167 79.5,211.5 Z"/></g>
<g><path style="opacity:1" fill="#c66cd4" d="M 111.5,211.5 C 116.833,211.5 122.167,211.5 127.5,211.5C 127.5,218.167 127.5,224.833 127.5,231.5C 122.167,231.5 116.833,231.5 111.5,231.5C 111.5,224.833 111.5,218.167 111.5,211.5 Z"/></g>
<g><path style="opacity:0.99" fill="#c56dd9" d="M 428.5,222.5 C 440.167,222.5 451.833,222.5 463.5,222.5C 463.5,228.833 463.5,235.167 463.5,241.5C 458.167,241.5 452.833,241.5 447.5,241.5C 447.666,237.154 447.499,232.821 447,228.5C 442.298,233.37 437.465,238.037 432.5,242.5C 425.167,241.833 417.833,241.167 410.5,240.5C 416.167,234.167 422.167,228.167 428.5,222.5 Z"/></g>
<g><path style="opacity:0.996" fill="#c46dda" d="M 255.5,220.5 C 260.833,220.5 266.167,220.5 271.5,220.5C 271.5,224.167 271.5,227.833 271.5,231.5C 278.175,231.666 284.842,231.5 291.5,231C 295.036,227.296 298.702,223.796 302.5,220.5C 310.5,220.5 318.5,220.5 326.5,220.5C 322.203,225.298 317.703,229.965 313,234.5C 312.333,235.167 312.333,235.833 313,236.5C 314.376,237.705 315.542,239.038 316.5,240.5C 296.34,241.497 276.007,241.83 255.5,241.5C 255.5,234.5 255.5,227.5 255.5,220.5 Z"/></g>
<g><path style="opacity:1" fill="#c46ddb" d="M 47.5,220.5 C 52.8333,220.5 58.1667,220.5 63.5,220.5C 63.5,227.5 63.5,234.5 63.5,241.5C 58.1667,241.5 52.8333,241.5 47.5,241.5C 47.5,234.5 47.5,227.5 47.5,220.5 Z"/></g>
<g><path style="opacity:0.99" fill="#c36ede" d="M 163.5,231.5 C 187.502,231.333 211.502,231.5 235.5,232C 237.333,232.5 238.5,233.667 239,235.5C 239.667,238.167 239.667,240.833 239,243.5C 238.5,245.333 237.333,246.5 235.5,247C 211.5,247.667 187.5,247.667 163.5,247C 160.484,245.471 159.151,242.971 159.5,239.5C 159.282,235.934 160.616,233.268 163.5,231.5 Z"/></g>
<g><path style="opacity:0.988" fill="#c26fe1" d="M 353.5,233.5 C 348.833,238.833 343.833,243.833 338.5,248.5C 326.087,248.187 313.753,248.521 301.5,249.5C 300.883,249.389 300.383,249.056 300,248.5C 298.637,250.684 297.137,252.684 295.5,254.5C 289.833,253.833 284.167,253.167 278.5,252.5C 279.038,250.883 279.371,249.216 279.5,247.5C 272.825,247.666 266.158,247.5 259.5,247C 257.072,245.982 255.738,244.148 255.5,241.5C 276.007,241.83 296.34,241.497 316.5,240.5C 317.601,241.8 318.934,242.3 320.5,242C 323.369,238.962 326.369,236.129 329.5,233.5C 330.756,233.539 331.756,233.039 332.5,232C 336,231.833 339.5,231.667 343,231.5C 346.902,231.512 350.402,232.179 353.5,233.5 Z"/></g>
<g><path style="opacity:1" fill="#c26fe2" d="M 79.5,231.5 C 84.8333,231.5 90.1667,231.5 95.5,231.5C 95.5,238.833 95.5,246.167 95.5,253.5C 90.1667,253.5 84.8333,253.5 79.5,253.5C 79.5,246.167 79.5,238.833 79.5,231.5 Z"/></g>
<g><path style="opacity:1" fill="#c26fe2" d="M 111.5,231.5 C 116.833,231.5 122.167,231.5 127.5,231.5C 127.5,238.833 127.5,246.167 127.5,253.5C 122.167,253.5 116.833,253.5 111.5,253.5C 111.5,246.167 111.5,238.833 111.5,231.5 Z"/></g>
<g><path style="opacity:1" fill="#be71e7" d="M 47.5,241.5 C 52.8333,241.5 58.1667,241.5 63.5,241.5C 63.5,250.833 63.5,260.167 63.5,269.5C 58.1667,269.5 52.8333,269.5 47.5,269.5C 47.5,260.167 47.5,250.833 47.5,241.5 Z"/></g>
<g><path style="opacity:0.992" fill="#bd71e7" d="M 410.5,240.5 C 417.833,241.167 425.167,241.833 432.5,242.5C 431.529,251.416 431.196,260.416 431.5,269.5C 426.167,269.5 420.833,269.5 415.5,269.5C 415.665,266.482 415.498,263.482 415,260.5C 411.964,263.704 408.797,266.704 405.5,269.5C 397.5,269.5 389.5,269.5 381.5,269.5C 390.833,259.5 400.5,249.833 410.5,240.5 Z"/></g>
<g><path style="opacity:1" fill="#be71e7" d="M 447.5,241.5 C 452.833,241.5 458.167,241.5 463.5,241.5C 463.5,250.833 463.5,260.167 463.5,269.5C 458.167,269.5 452.833,269.5 447.5,269.5C 447.5,260.167 447.5,250.833 447.5,241.5 Z"/></g>
<g><path style="opacity:1" fill="#ba73e8" d="M 79.5,253.5 C 84.8333,253.5 90.1667,253.5 95.5,253.5C 95.5,258.833 95.5,264.167 95.5,269.5C 90.1667,269.5 84.8333,269.5 79.5,269.5C 79.5,264.167 79.5,258.833 79.5,253.5 Z"/></g>
<g><path style="opacity:1" fill="#ba73e8" d="M 111.5,253.5 C 116.833,253.5 122.167,253.5 127.5,253.5C 127.5,258.833 127.5,264.167 127.5,269.5C 122.167,269.5 116.833,269.5 111.5,269.5C 111.5,264.167 111.5,258.833 111.5,253.5 Z"/></g>
<g><path style="opacity:0.992" fill="#b874e8" d="M 278.5,252.5 C 284.167,253.167 289.833,253.833 295.5,254.5C 293.636,259.426 291.969,264.426 290.5,269.5C 246.82,270.161 203.487,269.495 160.5,267.5C 160.574,265.589 161.574,264.422 163.5,264C 200.498,263.5 237.498,263.333 274.5,263.5C 275.065,259.463 276.399,255.797 278.5,252.5 Z"/></g>
<g><path style="opacity:0.973" fill="#bc72e7" d="M 401.5,233.5 C 389.833,245.833 377.833,257.833 365.5,269.5C 350.833,269.5 336.167,269.5 321.5,269.5C 314.5,263.167 307.833,256.5 301.5,249.5C 313.753,248.521 326.087,248.187 338.5,248.5C 336.523,250.814 334.523,253.147 332.5,255.5C 335.833,259.5 339.5,263.167 343.5,266.5C 354.854,255.479 366.187,244.479 377.5,233.5C 378.756,233.539 379.756,233.039 380.5,232C 384,231.833 387.5,231.667 391,231.5C 394.902,231.512 398.402,232.179 401.5,233.5 Z"/></g>
<g><path style="opacity:0.993" fill="#b177e8" d="M 160.5,267.5 C 203.487,269.495 246.82,270.161 290.5,269.5C 289.4,273.731 288.067,277.898 286.5,282C 288.041,283.371 289.375,284.871 290.5,286.5C 283.167,286.5 275.833,286.5 268.5,286.5C 268.674,284.139 269.007,281.806 269.5,279.5C 234.165,279.667 198.832,279.5 163.5,279C 161.667,278.5 160.5,277.333 160,275.5C 159.199,272.633 159.366,269.966 160.5,267.5 Z"/></g>
<g><path style="opacity:0.986" fill="#b177e9" d="M 321.5,269.5 C 336.167,269.5 350.833,269.5 365.5,269.5C 362.833,272.833 359.833,275.833 356.5,278.5C 347.833,278.5 339.167,278.5 330.5,278.5C 327.167,275.833 324.167,272.833 321.5,269.5 Z"/></g>
<g><path style="opacity:1" fill="#ad78e8" d="M 47.5,269.5 C 52.8333,269.5 58.1667,269.5 63.5,269.5C 63.5,275.167 63.5,280.833 63.5,286.5C 58.1667,286.5 52.8333,286.5 47.5,286.5C 47.5,280.833 47.5,275.167 47.5,269.5 Z"/></g>
<g><path style="opacity:1" fill="#ad78e8" d="M 79.5,269.5 C 84.8333,269.5 90.1667,269.5 95.5,269.5C 95.5,275.167 95.5,280.833 95.5,286.5C 90.1667,286.5 84.8333,286.5 79.5,286.5C 79.5,280.833 79.5,275.167 79.5,269.5 Z"/></g>
<g><path style="opacity:1" fill="#ad78e8" d="M 111.5,269.5 C 116.833,269.5 122.167,269.5 127.5,269.5C 127.5,275.167 127.5,280.833 127.5,286.5C 122.167,286.5 116.833,286.5 111.5,286.5C 111.5,280.833 111.5,275.167 111.5,269.5 Z"/></g>
<g><path style="opacity:1" fill="#ad78e8" d="M 415.5,269.5 C 420.833,269.5 426.167,269.5 431.5,269.5C 431.5,275.167 431.5,280.833 431.5,286.5C 426.167,286.5 420.833,286.5 415.5,286.5C 415.5,280.833 415.5,275.167 415.5,269.5 Z"/></g>
<g><path style="opacity:1" fill="#ad78e8" d="M 447.5,269.5 C 452.833,269.5 458.167,269.5 463.5,269.5C 463.5,275.167 463.5,280.833 463.5,286.5C 458.167,286.5 452.833,286.5 447.5,286.5C 447.5,280.833 447.5,275.167 447.5,269.5 Z"/></g>
<g><path style="opacity:0.995" fill="#a97ae8" d="M 381.5,269.5 C 389.5,269.5 397.5,269.5 405.5,269.5C 403.873,271.63 402.04,273.63 400,275.5C 399.5,281.825 399.334,288.158 399.5,294.5C 394.167,294.5 388.833,294.5 383.5,294.5C 383.631,293.761 383.464,293.094 383,292.5C 381.629,294.041 380.129,295.375 378.5,296.5C 373.712,295.172 368.546,294.505 363,294.5C 357.656,294.501 352.489,294.834 347.5,295.5C 341.5,290.167 335.833,284.5 330.5,278.5C 339.167,278.5 347.833,278.5 356.5,278.5C 358.071,281.744 360.405,284.411 363.5,286.5C 369.52,280.812 375.52,275.145 381.5,269.5 Z"/></g>
<g><path style="opacity:1" fill="#a17ee7" d="M 47.5,286.5 C 52.8333,286.5 58.1667,286.5 63.5,286.5C 63.5,291.833 63.5,297.167 63.5,302.5C 58.1667,302.5 52.8333,302.5 47.5,302.5C 47.5,297.167 47.5,291.833 47.5,286.5 Z"/></g>
<g><path style="opacity:1" fill="#a17ee7" d="M 79.5,286.5 C 84.8333,286.5 90.1667,286.5 95.5,286.5C 95.5,291.833 95.5,297.167 95.5,302.5C 90.1667,302.5 84.8333,302.5 79.5,302.5C 79.5,297.167 79.5,291.833 79.5,286.5 Z"/></g>
<g><path style="opacity:1" fill="#a17ee7" d="M 111.5,286.5 C 116.833,286.5 122.167,286.5 127.5,286.5C 127.5,291.833 127.5,297.167 127.5,302.5C 122.167,302.5 116.833,302.5 111.5,302.5C 111.5,297.167 111.5,291.833 111.5,286.5 Z"/></g>
<g><path style="opacity:0.995" fill="#a07ee7" d="M 268.5,286.5 C 275.833,286.5 283.167,286.5 290.5,286.5C 295.5,290.833 300.167,295.5 304.5,300.5C 301.402,301.821 297.902,302.488 294,302.5C 289.588,302.08 285.422,302.08 281.5,302.5C 256.833,302.5 232.167,302.5 207.5,302.5C 207.444,299.439 208.778,297.272 211.5,296C 229.509,295.833 247.509,295.333 265.5,294.5C 266.516,291.718 267.516,289.051 268.5,286.5 Z"/></g>
<g><path style="opacity:1" fill="#a17ee7" d="M 415.5,286.5 C 420.833,286.5 426.167,286.5 431.5,286.5C 431.5,291.833 431.5,297.167 431.5,302.5C 426.167,302.5 420.833,302.5 415.5,302.5C 415.5,297.167 415.5,291.833 415.5,286.5 Z"/></g>
<g><path style="opacity:1" fill="#a17ee7" d="M 447.5,286.5 C 452.833,286.5 458.167,286.5 463.5,286.5C 463.5,291.833 463.5,297.167 463.5,302.5C 458.167,302.5 452.833,302.5 447.5,302.5C 447.5,297.167 447.5,291.833 447.5,286.5 Z"/></g>
<g><path style="opacity:0.984" fill="#9b81e7" d="M 163.5,295.5 C 171.507,295.334 179.507,295.5 187.5,296C 189.333,296.5 190.5,297.667 191,299.5C 191.667,302.167 191.667,304.833 191,307.5C 190.5,309.333 189.333,310.5 187.5,311C 179.5,311.667 171.5,311.667 163.5,311C 160.484,309.471 159.151,306.971 159.5,303.5C 159.282,299.934 160.616,297.268 163.5,295.5 Z"/></g>
<g><path style="opacity:0.994" fill="#9981e7" d="M 207.5,302.5 C 232.167,302.5 256.833,302.5 281.5,302.5C 280.64,305.632 279.64,308.632 278.5,311.5C 272.741,311.214 267.075,311.548 261.5,312.5C 245.005,311.668 228.338,311.168 211.5,311C 208.179,309.188 206.845,306.355 207.5,302.5 Z"/></g>
<g><path style="opacity:0.976" fill="#9b81e8" d="M 378.5,296.5 C 373.463,302.538 367.797,307.871 361.5,312.5C 348.5,311.833 335.5,311.167 322.5,310.5C 332.632,308.514 341.965,304.681 350.5,299C 349.29,297.961 348.29,296.794 347.5,295.5C 352.489,294.834 357.656,294.501 363,294.5C 368.546,294.505 373.712,295.172 378.5,296.5 Z"/></g>
<g><path style="opacity:1" fill="#9b81e7" d="M 383.5,294.5 C 388.833,294.5 394.167,294.5 399.5,294.5C 399.5,300.167 399.5,305.833 399.5,311.5C 394.167,311.5 388.833,311.5 383.5,311.5C 383.5,305.833 383.5,300.167 383.5,294.5 Z"/></g>
<g><path style="opacity:1" fill="#9285e7" d="M 47.5,302.5 C 52.8333,302.5 58.1667,302.5 63.5,302.5C 63.5,311.5 63.5,320.5 63.5,329.5C 58.1667,329.5 52.8333,329.5 47.5,329.5C 47.5,320.5 47.5,311.5 47.5,302.5 Z"/></g>
<g><path style="opacity:1" fill="#9285e7" d="M 79.5,302.5 C 84.8333,302.5 90.1667,302.5 95.5,302.5C 95.5,311.5 95.5,320.5 95.5,329.5C 90.1667,329.5 84.8333,329.5 79.5,329.5C 79.5,320.5 79.5,311.5 79.5,302.5 Z"/></g>
<g><path style="opacity:1" fill="#9285e7" d="M 111.5,302.5 C 116.833,302.5 122.167,302.5 127.5,302.5C 127.5,311.5 127.5,320.5 127.5,329.5C 122.167,329.5 116.833,329.5 111.5,329.5C 111.5,320.5 111.5,311.5 111.5,302.5 Z"/></g>
<g><path style="opacity:0.986" fill="#9484e8" d="M 304.5,300.5 C 308.798,304.296 312.964,308.296 317,312.5C 318.725,311.536 320.559,310.869 322.5,310.5C 335.5,311.167 348.5,311.833 361.5,312.5C 356.918,315.958 351.918,318.624 346.5,320.5C 327.659,320.83 308.993,320.497 290.5,319.5C 292.63,318.968 294.63,318.135 296.5,317C 291.631,311.963 286.631,307.13 281.5,302.5C 285.422,302.08 289.588,302.08 294,302.5C 297.902,302.488 301.402,301.821 304.5,300.5 Z"/></g>
<g><path style="opacity:1" fill="#9285e7" d="M 415.5,302.5 C 420.833,302.5 426.167,302.5 431.5,302.5C 431.5,311.5 431.5,320.5 431.5,329.5C 426.167,329.5 420.833,329.5 415.5,329.5C 415.5,320.5 415.5,311.5 415.5,302.5 Z"/></g>
<g><path style="opacity:1" fill="#9285e7" d="M 447.5,302.5 C 452.833,302.5 458.167,302.5 463.5,302.5C 463.5,311.5 463.5,320.5 463.5,329.5C 458.167,329.5 452.833,329.5 447.5,329.5C 447.5,320.5 447.5,311.5 447.5,302.5 Z"/></g>
<g><path style="opacity:0.985" fill="#8d87e8" d="M 278.5,311.5 C 277.674,315.136 277.008,318.803 276.5,322.5C 281.239,321.815 285.906,320.815 290.5,319.5C 308.993,320.497 327.659,320.83 346.5,320.5C 337.956,324.344 328.956,327.011 319.5,328.5C 267.997,328.832 216.664,328.499 165.5,327.5C 195.835,327.667 226.168,327.5 256.5,327C 258.104,322.051 259.771,317.218 261.5,312.5C 267.075,311.548 272.741,311.214 278.5,311.5 Z"/></g>
<g><path style="opacity:1" fill="#8e87e7" d="M 383.5,311.5 C 388.833,311.5 394.167,311.5 399.5,311.5C 399.5,317.5 399.5,323.5 399.5,329.5C 394.167,329.5 388.833,329.5 383.5,329.5C 383.5,323.5 383.5,317.5 383.5,311.5 Z"/></g>
<g><path style="opacity:0.995" fill="#848be7" d="M 165.5,327.5 C 216.664,328.499 267.997,328.832 319.5,328.5C 302.752,333.774 285.752,338.608 268.5,343C 233.5,343.667 198.5,343.667 163.5,343C 161.667,342.5 160.5,341.333 160,339.5C 159.071,335.756 159.571,332.256 161.5,329C 162.745,328.209 164.078,327.709 165.5,327.5 Z"/></g>
<g><path style="opacity:1" fill="#7d8ee7" d="M 47.5,329.5 C 52.8333,329.5 58.1667,329.5 63.5,329.5C 63.5,337.5 63.5,345.5 63.5,353.5C 58.1667,353.5 52.8333,353.5 47.5,353.5C 47.5,345.5 47.5,337.5 47.5,329.5 Z"/></g>
<g><path style="opacity:1" fill="#7d8ee7" d="M 79.5,329.5 C 84.8333,329.5 90.1667,329.5 95.5,329.5C 95.5,337.5 95.5,345.5 95.5,353.5C 90.1667,353.5 84.8333,353.5 79.5,353.5C 79.5,345.5 79.5,337.5 79.5,329.5 Z"/></g>
<g><path style="opacity:1" fill="#7d8ee7" d="M 111.5,329.5 C 116.833,329.5 122.167,329.5 127.5,329.5C 127.5,337.5 127.5,345.5 127.5,353.5C 122.167,353.5 116.833,353.5 111.5,353.5C 111.5,345.5 111.5,337.5 111.5,329.5 Z"/></g>
<g><path style="opacity:1" fill="#7d8ee7" d="M 383.5,329.5 C 388.833,329.5 394.167,329.5 399.5,329.5C 399.5,337.5 399.5,345.5 399.5,353.5C 394.167,353.5 388.833,353.5 383.5,353.5C 383.5,345.5 383.5,337.5 383.5,329.5 Z"/></g>
<g><path style="opacity:1" fill="#7d8ee7" d="M 415.5,329.5 C 420.833,329.5 426.167,329.5 431.5,329.5C 431.5,337.5 431.5,345.5 431.5,353.5C 426.167,353.5 420.833,353.5 415.5,353.5C 415.5,345.5 415.5,337.5 415.5,329.5 Z"/></g>
<g><path style="opacity:1" fill="#7d8ee7" d="M 447.5,329.5 C 452.833,329.5 458.167,329.5 463.5,329.5C 463.5,337.5 463.5,345.5 463.5,353.5C 458.167,353.5 452.833,353.5 447.5,353.5C 447.5,345.5 447.5,337.5 447.5,329.5 Z"/></g>
<g><path style="opacity:1" fill="#6f94e7" d="M 47.5,353.5 C 52.8333,353.5 58.1667,353.5 63.5,353.5C 63.5,358.833 63.5,364.167 63.5,369.5C 58.1667,369.5 52.8333,369.5 47.5,369.5C 47.5,364.167 47.5,358.833 47.5,353.5 Z"/></g>
<g><path style="opacity:1" fill="#6f94e7" d="M 79.5,353.5 C 84.8333,353.5 90.1667,353.5 95.5,353.5C 95.5,358.833 95.5,364.167 95.5,369.5C 90.1667,369.5 84.8333,369.5 79.5,369.5C 79.5,364.167 79.5,358.833 79.5,353.5 Z"/></g>
<g><path style="opacity:1" fill="#6f94e7" d="M 111.5,353.5 C 116.833,353.5 122.167,353.5 127.5,353.5C 127.5,358.833 127.5,364.167 127.5,369.5C 122.167,369.5 116.833,369.5 111.5,369.5C 111.5,364.167 111.5,358.833 111.5,353.5 Z"/></g>
<g><path style="opacity:1" fill="#6f94e7" d="M 383.5,353.5 C 388.833,353.5 394.167,353.5 399.5,353.5C 399.5,358.833 399.5,364.167 399.5,369.5C 394.167,369.5 388.833,369.5 383.5,369.5C 383.5,364.167 383.5,358.833 383.5,353.5 Z"/></g>
<g><path style="opacity:1" fill="#6f94e7" d="M 415.5,353.5 C 420.833,353.5 426.167,353.5 431.5,353.5C 431.5,358.833 431.5,364.167 431.5,369.5C 426.167,369.5 420.833,369.5 415.5,369.5C 415.5,364.167 415.5,358.833 415.5,353.5 Z"/></g>
<g><path style="opacity:1" fill="#6f94e7" d="M 447.5,353.5 C 452.833,353.5 458.167,353.5 463.5,353.5C 463.5,358.833 463.5,364.167 463.5,369.5C 458.167,369.5 452.833,369.5 447.5,369.5C 447.5,364.167 447.5,358.833 447.5,353.5 Z"/></g>
<g><path style="opacity:1" fill="#6599e7" d="M 111.5,369.5 C 116.833,369.5 122.167,369.5 127.5,369.5C 127.5,371.5 127.5,373.5 127.5,375.5C 212.833,375.5 298.167,375.5 383.5,375.5C 383.5,373.5 383.5,371.5 383.5,369.5C 388.833,369.5 394.167,369.5 399.5,369.5C 399.5,372.5 399.5,375.5 399.5,378.5C 303.5,378.5 207.5,378.5 111.5,378.5C 111.5,375.5 111.5,372.5 111.5,369.5 Z"/></g>
<g><path style="opacity:1" fill="#639ae7" d="M 47.5,369.5 C 52.8333,369.5 58.1667,369.5 63.5,369.5C 63.5,375.167 63.5,380.833 63.5,386.5C 58.1667,386.5 52.8333,386.5 47.5,386.5C 47.5,380.833 47.5,375.167 47.5,369.5 Z"/></g>
<g><path style="opacity:1" fill="#639ae7" d="M 79.5,369.5 C 84.8333,369.5 90.1667,369.5 95.5,369.5C 95.5,375.167 95.5,380.833 95.5,386.5C 90.1667,386.5 84.8333,386.5 79.5,386.5C 79.5,380.833 79.5,375.167 79.5,369.5 Z"/></g>
<g><path style="opacity:0.999" fill="#609be7" d="M 111.5,378.5 C 207.5,378.5 303.5,378.5 399.5,378.5C 399.5,381.167 399.5,383.833 399.5,386.5C 303.665,386.167 207.999,386.501 112.5,387.5C 111.523,384.713 111.19,381.713 111.5,378.5 Z"/></g>
<g><path style="opacity:1" fill="#639ae7" d="M 415.5,369.5 C 420.833,369.5 426.167,369.5 431.5,369.5C 431.5,375.167 431.5,380.833 431.5,386.5C 426.167,386.5 420.833,386.5 415.5,386.5C 415.5,380.833 415.5,375.167 415.5,369.5 Z"/></g>
<g><path style="opacity:1" fill="#639ae7" d="M 447.5,369.5 C 452.833,369.5 458.167,369.5 463.5,369.5C 463.5,375.167 463.5,380.833 463.5,386.5C 458.167,386.5 452.833,386.5 447.5,386.5C 447.5,380.833 447.5,375.167 447.5,369.5 Z"/></g>
<g><path style="opacity:0.996" fill="#5b9de7" d="M 399.5,386.5 C 398.977,388.708 397.644,390.208 395.5,391C 302.167,391.667 208.833,391.667 115.5,391C 113.574,390.578 112.574,389.411 112.5,387.5C 207.999,386.501 303.665,386.167 399.5,386.5 Z"/></g>
<g><path style="opacity:1" fill="#569fe6" d="M 47.5,386.5 C 52.8333,386.5 58.1667,386.5 63.5,386.5C 63.5,392.5 63.5,398.5 63.5,404.5C 58.1667,404.5 52.8333,404.5 47.5,404.5C 47.5,398.5 47.5,392.5 47.5,386.5 Z"/></g>
<g><path style="opacity:1" fill="#569fe6" d="M 79.5,386.5 C 84.8333,386.5 90.1667,386.5 95.5,386.5C 95.5,392.5 95.5,398.5 95.5,404.5C 90.1667,404.5 84.8333,404.5 79.5,404.5C 79.5,398.5 79.5,392.5 79.5,386.5 Z"/></g>
<g><path style="opacity:1" fill="#569fe6" d="M 415.5,386.5 C 420.833,386.5 426.167,386.5 431.5,386.5C 431.5,392.5 431.5,398.5 431.5,404.5C 426.167,404.5 420.833,404.5 415.5,404.5C 415.5,398.5 415.5,392.5 415.5,386.5 Z"/></g>
<g><path style="opacity:1" fill="#569fe6" d="M 447.5,386.5 C 452.833,386.5 458.167,386.5 463.5,386.5C 463.5,392.5 463.5,398.5 463.5,404.5C 458.167,404.5 452.833,404.5 447.5,404.5C 447.5,398.5 447.5,392.5 447.5,386.5 Z"/></g>
<g><path style="opacity:0.998" fill="#4ca4e5" d="M 47.5,404.5 C 52.8333,404.5 58.1667,404.5 63.5,404.5C 63.5,405.5 63.5,406.5 63.5,407.5C 68.8333,407.5 74.1667,407.5 79.5,407.5C 79.5,406.5 79.5,405.5 79.5,404.5C 84.8333,404.5 90.1667,404.5 95.5,404.5C 95.5,405.5 95.5,406.5 95.5,407.5C 202.167,407.5 308.833,407.5 415.5,407.5C 415.5,406.5 415.5,405.5 415.5,404.5C 420.833,404.5 426.167,404.5 431.5,404.5C 431.5,405.5 431.5,406.5 431.5,407.5C 436.833,407.5 442.167,407.5 447.5,407.5C 447.5,406.5 447.5,405.5 447.5,404.5C 452.833,404.5 458.167,404.5 463.5,404.5C 463.5,405.5 463.5,406.5 463.5,407.5C 472.839,407.334 482.173,407.5 491.5,408C 493.644,408.792 494.977,410.292 495.5,412.5C 335.5,412.5 175.5,412.5 15.5,412.5C 16.023,410.292 17.3563,408.792 19.5,408C 28.8274,407.5 38.1607,407.334 47.5,407.5C 47.5,406.5 47.5,405.5 47.5,404.5 Z"/></g>
<g><path style="opacity:1" fill="#46a6e6" d="M 15.5,412.5 C 175.5,412.5 335.5,412.5 495.5,412.5C 495.5,415.833 495.5,419.167 495.5,422.5C 335.43,422.832 175.43,422.498 15.5,421.5C 15.5,418.5 15.5,415.5 15.5,412.5 Z"/></g>
<g><path style="opacity:0.986" fill="#3faae6" d="M 15.5,421.5 C 175.43,422.498 335.43,422.832 495.5,422.5C 495.246,427.444 494.246,432.111 492.5,436.5C 486.409,436.211 480.409,436.545 474.5,437.5C 475.984,433.237 477.317,428.904 478.5,424.5C 427.167,423.167 375.833,423.167 324.5,424.5C 322.487,428.527 320.487,432.527 318.5,436.5C 312.31,436.823 306.31,436.49 300.5,435.5C 301.881,431.736 303.547,428.069 305.5,424.5C 272.167,423.167 238.833,423.167 205.5,424.5C 207.513,428.527 209.513,432.527 211.5,436.5C 205.167,436.5 198.833,436.5 192.5,436.5C 190.513,432.527 188.513,428.527 186.5,424.5C 135.167,423.167 83.8333,423.167 32.5,424.5C 33.6586,428.136 34.6586,431.802 35.5,435.5C 30.0247,436.489 24.358,436.822 18.5,436.5C 16.6253,431.794 15.6253,426.794 15.5,421.5 Z"/></g>
<g><path style="opacity:0.969" fill="#30b0e6" d="M 35.5,435.5 C 38.3059,441.101 41.6392,446.434 45.5,451.5C 39.3986,453.149 33.0653,454.149 26.5,454.5C 22.7673,449.03 20.1006,443.03 18.5,436.5C 24.358,436.822 30.0247,436.489 35.5,435.5 Z"/></g>
<g><path style="opacity:0.988" fill="#30b0e6" d="M 300.5,435.5 C 306.31,436.49 312.31,436.823 318.5,436.5C 315.362,445.471 309.362,451.638 300.5,455C 270.5,455.667 240.5,455.667 210.5,455C 201.638,451.638 195.638,445.471 192.5,436.5C 198.833,436.5 205.167,436.5 211.5,436.5C 213.359,437.594 215.359,438.427 217.5,439C 242.833,439.667 268.167,439.667 293.5,439C 296.139,438.347 298.473,437.18 300.5,435.5 Z"/></g>
<g><path style="opacity:0.97" fill="#30b0e6" d="M 492.5,436.5 C 490.899,443.03 488.233,449.03 484.5,454.5C 478.021,453.509 471.354,453.176 464.5,453.5C 468.202,448.45 471.536,443.117 474.5,437.5C 480.409,436.545 486.409,436.211 492.5,436.5 Z"/></g>
<g><path style="opacity:0.993" fill="#1db9e5" d="M 45.5,451.5 C 56.4598,464.142 70.4598,470.642 87.5,471C 199.5,471.667 311.5,471.667 423.5,471C 439.547,470.492 453.214,464.659 464.5,453.5C 471.354,453.176 478.021,453.509 484.5,454.5C 477.735,465.266 468.735,473.599 457.5,479.5C 322.668,478.5 187.668,478.167 52.5,478.5C 41.6212,472.957 32.9546,464.957 26.5,454.5C 33.0653,454.149 39.3986,453.149 45.5,451.5 Z"/></g>
<g><path style="opacity:0.994" fill="#15bce5" d="M 52.5,478.5 C 187.668,478.167 322.668,478.5 457.5,479.5C 450.641,483.286 443.308,485.786 435.5,487C 315.5,487.667 195.5,487.667 75.5,487C 67.1168,485.82 59.4501,482.987 52.5,478.5 Z"/></g>
</svg>
