<?xml version="1.0" encoding="UTF-8"?>
<!DOCTYPE svg PUBLIC "-//W3C//DTD SVG 1.1//EN" "http://www.w3.org/Graphics/SVG/1.1/DTD/svg11.dtd">
<svg xmlns="http://www.w3.org/2000/svg" version="1.1" width="512px" height="512px" style="shape-rendering:geometricPrecision; text-rendering:geometricPrecision; image-rendering:optimizeQuality; fill-rule:evenodd; clip-rule:evenodd" xmlns:xlink="http://www.w3.org/1999/xlink">
<g><path style="opacity:1" fill="#e5ebfe" d="M 30.5,-0.5 C 148.5,-0.5 266.5,-0.5 384.5,-0.5C 400.484,3.98523 410.651,14.3186 415,30.5C 415.5,105.499 415.667,180.499 415.5,255.5C 362.167,255.5 308.833,255.5 255.5,255.5C 255.5,247.5 255.5,239.5 255.5,231.5C 258.85,231.665 262.183,231.498 265.5,231C 267.329,230.727 268.829,229.893 270,228.5C 271.112,221.409 271.612,214.242 271.5,207C 271.63,200.065 271.13,193.232 270,186.5C 268.829,185.107 267.329,184.273 265.5,184C 262.518,183.502 259.518,183.335 256.5,183.5C 263.177,174.166 270.344,165.166 278,156.5C 279.422,153.97 279.755,151.303 279,148.5C 257.993,123.854 240.993,96.5202 228,66.5C 224.058,56.9585 219.891,47.6252 215.5,38.5C 213.347,31.7608 209.014,29.9274 202.5,33C 200.84,34.4877 199.84,36.321 199.5,38.5C 186.639,69.555 171.139,99.2217 153,127.5C 147.573,134.683 141.906,141.683 136,148.5C 135.245,151.303 135.578,153.97 137,156.5C 144.656,165.166 151.823,174.166 158.5,183.5C 155.15,183.335 151.817,183.502 148.5,184C 147.069,184.465 145.903,185.299 145,186.5C 143.87,193.232 143.37,200.065 143.5,207C 143.388,214.242 143.888,221.409 145,228.5C 145.903,229.701 147.069,230.535 148.5,231C 152.152,231.499 155.818,231.665 159.5,231.5C 159.5,239.5 159.5,247.5 159.5,255.5C 106.167,255.5 52.8333,255.5 -0.5,255.5C -0.5,180.5 -0.5,105.5 -0.5,30.5C 4.16667,14.5 14.5,4.16667 30.5,-0.5 Z"/></g>
<g><path style="opacity:1" fill="#2654ea" d="M 215.5,38.5 C 215.5,66.1667 215.5,93.8333 215.5,121.5C 231.818,129.291 235.651,141.291 227,157.5C 213.969,170.777 200.969,170.777 188,157.5C 180.598,144.826 182.432,133.659 193.5,124C 195.217,122.441 197.217,121.608 199.5,121.5C 199.5,93.8333 199.5,66.1667 199.5,38.5C 199.84,36.321 200.84,34.4877 202.5,33C 209.014,29.9274 213.347,31.7608 215.5,38.5 Z"/></g>
<g><path style="opacity:1" fill="#386cfa" d="M 199.5,38.5 C 199.5,66.1667 199.5,93.8333 199.5,121.5C 197.217,121.608 195.217,122.441 193.5,124C 182.432,133.659 180.598,144.826 188,157.5C 200.969,170.777 213.969,170.777 227,157.5C 235.651,141.291 231.818,129.291 215.5,121.5C 215.5,93.8333 215.5,66.1667 215.5,38.5C 219.891,47.6252 224.058,56.9585 228,66.5C 240.993,96.5202 257.993,123.854 279,148.5C 279.755,151.303 279.422,153.97 278,156.5C 270.344,165.166 263.177,174.166 256.5,183.5C 223.833,183.5 191.167,183.5 158.5,183.5C 151.823,174.166 144.656,165.166 137,156.5C 135.578,153.97 135.245,151.303 136,148.5C 141.906,141.683 147.573,134.683 153,127.5C 171.139,99.2217 186.639,69.555 199.5,38.5 Z"/></g>
<g><path style="opacity:1" fill="#2654ea" d="M 158.5,183.5 C 191.167,183.5 223.833,183.5 256.5,183.5C 259.518,183.335 262.518,183.502 265.5,184C 267.329,184.273 268.829,185.107 270,186.5C 271.13,193.232 271.63,200.065 271.5,207C 271.612,214.242 271.112,221.409 270,228.5C 268.829,229.893 267.329,230.727 265.5,231C 262.183,231.498 258.85,231.665 255.5,231.5C 223.5,231.5 191.5,231.5 159.5,231.5C 155.818,231.665 152.152,231.499 148.5,231C 147.069,230.535 145.903,229.701 145,228.5C 143.888,221.409 143.388,214.242 143.5,207C 143.37,200.065 143.87,193.232 145,186.5C 145.903,185.299 147.069,184.465 148.5,184C 151.817,183.502 155.15,183.335 158.5,183.5 Z"/></g>
<g><path style="opacity:1" fill="#376bfb" d="M 159.5,231.5 C 191.5,231.5 223.5,231.5 255.5,231.5C 255.5,239.5 255.5,247.5 255.5,255.5C 223.5,255.5 191.5,255.5 159.5,255.5C 159.5,247.5 159.5,239.5 159.5,231.5 Z"/></g>
<g><path style="opacity:1" fill="#4294ff" d="M -0.5,255.5 C 52.8333,255.5 106.167,255.5 159.5,255.5C 191.5,255.5 223.5,255.5 255.5,255.5C 308.833,255.5 362.167,255.5 415.5,255.5C 419.253,274.018 414.586,289.851 401.5,303C 396.489,307.005 390.822,309.672 384.5,311C 344.168,311.5 303.835,311.667 263.5,311.5C 226.167,311.5 188.833,311.5 151.5,311.5C 111.165,311.667 70.832,311.5 30.5,311C 14.3186,306.651 3.98523,296.484 -0.5,280.5C -0.5,272.167 -0.5,263.833 -0.5,255.5 Z"/></g>
<g><path style="opacity:1" fill="#376bfb" d="M 151.5,311.5 C 188.833,311.5 226.167,311.5 263.5,311.5C 263.5,322.167 263.5,332.833 263.5,343.5C 226.167,343.5 188.833,343.5 151.5,343.5C 151.5,332.833 151.5,322.167 151.5,311.5 Z"/></g>
<g><path style="opacity:0.955" fill="#4294ff" d="M 511.5,409.5 C 511.5,415.5 511.5,421.5 511.5,427.5C 508.444,431.241 504.444,432.407 499.5,431C 498.584,430.626 497.75,430.126 497,429.5C 492.339,375.506 463.006,346.172 409,341.5C 407,337.5 407,333.5 409,329.5C 448.056,326.028 478.056,341.028 499,374.5C 505.09,385.611 509.257,397.278 511.5,409.5 Z"/></g>
<g><path style="opacity:0.994" fill="#4293ff" d="M 151.5,343.5 C 188.833,343.5 226.167,343.5 263.5,343.5C 270.947,343.071 278.281,343.571 285.5,345C 287.429,348.256 287.929,351.756 287,355.5C 286.5,357.333 285.333,358.5 283.5,359C 232.833,359.667 182.167,359.667 131.5,359C 129.667,358.5 128.5,357.333 128,355.5C 127.071,351.756 127.571,348.256 129.5,345C 136.719,343.571 144.053,343.071 151.5,343.5 Z"/></g>
<g><path style="opacity:0.956" fill="#4294ff" d="M 411.5,351.5 C 448.149,351.069 472.649,368.069 485,402.5C 487.904,411.722 488.07,420.888 485.5,430C 481.219,432.109 477.052,431.942 473,429.5C 472.267,405.85 462.1,387.683 442.5,375C 434.039,370.635 425.039,368.301 415.5,368C 408.32,366.825 405.82,362.658 408,355.5C 408.69,353.65 409.856,352.316 411.5,351.5 Z"/></g>
<g><path style="opacity:0.998" fill="#4293ff" d="M 310.5,511.5 C 241.833,511.5 173.167,511.5 104.5,511.5C 96.5191,508.351 91.0191,502.684 88,494.5C 87.3333,460.5 87.3333,426.5 88,392.5C 90.8333,384.333 96.3333,378.833 104.5,376C 173.167,375.333 241.833,375.333 310.5,376C 318.667,378.833 324.167,384.333 327,392.5C 327.667,426.5 327.667,460.5 327,494.5C 323.981,502.684 318.481,508.351 310.5,511.5 Z"/></g>
<g><path style="opacity:0.95" fill="#4294ff" d="M 411.5,375.5 C 438.469,374.9 455.636,387.566 463,413.5C 463.667,418.167 463.667,422.833 463,427.5C 461.471,430.516 458.971,431.849 455.5,431.5C 453.074,431.596 450.907,430.93 449,429.5C 447.207,423.959 445.874,418.292 445,412.5C 441.5,403.667 435.333,397.5 426.5,394C 420.433,393.233 414.6,391.733 409,389.5C 406.425,384.034 407.258,379.367 411.5,375.5 Z"/></g>
<g><path style="opacity:1" fill="#376bfb" d="M 111.5,399.5 C 122.167,399.5 132.833,399.5 143.5,399.5C 143.5,404.833 143.5,410.167 143.5,415.5C 132.833,415.5 122.167,415.5 111.5,415.5C 111.5,410.167 111.5,404.833 111.5,399.5 Z"/></g>
<g><path style="opacity:1" fill="#376bfb" d="M 151.5,399.5 C 162.167,399.5 172.833,399.5 183.5,399.5C 183.5,404.833 183.5,410.167 183.5,415.5C 172.833,415.5 162.167,415.5 151.5,415.5C 151.5,410.167 151.5,404.833 151.5,399.5 Z"/></g>
<g><path style="opacity:1" fill="#376bfb" d="M 191.5,399.5 C 202.167,399.5 212.833,399.5 223.5,399.5C 223.5,404.833 223.5,410.167 223.5,415.5C 212.833,415.5 202.167,415.5 191.5,415.5C 191.5,410.167 191.5,404.833 191.5,399.5 Z"/></g>
<g><path style="opacity:1" fill="#376bfb" d="M 231.5,399.5 C 242.167,399.5 252.833,399.5 263.5,399.5C 263.5,404.833 263.5,410.167 263.5,415.5C 252.833,415.5 242.167,415.5 231.5,415.5C 231.5,410.167 231.5,404.833 231.5,399.5 Z"/></g>
<g><path style="opacity:1" fill="#376bfb" d="M 271.5,399.5 C 282.167,399.5 292.833,399.5 303.5,399.5C 303.5,404.833 303.5,410.167 303.5,415.5C 292.833,415.5 282.167,415.5 271.5,415.5C 271.5,410.167 271.5,404.833 271.5,399.5 Z"/></g>
<g><path style="opacity:0.992" fill="#e6ecfe" d="M 401.5,511.5 C 394.833,511.5 388.167,511.5 381.5,511.5C 361.849,506.015 349.349,493.348 344,473.5C 343.333,454.5 343.333,435.5 344,416.5C 346.351,409.481 350.851,404.314 357.5,401C 368.765,399.866 380.099,399.366 391.5,399.5C 402.901,399.366 414.235,399.866 425.5,401C 432.149,404.314 436.649,409.481 439,416.5C 439.667,435.5 439.667,454.5 439,473.5C 433.651,493.348 421.151,506.015 401.5,511.5 Z"/></g>
<g><path style="opacity:1" fill="#376bfb" d="M 111.5,423.5 C 122.167,423.5 132.833,423.5 143.5,423.5C 143.5,428.833 143.5,434.167 143.5,439.5C 132.833,439.5 122.167,439.5 111.5,439.5C 111.5,434.167 111.5,428.833 111.5,423.5 Z"/></g>
<g><path style="opacity:1" fill="#376bfb" d="M 151.5,423.5 C 162.167,423.5 172.833,423.5 183.5,423.5C 183.5,428.833 183.5,434.167 183.5,439.5C 172.833,439.5 162.167,439.5 151.5,439.5C 151.5,434.167 151.5,428.833 151.5,423.5 Z"/></g>
<g><path style="opacity:1" fill="#376bfb" d="M 191.5,423.5 C 202.167,423.5 212.833,423.5 223.5,423.5C 223.5,428.833 223.5,434.167 223.5,439.5C 212.833,439.5 202.167,439.5 191.5,439.5C 191.5,434.167 191.5,428.833 191.5,423.5 Z"/></g>
<g><path style="opacity:1" fill="#376bfb" d="M 231.5,423.5 C 242.167,423.5 252.833,423.5 263.5,423.5C 263.5,428.833 263.5,434.167 263.5,439.5C 252.833,439.5 242.167,439.5 231.5,439.5C 231.5,434.167 231.5,428.833 231.5,423.5 Z"/></g>
<g><path style="opacity:1" fill="#376bfb" d="M 271.5,423.5 C 282.167,423.5 292.833,423.5 303.5,423.5C 303.5,428.833 303.5,434.167 303.5,439.5C 292.833,439.5 282.167,439.5 271.5,439.5C 271.5,434.167 271.5,428.833 271.5,423.5 Z"/></g>
<g><path style="opacity:1" fill="#d0dbf7" d="M 388.5,423.5 C 393.28,422.641 396.78,424.308 399,428.5C 399.667,433.167 399.667,437.833 399,442.5C 396.774,446.861 393.274,448.361 388.5,447C 386.333,446.167 384.833,444.667 384,442.5C 383.333,437.833 383.333,433.167 384,428.5C 385.025,426.313 386.525,424.646 388.5,423.5 Z"/></g>
<g><path style="opacity:1" fill="#376bfb" d="M 111.5,447.5 C 122.167,447.5 132.833,447.5 143.5,447.5C 143.5,452.833 143.5,458.167 143.5,463.5C 132.833,463.5 122.167,463.5 111.5,463.5C 111.5,458.167 111.5,452.833 111.5,447.5 Z"/></g>
<g><path style="opacity:1" fill="#376bfb" d="M 151.5,447.5 C 162.167,447.5 172.833,447.5 183.5,447.5C 183.5,452.833 183.5,458.167 183.5,463.5C 172.833,463.5 162.167,463.5 151.5,463.5C 151.5,458.167 151.5,452.833 151.5,447.5 Z"/></g>
<g><path style="opacity:1" fill="#376bfb" d="M 191.5,447.5 C 202.167,447.5 212.833,447.5 223.5,447.5C 223.5,452.833 223.5,458.167 223.5,463.5C 212.833,463.5 202.167,463.5 191.5,463.5C 191.5,458.167 191.5,452.833 191.5,447.5 Z"/></g>
<g><path style="opacity:1" fill="#376bfb" d="M 231.5,447.5 C 242.167,447.5 252.833,447.5 263.5,447.5C 263.5,452.833 263.5,458.167 263.5,463.5C 252.833,463.5 242.167,463.5 231.5,463.5C 231.5,458.167 231.5,452.833 231.5,447.5 Z"/></g>
<g><path style="opacity:1" fill="#376bfb" d="M 271.5,447.5 C 282.167,447.5 292.833,447.5 303.5,447.5C 303.5,452.833 303.5,458.167 303.5,463.5C 292.833,463.5 282.167,463.5 271.5,463.5C 271.5,458.167 271.5,452.833 271.5,447.5 Z"/></g>
<g><path style="opacity:1" fill="#376bfb" d="M 111.5,471.5 C 119.5,471.5 127.5,471.5 135.5,471.5C 135.5,476.833 135.5,482.167 135.5,487.5C 127.5,487.5 119.5,487.5 111.5,487.5C 111.5,482.167 111.5,476.833 111.5,471.5 Z"/></g>
<g><path style="opacity:1" fill="#376bfb" d="M 143.5,471.5 C 154.167,471.5 164.833,471.5 175.5,471.5C 175.5,476.833 175.5,482.167 175.5,487.5C 164.833,487.5 154.167,487.5 143.5,487.5C 143.5,482.167 143.5,476.833 143.5,471.5 Z"/></g>
<g><path style="opacity:1" fill="#376bfb" d="M 183.5,471.5 C 199.5,471.5 215.5,471.5 231.5,471.5C 231.5,476.833 231.5,482.167 231.5,487.5C 215.5,487.5 199.5,487.5 183.5,487.5C 183.5,482.167 183.5,476.833 183.5,471.5 Z"/></g>
<g><path style="opacity:1" fill="#376bfb" d="M 239.5,471.5 C 250.167,471.5 260.833,471.5 271.5,471.5C 271.5,476.833 271.5,482.167 271.5,487.5C 260.833,487.5 250.167,487.5 239.5,487.5C 239.5,482.167 239.5,476.833 239.5,471.5 Z"/></g>
<g><path style="opacity:1" fill="#376bfb" d="M 279.5,471.5 C 287.5,471.5 295.5,471.5 303.5,471.5C 303.5,476.833 303.5,482.167 303.5,487.5C 295.5,487.5 287.5,487.5 279.5,487.5C 279.5,482.167 279.5,476.833 279.5,471.5 Z"/></g>
</svg>
