<?xml version="1.0" encoding="UTF-8"?>
<!DOCTYPE svg PUBLIC "-//W3C//DTD SVG 1.1//EN" "http://www.w3.org/Graphics/SVG/1.1/DTD/svg11.dtd">
<svg xmlns="http://www.w3.org/2000/svg" version="1.1" width="512px" height="512px" style="shape-rendering:geometricPrecision; text-rendering:geometricPrecision; image-rendering:optimizeQuality; fill-rule:evenodd; clip-rule:evenodd" xmlns:xlink="http://www.w3.org/1999/xlink">
<g><path style="opacity:0.976" fill="#171526" d="M 46.5,7.5 C 65.8106,4.57759 80.6439,11.2443 91,27.5C 95.2381,36.7184 96.5714,46.3851 95,56.5C 93.6821,59.4302 93.0154,62.4302 93,65.5C 116.923,83.5454 140.757,101.712 164.5,120C 169.984,116.603 175.984,113.937 182.5,112C 207.427,108.954 223.761,119.288 231.5,143C 244.829,143.5 258.163,143.667 271.5,143.5C 271.334,133.161 271.5,122.828 272,112.5C 277.457,98.5184 287.624,93.0184 302.5,96C 316.628,101.748 322.295,112.248 319.5,127.5C 323.514,127.666 327.514,127.499 331.5,127C 362.833,95.6667 394.167,64.3333 425.5,33C 433.086,31.8976 440.752,31.0642 448.5,30.5C 457.113,15.1308 469.446,11.2974 485.5,19C 496.243,28.791 498.41,40.291 492,53.5C 483.866,63.3661 473.699,66.1994 461.5,62C 455.639,58.9723 451.306,54.4723 448.5,48.5C 444.205,47.3391 439.871,47.1725 435.5,48C 404.167,79.3333 372.833,110.667 341.5,142C 334.281,143.429 326.947,143.929 319.5,143.5C 319.5,151.5 319.5,159.5 319.5,167.5C 331.505,167.667 343.505,167.5 355.5,167C 376.167,146.333 396.833,125.667 417.5,105C 427.752,103.879 438.085,103.046 448.5,102.5C 457.113,87.1308 469.446,83.2974 485.5,91C 496.243,100.791 498.41,112.291 492,125.5C 483.866,135.366 473.699,138.199 461.5,134C 455.639,130.972 451.306,126.472 448.5,120.5C 441.524,119.336 434.524,119.169 427.5,120C 406.833,140.667 386.167,161.333 365.5,182C 350.263,183.468 334.93,183.968 319.5,183.5C 319.5,191.5 319.5,199.5 319.5,207.5C 342.169,207.667 364.836,207.5 387.5,207C 397.5,197 407.5,187 417.5,177C 427.752,175.879 438.085,175.046 448.5,174.5C 457.113,159.131 469.446,155.297 485.5,163C 496.243,172.791 498.41,184.291 492,197.5C 483.866,207.366 473.699,210.199 461.5,206C 455.639,202.972 451.306,198.472 448.5,192.5C 441.524,191.336 434.524,191.169 427.5,192C 417.137,202.697 406.471,213.03 395.5,223C 370.169,223.5 344.836,223.667 319.5,223.5C 319.5,231.5 319.5,239.5 319.5,247.5C 362.505,247.833 405.505,247.5 448.5,246.5C 457.113,231.131 469.446,227.297 485.5,235C 496.243,244.791 498.41,256.291 492,269.5C 483.043,279.804 472.21,282.304 459.5,277C 454.589,273.922 450.922,269.756 448.5,264.5C 405.505,263.5 362.505,263.167 319.5,263.5C 319.5,271.5 319.5,279.5 319.5,287.5C 344.836,287.333 370.169,287.5 395.5,288C 406.471,297.97 417.137,308.303 427.5,319C 434.524,319.831 441.524,319.664 448.5,318.5C 457.113,303.131 469.446,299.297 485.5,307C 495.366,315.134 498.199,325.301 494,337.5C 487.662,349.417 477.828,353.917 464.5,351C 457.118,348.453 451.785,343.62 448.5,336.5C 438.085,335.954 427.752,335.121 417.5,334C 407.5,324 397.5,314 387.5,304C 364.836,303.5 342.169,303.333 319.5,303.5C 319.5,311.5 319.5,319.5 319.5,327.5C 334.93,327.032 350.263,327.532 365.5,329C 386.167,349.667 406.833,370.333 427.5,391C 434.524,391.831 441.524,391.664 448.5,390.5C 457.113,375.131 469.446,371.297 485.5,379C 495.366,387.134 498.199,397.301 494,409.5C 487.662,421.417 477.828,425.917 464.5,423C 457.118,420.453 451.785,415.62 448.5,408.5C 438.085,407.954 427.752,407.121 417.5,406C 396.833,385.333 376.167,364.667 355.5,344C 343.505,343.5 331.505,343.333 319.5,343.5C 319.5,351.5 319.5,359.5 319.5,367.5C 326.947,367.071 334.281,367.571 341.5,369C 372.833,400.333 404.167,431.667 435.5,463C 439.871,463.828 444.205,463.661 448.5,462.5C 457.113,447.131 469.446,443.297 485.5,451C 496.243,460.791 498.41,472.291 492,485.5C 483.866,495.366 473.699,498.199 461.5,494C 455.639,490.972 451.306,486.472 448.5,480.5C 441.524,479.669 434.524,479.169 427.5,479C 395.194,447.695 363.194,416.028 331.5,384C 327.514,383.501 323.514,383.334 319.5,383.5C 317.457,402.025 307.124,409.858 288.5,407C 281.481,404.649 276.314,400.149 273,393.5C 271.59,384.916 271.09,376.25 271.5,367.5C 258.163,367.333 244.829,367.5 231.5,368C 221.398,396.049 202.064,405.383 173.5,396C 170.659,394.414 167.993,392.58 165.5,390.5C 141.423,408.955 117.256,427.288 93,445.5C 94.7455,451.286 95.5788,457.286 95.5,463.5C 93.8333,488.5 80.5,501.833 55.5,503.5C 34.7321,502.865 21.5654,492.531 16,472.5C 12.5546,449.654 21.3879,433.821 42.5,425C 56.8656,421.043 69.8656,423.543 81.5,432.5C 106.29,414.123 130.623,395.289 154.5,376C 153.344,373.367 152.344,370.7 151.5,368C 132.833,367.333 114.167,367.333 95.5,368C 86.846,393.613 69.1793,403.613 42.5,398C 19.7823,388.064 11.2823,370.897 17,346.5C 26.936,323.782 44.1027,315.282 68.5,321C 73.1279,322.981 77.4613,325.481 81.5,328.5C 90.8103,321.851 99.8103,314.851 108.5,307.5C 99.8103,300.149 90.8103,293.149 81.5,286.5C 68.7528,295.905 54.7528,298.071 39.5,293C 16.0824,279.75 9.58243,260.583 20,235.5C 31.582,217.745 47.7486,211.578 68.5,217C 73.1279,218.981 77.4613,221.481 81.5,224.5C 90.8103,217.851 99.8103,210.851 108.5,203.5C 99.8103,196.149 90.8103,189.149 81.5,182.5C 69.8656,191.457 56.8656,193.957 42.5,190C 21.3879,181.179 12.5546,165.346 16,142.5C 24.5077,117.043 42.0077,107.209 68.5,113C 82.7709,118.27 91.7709,128.27 95.5,143C 114.167,143.667 132.833,143.667 151.5,143C 152.344,140.3 153.344,137.633 154.5,135C 130.623,115.711 106.29,96.8772 81.5,78.5C 71.2683,86.8074 59.6016,89.6407 46.5,87C 30.3333,82.8333 20.1667,72.6667 16,56.5C 13.0243,31.7532 23.191,15.4199 46.5,7.5 Z M 95.5,159.5 C 114.17,159.333 132.836,159.5 151.5,160C 152.344,162.7 153.344,165.367 154.5,168C 144.626,176.621 134.293,184.788 123.5,192.5C 113.423,184.712 103.256,177.045 93,169.5C 93.4948,166.147 94.3281,162.813 95.5,159.5 Z M 231.5,159.5 C 244.833,159.5 258.167,159.5 271.5,159.5C 271.5,188.833 271.5,218.167 271.5,247.5C 258.163,247.667 244.829,247.5 231.5,247C 221.398,218.951 202.064,209.617 173.5,219C 170.659,220.586 167.993,222.42 165.5,224.5C 156.19,217.851 147.19,210.851 138.5,203.5C 147.19,196.149 156.19,189.149 165.5,182.5C 179.054,192.315 193.72,194.149 209.5,188C 221.044,181.744 228.377,172.244 231.5,159.5 Z M 122.5,214.5 C 133.104,221.924 143.604,229.591 154,237.5C 153.653,240.725 152.819,243.892 151.5,247C 132.593,247.825 113.76,247.659 95,246.5C 93.9719,243.491 93.3052,240.491 93,237.5C 103.174,230.176 113.007,222.509 122.5,214.5 Z M 95.5,263.5 C 114.17,263.333 132.836,263.5 151.5,264C 152.344,266.7 153.344,269.367 154.5,272C 144.626,280.621 134.293,288.788 123.5,296.5C 113.423,288.712 103.256,281.045 93,273.5C 93.4948,270.147 94.3281,266.813 95.5,263.5 Z M 231.5,263.5 C 244.833,263.5 258.167,263.5 271.5,263.5C 271.5,292.833 271.5,322.167 271.5,351.5C 258.163,351.667 244.829,351.5 231.5,351C 221.398,322.951 202.064,313.617 173.5,323C 170.659,324.586 167.993,326.42 165.5,328.5C 156.19,321.851 147.19,314.851 138.5,307.5C 147.19,300.149 156.19,293.149 165.5,286.5C 179.054,296.315 193.72,298.149 209.5,292C 221.044,285.744 228.377,276.244 231.5,263.5 Z M 122.5,318.5 C 133.104,325.924 143.604,333.591 154,341.5C 153.653,344.725 152.819,347.892 151.5,351C 132.593,351.825 113.76,351.659 95,350.5C 93.9719,347.491 93.3052,344.491 93,341.5C 103.174,334.176 113.007,326.509 122.5,318.5 Z"/></g>
<g><path style="opacity:1" fill="#4abbe2" d="M 49.5,23.5 C 64.1279,21.7274 73.9613,27.7274 79,41.5C 80.7609,55.8083 74.9276,65.6416 61.5,71C 47.1917,72.7609 37.3584,66.9276 32,53.5C 29.8358,42.9907 33.0024,34.4907 41.5,28C 44.0993,26.205 46.7659,24.705 49.5,23.5 Z"/></g>
<g><path style="opacity:1" fill="#f39b2d" d="M 468.5,31.5 C 476.658,30.8229 480.158,34.4895 479,42.5C 476.774,46.8608 473.274,48.3608 468.5,47C 464.139,44.7742 462.639,41.2742 464,36.5C 465.025,34.313 466.525,32.6464 468.5,31.5 Z"/></g>
<g><path style="opacity:1" fill="#f39b2d" d="M 468.5,103.5 C 476.658,102.823 480.158,106.49 479,114.5C 476.774,118.861 473.274,120.361 468.5,119C 464.139,116.774 462.639,113.274 464,108.5C 465.025,106.313 466.525,104.646 468.5,103.5 Z"/></g>
<g><path style="opacity:1" fill="#f72e44" d="M 292.5,111.5 C 297.28,110.641 300.78,112.308 303,116.5C 303.667,206.167 303.667,295.833 303,385.5C 300.567,391.448 296.4,392.948 290.5,390C 289.107,388.829 288.273,387.329 288,385.5C 287.333,295.833 287.333,206.167 288,116.5C 289.025,114.313 290.525,112.646 292.5,111.5 Z"/></g>
<g><path style="opacity:1" fill="#4abbe2" d="M 49.5,127.5 C 63.7916,126.228 73.6249,132.228 79,145.5C 80.7609,159.808 74.9276,169.642 61.5,175C 46.8586,177.263 37.0252,171.43 32,157.5C 29.8614,142.769 35.6948,132.769 49.5,127.5 Z"/></g>
<g><path style="opacity:1" fill="#faa02e" d="M 185.5,127.5 C 199.792,126.228 209.625,132.228 215,145.5C 216.761,159.808 210.928,169.642 197.5,175C 182.859,177.263 173.025,171.43 168,157.5C 165.861,142.769 171.695,132.769 185.5,127.5 Z"/></g>
<g><path style="opacity:1" fill="#f39b2d" d="M 468.5,175.5 C 476.658,174.823 480.158,178.49 479,186.5C 476.774,190.861 473.274,192.361 468.5,191C 464.139,188.774 462.639,185.274 464,180.5C 465.025,178.313 466.525,176.646 468.5,175.5 Z"/></g>
<g><path style="opacity:1" fill="#161526" d="M 239.5,183.5 C 244.833,183.5 250.167,183.5 255.5,183.5C 255.5,188.833 255.5,194.167 255.5,199.5C 250.167,199.5 244.833,199.5 239.5,199.5C 239.5,194.167 239.5,188.833 239.5,183.5 Z"/></g>
<g><path style="opacity:1" fill="#161526" d="M 239.5,215.5 C 244.833,215.5 250.167,215.5 255.5,215.5C 255.5,220.833 255.5,226.167 255.5,231.5C 250.167,231.5 244.833,231.5 239.5,231.5C 239.5,226.167 239.5,220.833 239.5,215.5 Z"/></g>
<g><path style="opacity:1" fill="#4abbe2" d="M 49.5,231.5 C 63.7916,230.228 73.6249,236.228 79,249.5C 80.7609,263.808 74.9276,273.642 61.5,279C 46.8586,281.263 37.0252,275.43 32,261.5C 29.8614,246.769 35.6948,236.769 49.5,231.5 Z"/></g>
<g><path style="opacity:1" fill="#faa02e" d="M 185.5,231.5 C 199.792,230.228 209.625,236.228 215,249.5C 216.761,263.808 210.928,273.642 197.5,279C 182.859,281.263 173.025,275.43 168,261.5C 165.861,246.769 171.695,236.769 185.5,231.5 Z"/></g>
<g><path style="opacity:1" fill="#f39b2d" d="M 468.5,247.5 C 476.658,246.823 480.158,250.49 479,258.5C 476.774,262.861 473.274,264.361 468.5,263C 464.139,260.774 462.639,257.274 464,252.5C 465.025,250.313 466.525,248.646 468.5,247.5 Z"/></g>
<g><path style="opacity:1" fill="#161526" d="M 239.5,279.5 C 244.833,279.5 250.167,279.5 255.5,279.5C 255.5,284.833 255.5,290.167 255.5,295.5C 250.167,295.5 244.833,295.5 239.5,295.5C 239.5,290.167 239.5,284.833 239.5,279.5 Z"/></g>
<g><path style="opacity:1" fill="#161526" d="M 239.5,311.5 C 244.833,311.5 250.167,311.5 255.5,311.5C 255.5,316.833 255.5,322.167 255.5,327.5C 250.167,327.5 244.833,327.5 239.5,327.5C 239.5,322.167 239.5,316.833 239.5,311.5 Z"/></g>
<g><path style="opacity:1" fill="#f39b2d" d="M 468.5,319.5 C 476.658,318.823 480.158,322.49 479,330.5C 476.774,334.861 473.274,336.361 468.5,335C 464.139,332.774 462.639,329.274 464,324.5C 465.025,322.313 466.525,320.646 468.5,319.5 Z"/></g>
<g><path style="opacity:1" fill="#4abbe2" d="M 49.5,335.5 C 63.7916,334.228 73.6249,340.228 79,353.5C 80.7609,367.808 74.9276,377.642 61.5,383C 46.8586,385.263 37.0252,379.43 32,365.5C 29.8614,350.769 35.6948,340.769 49.5,335.5 Z"/></g>
<g><path style="opacity:1" fill="#faa02e" d="M 185.5,335.5 C 199.792,334.228 209.625,340.228 215,353.5C 216.761,367.808 210.928,377.642 197.5,383C 182.859,385.263 173.025,379.43 168,365.5C 165.861,350.769 171.695,340.769 185.5,335.5 Z"/></g>
<g><path style="opacity:1" fill="#f39b2d" d="M 468.5,391.5 C 476.658,390.823 480.158,394.49 479,402.5C 476.774,406.861 473.274,408.361 468.5,407C 464.139,404.774 462.639,401.274 464,396.5C 465.025,394.313 466.525,392.646 468.5,391.5 Z"/></g>
<g><path style="opacity:1" fill="#4abbe2" d="M 49.5,439.5 C 64.1279,437.727 73.9613,443.727 79,457.5C 80.7609,471.808 74.9276,481.642 61.5,487C 47.1917,488.761 37.3584,482.928 32,469.5C 29.8358,458.991 33.0024,450.491 41.5,444C 44.0993,442.205 46.7659,440.705 49.5,439.5 Z"/></g>
<g><path style="opacity:1" fill="#f39b2d" d="M 468.5,463.5 C 476.658,462.823 480.158,466.49 479,474.5C 476.774,478.861 473.274,480.361 468.5,479C 464.139,476.774 462.639,473.274 464,468.5C 465.025,466.313 466.525,464.646 468.5,463.5 Z"/></g>
</svg>
