<?xml version="1.0" encoding="UTF-8"?>
<!DOCTYPE svg PUBLIC "-//W3C//DTD SVG 1.1//EN" "http://www.w3.org/Graphics/SVG/1.1/DTD/svg11.dtd">
<svg xmlns="http://www.w3.org/2000/svg" version="1.1" width="512px" height="512px" style="shape-rendering:geometricPrecision; text-rendering:geometricPrecision; image-rendering:optimizeQuality; fill-rule:evenodd; clip-rule:evenodd" xmlns:xlink="http://www.w3.org/1999/xlink">
<g><path style="opacity:0.987" fill="#3f3164" d="M 259.5,35.5 C 262.167,36.8333 264.833,36.8333 267.5,35.5C 333.501,35.3333 399.501,35.5 465.5,36C 473.424,38.4231 478.424,43.5897 480.5,51.5C 480.833,86.5063 480.5,121.506 479.5,156.5C 478.583,157.127 477.583,157.461 476.5,157.5C 474.983,157.489 473.816,156.823 473,155.5C 472.5,139.837 472.333,124.17 472.5,108.5C 398.833,108.5 325.167,108.5 251.5,108.5C 251.5,222.5 251.5,336.5 251.5,450.5C 322.834,450.667 394.167,450.5 465.5,450C 467.624,448.878 469.457,447.378 471,445.5C 472.327,370.582 472.994,295.582 473,220.5C 474.11,218.963 475.61,218.297 477.5,218.5C 478.496,218.414 479.329,218.748 480,219.5C 480.667,294.167 480.667,368.833 480,443.5C 477.833,451 473,455.833 465.5,458C 394.167,458.5 322.834,458.667 251.5,458.5C 251.5,464.167 251.5,469.833 251.5,475.5C 251.665,478.85 251.498,482.183 251,485.5C 248.667,486.833 246.333,486.833 244,485.5C 243.502,482.183 243.335,478.85 243.5,475.5C 243.5,469.833 243.5,464.167 243.5,458.5C 172.331,458.167 101.331,458.501 30.5,459.5C 21.7843,456.951 16.2843,451.284 14,442.5C 13.3333,312.5 13.3333,182.5 14,52.5C 16.0587,44.1073 21.2253,38.6073 29.5,36C 100.833,35.5 172.166,35.3333 243.5,35.5C 243.334,26.8269 243.5,18.1603 244,9.5C 246.333,8.16667 248.667,8.16667 251,9.5C 251.5,18.1603 251.666,26.8269 251.5,35.5C 254.167,35.5 256.833,35.5 259.5,35.5 Z"/></g>
<g><path style="opacity:0.982" fill="#e0e0e3" d="M 267.5,35.5 C 264.833,36.8333 262.167,36.8333 259.5,35.5C 259.335,32.1501 259.502,28.8168 260,25.5C 262.333,24.1667 264.667,24.1667 267,25.5C 267.498,28.8168 267.665,32.1501 267.5,35.5 Z"/></g>
<g><path style="opacity:1" fill="#f4f9fe" d="M 243.5,52.5 C 171.833,52.3333 100.166,52.5 28.5,53C 26.3083,53.926 24.3083,55.0927 22.5,56.5C 22.5,55.5 22.5,54.5 22.5,53.5C 23.5237,49.6381 25.8571,46.8048 29.5,45C 100.833,44.5 172.166,44.3333 243.5,44.5C 243.5,47.1667 243.5,49.8333 243.5,52.5 Z"/></g>
<g><path style="opacity:1" fill="#fef8fa" d="M 472.5,53.5 C 472.5,54.5 472.5,55.5 472.5,56.5C 470.286,55.126 467.953,53.9594 465.5,53C 394.167,52.5 322.834,52.3333 251.5,52.5C 251.5,49.8333 251.5,47.1667 251.5,44.5C 322.834,44.3333 394.167,44.5 465.5,45C 469.143,46.8048 471.476,49.6381 472.5,53.5 Z"/></g>
<g><path style="opacity:1" fill="#0489ee" d="M 243.5,52.5 C 243.5,68.1667 243.5,83.8333 243.5,99.5C 169.833,99.5 96.1667,99.5 22.5,99.5C 22.5,85.1667 22.5,70.8333 22.5,56.5C 24.3083,55.0927 26.3083,53.926 28.5,53C 100.166,52.5 171.833,52.3333 243.5,52.5 Z"/></g>
<g><path style="opacity:1" fill="#fa759e" d="M 251.5,52.5 C 322.834,52.3333 394.167,52.5 465.5,53C 467.953,53.9594 470.286,55.126 472.5,56.5C 472.5,70.8333 472.5,85.1667 472.5,99.5C 398.833,99.5 325.167,99.5 251.5,99.5C 251.5,83.8333 251.5,68.1667 251.5,52.5 Z"/></g>
<g><path style="opacity:0.987" fill="#e2e3e5" d="M 480.5,51.5 C 489.216,54.049 494.716,59.7157 497,68.5C 497.667,198.5 497.667,328.5 497,458.5C 494.941,466.893 489.775,472.393 481.5,475C 410.167,475.5 338.834,475.667 267.5,475.5C 267.666,484.173 267.5,492.84 267,501.5C 264.667,502.833 262.333,502.833 260,501.5C 259.5,492.84 259.334,484.173 259.5,475.5C 256.833,475.5 254.167,475.5 251.5,475.5C 251.5,469.833 251.5,464.167 251.5,458.5C 322.834,458.667 394.167,458.5 465.5,458C 473,455.833 477.833,451 480,443.5C 480.667,368.833 480.667,294.167 480,219.5C 479.329,218.748 478.496,218.414 477.5,218.5C 476.597,215.609 476.264,212.609 476.5,209.5C 478.017,209.489 479.184,208.823 480,207.5C 480.667,194.833 480.667,182.167 480,169.5C 479.184,168.177 478.017,167.511 476.5,167.5C 476.5,164.167 476.5,160.833 476.5,157.5C 477.583,157.461 478.583,157.127 479.5,156.5C 480.5,121.506 480.833,86.5063 480.5,51.5 Z"/></g>
<g><path style="opacity:1" fill="#f8759e" d="M 60.5,61.5 C 73.8225,59.657 79.6558,65.3237 78,78.5C 74.4749,85.2345 68.9749,87.7345 61.5,86C 54.526,82.551 52.026,77.051 54,69.5C 55.3046,66.0386 57.4713,63.372 60.5,61.5 Z"/></g>
<g><path style="opacity:1" fill="#cff8fe" d="M 109.5,60.5 C 123.718,61.1981 128.552,68.1981 124,81.5C 118.972,86.5788 113.139,87.7454 106.5,85C 100.079,79.4818 98.9128,72.9818 103,65.5C 105.326,63.9343 107.492,62.2676 109.5,60.5 Z"/></g>
<g><path style="opacity:1" fill="#fafcfe" d="M 157.5,60.5 C 170.092,61.0411 174.925,67.3744 172,79.5C 168.235,85.7603 162.735,87.9269 155.5,86C 144.258,76.5318 144.925,68.0318 157.5,60.5 Z"/></g>
<g><path style="opacity:1" fill="#1b65b7" d="M 22.5,53.5 C 22.5,54.5 22.5,55.5 22.5,56.5C 22.5,70.8333 22.5,85.1667 22.5,99.5C 96.1667,99.5 169.833,99.5 243.5,99.5C 169.669,100.499 95.6685,100.833 21.5,100.5C 21.1704,84.6578 21.5037,68.9911 22.5,53.5 Z"/></g>
<g><path style="opacity:1" fill="#b05a86" d="M 472.5,53.5 C 473.496,68.9911 473.83,84.6578 473.5,100.5C 399.331,100.833 325.331,100.499 251.5,99.5C 325.167,99.5 398.833,99.5 472.5,99.5C 472.5,85.1667 472.5,70.8333 472.5,56.5C 472.5,55.5 472.5,54.5 472.5,53.5 Z"/></g>
<g><path style="opacity:1" fill="#d3fafe" d="M 22.5,108.5 C 96.1667,108.5 169.833,108.5 243.5,108.5C 243.5,159.5 243.5,210.5 243.5,261.5C 230.163,261.333 216.829,261.5 203.5,262C 200.833,264.333 200.833,266.667 203.5,269C 216.829,269.5 230.163,269.667 243.5,269.5C 243.5,276.167 243.5,282.833 243.5,289.5C 188.499,289.333 133.499,289.5 78.5,290C 75.8333,292.333 75.8333,294.667 78.5,297C 133.499,297.5 188.499,297.667 243.5,297.5C 243.5,313.5 243.5,329.5 243.5,345.5C 216.831,345.333 190.165,345.5 163.5,346C 160.833,348.333 160.833,350.667 163.5,353C 190.165,353.5 216.831,353.667 243.5,353.5C 243.5,360.167 243.5,366.833 243.5,373.5C 224.83,373.333 206.164,373.5 187.5,374C 186.167,376.333 186.167,378.667 187.5,381C 206.164,381.5 224.83,381.667 243.5,381.5C 243.5,404.5 243.5,427.5 243.5,450.5C 172.166,450.667 100.833,450.5 29.5,450C 27.3762,448.878 25.5429,447.378 24,445.5C 22.5041,333.248 22.0041,220.914 22.5,108.5 Z"/></g>
<g><path style="opacity:1" fill="#fdd6e4" d="M 476.5,157.5 C 476.5,160.833 476.5,164.167 476.5,167.5C 474.983,167.511 473.816,168.177 473,169.5C 472.333,182.167 472.333,194.833 473,207.5C 473.816,208.823 474.983,209.489 476.5,209.5C 476.264,212.609 476.597,215.609 477.5,218.5C 475.61,218.297 474.11,218.963 473,220.5C 472.994,295.582 472.327,370.582 471,445.5C 469.457,447.378 467.624,448.878 465.5,450C 394.167,450.5 322.834,450.667 251.5,450.5C 251.5,336.5 251.5,222.5 251.5,108.5C 325.167,108.5 398.833,108.5 472.5,108.5C 472.333,124.17 472.5,139.837 473,155.5C 473.816,156.823 474.983,157.489 476.5,157.5 Z"/></g>
<g><path style="opacity:1" fill="#3d3063" d="M 123.5,134.5 C 129.938,132.784 132.772,135.117 132,141.5C 124.181,165.108 116.514,188.774 109,212.5C 106,215.167 103,215.167 100,212.5C 99.3333,209.5 99.3333,206.5 100,203.5C 107.202,181.561 114.202,159.561 121,137.5C 122.045,136.627 122.878,135.627 123.5,134.5 Z"/></g>
<g><path style="opacity:1" fill="#3f3063" d="M 280.5,136.5 C 333.879,136.017 387.213,136.517 440.5,138C 443.728,139.563 445.895,142.063 447,145.5C 447.667,168.5 447.667,191.5 447,214.5C 445.5,218.667 442.667,221.5 438.5,223C 385.833,223.667 333.167,223.667 280.5,223C 276.333,221.5 273.5,218.667 272,214.5C 271.333,191.5 271.333,168.5 272,145.5C 273.688,141.315 276.521,138.315 280.5,136.5 Z"/></g>
<g><path style="opacity:1" fill="#6cc7f5" d="M 282.5,144.5 C 333.834,144.333 385.168,144.5 436.5,145C 437.667,145.5 438.5,146.333 439,147.5C 439.667,169.5 439.667,191.5 439,213.5C 438.5,214 438,214.5 437.5,215C 385.5,215.667 333.5,215.667 281.5,215C 281,214.5 280.5,214 280,213.5C 279.333,191.5 279.333,169.5 280,147.5C 280.698,146.309 281.531,145.309 282.5,144.5 Z"/></g>
<g><path style="opacity:1" fill="#3d3063" d="M 86.5,157.5 C 93.5244,157.489 95.5244,160.489 92.5,166.5C 82.0215,170.575 71.6881,174.908 61.5,179.5C 71.1822,184.341 81.1822,188.508 91.5,192C 95.5,195 95.5,198 91.5,201C 89.8333,201.667 88.1667,201.667 86.5,201C 73.6166,196.265 61.1166,190.765 49,184.5C 46.7306,180.286 47.2306,176.453 50.5,173C 62.7059,168.057 74.7059,162.891 86.5,157.5 Z"/></g>
<g><path style="opacity:1" fill="#3d2f63" d="M 139.5,157.5 C 153.322,162.07 166.988,167.237 180.5,173C 185.612,180.8 183.612,186.134 174.5,189C 164.5,193 154.5,197 144.5,201C 140.167,202.489 137.833,200.989 137.5,196.5C 137.39,194.626 138.056,193.126 139.5,192C 149.656,188.117 159.656,183.951 169.5,179.5C 159.656,175.049 149.656,170.883 139.5,167C 136.888,163.836 136.888,160.669 139.5,157.5 Z"/></g>
<g><path style="opacity:1" fill="#423365" d="M 476.5,167.5 C 478.017,167.511 479.184,168.177 480,169.5C 480.667,182.167 480.667,194.833 480,207.5C 479.184,208.823 478.017,209.489 476.5,209.5C 474.983,209.489 473.816,208.823 473,207.5C 472.333,194.833 472.333,182.167 473,169.5C 473.816,168.177 474.983,167.511 476.5,167.5 Z"/></g>
<g><path style="opacity:1" fill="#f9759e" d="M 50.5,233.5 C 74.169,233.333 97.8357,233.5 121.5,234C 124.167,236.333 124.167,238.667 121.5,241C 97.8333,241.667 74.1667,241.667 50.5,241C 47.9142,238.506 47.9142,236.006 50.5,233.5 Z"/></g>
<g><path style="opacity:1" fill="#f9769e" d="M 141.5,233.5 C 151.839,233.334 162.172,233.5 172.5,234C 175.167,236.333 175.167,238.667 172.5,241C 162.167,241.667 151.833,241.667 141.5,241C 138.914,238.506 138.914,236.006 141.5,233.5 Z"/></g>
<g><path style="opacity:1" fill="#3e3063" d="M 278.5,237.5 C 332.168,237.333 385.834,237.5 439.5,238C 443.333,239.167 445.833,241.667 447,245.5C 447.667,280.833 447.667,316.167 447,351.5C 445.5,355.667 442.667,358.5 438.5,360C 385.833,360.667 333.167,360.667 280.5,360C 276.333,358.5 273.5,355.667 272,351.5C 271.333,316.167 271.333,280.833 272,245.5C 273.305,242.039 275.471,239.372 278.5,237.5 Z"/></g>
<g><path style="opacity:1" fill="#d2f9fd" d="M 281.5,245.5 C 333.501,245.333 385.501,245.5 437.5,246C 438,246.5 438.5,247 439,247.5C 439.667,268.5 439.667,289.5 439,310.5C 431.56,304.535 423.727,299.201 415.5,294.5C 414.062,294.719 412.729,295.219 411.5,296C 404.981,301.096 398.648,306.429 392.5,312C 391.5,312.667 390.5,312.667 389.5,312C 370.404,298.039 351.238,284.205 332,270.5C 314.582,283.13 297.415,296.13 280.5,309.5C 279.334,288.841 279.167,268.175 280,247.5C 280.717,246.956 281.217,246.289 281.5,245.5 Z"/></g>
<g><path style="opacity:1" fill="#3d3163" d="M 381.5,254.5 C 398.452,252.356 406.619,259.69 406,276.5C 400.434,289.365 391.267,292.865 378.5,287C 369.332,278.812 368.165,269.645 375,259.5C 377.352,257.97 379.519,256.303 381.5,254.5 Z"/></g>
<g><path style="opacity:1" fill="#3a2c60" d="M 78.5,261.5 C 113.168,261.333 147.835,261.5 182.5,262C 185.167,264.333 185.167,266.667 182.5,269C 147.833,269.667 113.167,269.667 78.5,269C 75.9142,266.506 75.9142,264.006 78.5,261.5 Z"/></g>
<g><path style="opacity:1" fill="#cff4fa" d="M 385.5,261.5 C 396.161,261.988 399.994,267.321 397,277.5C 391.333,282.833 385.667,282.833 380,277.5C 377.024,270.462 378.857,265.129 385.5,261.5 Z"/></g>
<g><path style="opacity:1" fill="#d2f9fd" d="M 330.5,280.5 C 332.308,280.491 333.975,280.991 335.5,282C 353.73,295.901 372.23,309.401 391,322.5C 399.109,316.728 406.943,310.562 414.5,304C 415.908,303.685 417.241,304.018 418.5,305C 425.307,309.64 431.973,314.473 438.5,319.5C 439.666,329.817 439.832,340.151 439,350.5C 438.5,351 438,351.5 437.5,352C 385.5,352.667 333.5,352.667 281.5,352C 281,351.5 280.5,351 280,350.5C 279.168,340.151 279.334,329.817 280.5,319.5C 297.236,306.48 313.902,293.48 330.5,280.5 Z"/></g>
<g><path style="opacity:1" fill="#f9759e" d="M 50.5,317.5 C 72.1692,317.333 93.8359,317.5 115.5,318C 118.167,320.333 118.167,322.667 115.5,325C 93.8333,325.667 72.1667,325.667 50.5,325C 47.9142,322.506 47.9142,320.006 50.5,317.5 Z"/></g>
<g><path style="opacity:1" fill="#f9759e" d="M 127.5,317.5 C 142.504,317.333 157.504,317.5 172.5,318C 175.167,320.333 175.167,322.667 172.5,325C 157.5,325.667 142.5,325.667 127.5,325C 124.914,322.506 124.914,320.006 127.5,317.5 Z"/></g>
<g><path style="opacity:1" fill="#3a2c60" d="M 78.5,345.5 C 99.8359,345.333 121.169,345.5 142.5,346C 145.167,348.333 145.167,350.667 142.5,353C 121.167,353.667 99.8333,353.667 78.5,353C 75.9142,350.506 75.9142,348.006 78.5,345.5 Z"/></g>
<g><path style="opacity:1" fill="#3a2c60" d="M 78.5,373.5 C 109.502,373.333 140.502,373.5 171.5,374C 174.167,376.333 174.167,378.667 171.5,381C 140.5,381.667 109.5,381.667 78.5,381C 75.9142,378.506 75.9142,376.006 78.5,373.5 Z"/></g>
<g><path style="opacity:1" fill="#3e2f63" d="M 280.5,380.5 C 333.168,380.333 385.834,380.5 438.5,381C 441.167,383.333 441.167,385.667 438.5,388C 385.833,388.667 333.167,388.667 280.5,388C 277.914,385.506 277.914,383.006 280.5,380.5 Z"/></g>
<g><path style="opacity:1" fill="#f9759e" d="M 50.5,401.5 C 72.1692,401.333 93.8359,401.5 115.5,402C 118.167,404.333 118.167,406.667 115.5,409C 93.8333,409.667 72.1667,409.667 50.5,409C 47.9142,406.506 47.9142,404.006 50.5,401.5 Z"/></g>
<g><path style="opacity:1" fill="#f9759e" d="M 127.5,401.5 C 142.504,401.333 157.504,401.5 172.5,402C 175.167,404.333 175.167,406.667 172.5,409C 157.5,409.667 142.5,409.667 127.5,409C 124.914,406.506 124.914,404.006 127.5,401.5 Z"/></g>
<g><path style="opacity:1" fill="#443466" d="M 279.5,414.5 C 332.834,414.333 386.168,414.5 439.5,415C 440.982,417.592 440.648,419.925 438.5,422C 385.833,422.667 333.167,422.667 280.5,422C 278.285,419.758 277.952,417.258 279.5,414.5 Z"/></g>
<g><path style="opacity:0.964" fill="#e2e2e4" d="M 243.5,475.5 C 177.499,475.667 111.499,475.5 45.5,475C 37.5756,472.577 32.5756,467.41 30.5,459.5C 101.331,458.501 172.331,458.167 243.5,458.5C 243.5,464.167 243.5,469.833 243.5,475.5 Z"/></g>
</svg>
