<?xml version="1.0" encoding="UTF-8"?>
<!DOCTYPE svg PUBLIC "-//W3C//DTD SVG 1.1//EN" "http://www.w3.org/Graphics/SVG/1.1/DTD/svg11.dtd">
<svg xmlns="http://www.w3.org/2000/svg" version="1.1" width="512px" height="512px" style="shape-rendering:geometricPrecision; text-rendering:geometricPrecision; image-rendering:optimizeQuality; fill-rule:evenodd; clip-rule:evenodd" xmlns:xlink="http://www.w3.org/1999/xlink">
<g><path style="opacity:0.994" fill="#000000" d="M 137.5,7.5 C 217.544,7.01141 297.544,7.51141 377.5,9C 384.149,12.3141 388.649,17.4808 391,24.5C 391.5,56.1649 391.667,87.8316 391.5,119.5C 407.837,119.333 424.17,119.5 440.5,120C 455.061,123.56 464.894,132.394 470,146.5C 471.418,158.772 471.918,171.105 471.5,183.5C 482.167,183.5 492.833,183.5 503.5,183.5C 503.5,231.5 503.5,279.5 503.5,327.5C 492.833,327.5 482.167,327.5 471.5,327.5C 471.667,349.169 471.5,370.836 471,392.5C 466.833,408.667 456.667,418.833 440.5,423C 405.502,423.5 370.502,423.667 335.5,423.5C 335.5,434.167 335.5,444.833 335.5,455.5C 356.425,452.876 371.591,460.876 381,479.5C 383.217,487.332 384.05,495.332 383.5,503.5C 298.167,503.5 212.833,503.5 127.5,503.5C 126.5,470.5 142.5,454.5 175.5,455.5C 175.5,444.833 175.5,434.167 175.5,423.5C 140.498,423.667 105.498,423.5 70.5,423C 54.3333,418.833 44.1667,408.667 40,392.5C 39.6667,368.167 39.3333,343.833 39,319.5C 10.4453,300.179 1.11198,273.845 11,240.5C 16.8354,226.473 26.1688,215.473 39,207.5C 39.3333,188.5 39.6667,169.5 40,150.5C 44.1667,134.333 54.3333,124.167 70.5,120C 86.8299,119.5 103.163,119.333 119.5,119.5C 119.333,87.8316 119.5,56.1649 120,24.5C 123.118,15.8798 128.951,10.2131 137.5,7.5 Z"/></g>
<g><path style="opacity:1" fill="#e3e6ea" d="M 140.5,23.5 C 216.834,23.3333 293.167,23.5 369.5,24C 371.939,24.7739 373.773,26.2739 375,28.5C 375.667,62.5 375.667,96.5 375,130.5C 374.535,131.931 373.701,133.097 372.5,134C 343.253,135.318 313.919,135.984 284.5,136C 268.545,147.127 252.212,157.627 235.5,167.5C 233.971,167.471 232.804,166.804 232,165.5C 231.5,155.506 231.334,145.506 231.5,135.5C 201.165,135.667 170.832,135.5 140.5,135C 139.069,134.535 137.903,133.701 137,132.5C 135.347,97.9184 135.014,63.2517 136,28.5C 137.366,26.6383 138.866,24.9717 140.5,23.5 Z"/></g>
<g><path style="opacity:1" fill="#050505" d="M 170.5,39.5 C 179.173,39.3336 187.84,39.5002 196.5,40C 208.218,43.5455 214.552,51.3789 215.5,63.5C 210.167,63.5 204.833,63.5 199.5,63.5C 199.062,59.8078 197.062,57.3078 193.5,56C 186.5,55.3333 179.5,55.3333 172.5,56C 165.846,61.0493 165.846,66.0493 172.5,71C 180.5,71.3333 188.5,71.6667 196.5,72C 210.353,76.5446 216.52,86.0446 215,100.5C 212.9,110.201 207.067,116.368 197.5,119C 187.093,119.926 176.759,119.592 166.5,118C 156.944,113.598 151.944,106.098 151.5,95.5C 156.833,95.5 162.167,95.5 167.5,95.5C 167.549,98.0991 168.549,100.266 170.5,102C 174.72,103.104 179.053,103.604 183.5,103.5C 187.167,103.333 190.833,103.167 194.5,103C 199.721,99.8408 200.721,95.6741 197.5,90.5C 196.335,89.4164 195.002,88.5831 193.5,88C 185.5,87.6667 177.5,87.3333 169.5,87C 155.616,82.0802 149.783,72.2469 152,57.5C 155.441,48.5567 161.608,42.5567 170.5,39.5 Z"/></g>
<g><path style="opacity:1" fill="#030303" d="M 250.5,39.5 C 260.167,39.5 269.833,39.5 279.5,39.5C 279.5,44.8333 279.5,50.1667 279.5,55.5C 270.494,55.3336 261.494,55.5002 252.5,56C 250.667,57.1667 249.167,58.6667 248,60.5C 247.501,64.1516 247.335,67.8183 247.5,71.5C 258.167,71.5 268.833,71.5 279.5,71.5C 279.5,76.8333 279.5,82.1667 279.5,87.5C 268.833,87.5 258.167,87.5 247.5,87.5C 247.335,91.1817 247.501,94.8484 248,98.5C 248.465,99.9308 249.299,101.097 250.5,102C 260.061,103.448 269.727,103.948 279.5,103.5C 279.5,108.833 279.5,114.167 279.5,119.5C 269.494,119.666 259.494,119.5 249.5,119C 239.933,116.368 234.1,110.201 232,100.5C 231.333,86.1667 231.333,71.8333 232,57.5C 235.441,48.5567 241.608,42.5567 250.5,39.5 Z"/></g>
<g><path style="opacity:1" fill="#030303" d="M 314.5,39.5 C 323.173,39.3336 331.84,39.5002 340.5,40C 349.573,42.7392 355.74,48.5725 359,57.5C 359.667,71.8333 359.667,86.1667 359,100.5C 356.9,110.201 351.067,116.368 341.5,119C 332.167,119.667 322.833,119.667 313.5,119C 303.933,116.368 298.1,110.201 296,100.5C 295.333,86.1667 295.333,71.8333 296,57.5C 299.441,48.5567 305.608,42.5567 314.5,39.5 Z"/></g>
<g><path style="opacity:1" fill="#e4e7eb" d="M 316.5,55.5 C 323.508,55.3337 330.508,55.5004 337.5,56C 339.939,56.7739 341.773,58.2739 343,60.5C 343.667,73.1667 343.667,85.8333 343,98.5C 342.167,100.667 340.667,102.167 338.5,103C 331.167,103.667 323.833,103.667 316.5,103C 314.333,102.167 312.833,100.667 312,98.5C 311.333,85.8333 311.333,73.1667 312,60.5C 313.366,58.6383 314.866,56.9717 316.5,55.5 Z"/></g>
<g><path style="opacity:1" fill="#68d5f3" d="M 73.5,135.5 C 89.5139,135.167 105.514,135.501 121.5,136.5C 124.785,143.62 130.118,148.453 137.5,151C 163.498,151.5 189.498,151.667 215.5,151.5C 215.334,156.844 215.501,162.177 216,167.5C 222.063,182.61 232.563,186.776 247.5,180C 261.5,170.667 275.5,161.333 289.5,152C 317.5,151.667 345.5,151.333 373.5,151C 380.882,148.453 386.215,143.62 389.5,136.5C 405.156,135.334 420.823,135.167 436.5,136C 444.428,138.257 450.261,143.091 454,150.5C 455.431,161.422 455.931,172.422 455.5,183.5C 434.167,183.5 412.833,183.5 391.5,183.5C 391.5,207.5 391.5,231.5 391.5,255.5C 375.5,255.5 359.5,255.5 343.5,255.5C 343.5,242.167 343.5,228.833 343.5,215.5C 327.5,215.5 311.5,215.5 295.5,215.5C 295.5,247.5 295.5,279.5 295.5,311.5C 290.167,311.5 284.833,311.5 279.5,311.5C 279.5,274.167 279.5,236.833 279.5,199.5C 263.5,199.5 247.5,199.5 231.5,199.5C 231.5,236.833 231.5,274.167 231.5,311.5C 226.167,311.5 220.833,311.5 215.5,311.5C 215.5,284.833 215.5,258.167 215.5,231.5C 199.5,231.5 183.5,231.5 167.5,231.5C 167.5,239.5 167.5,247.5 167.5,255.5C 156.5,255.5 145.5,255.5 134.5,255.5C 127.473,219.71 105.64,201.044 69,199.5C 64.6949,199.397 60.5282,200.063 56.5,201.5C 55.3338,185.51 55.1671,169.51 56,153.5C 59.3531,144.982 65.1865,138.982 73.5,135.5 Z"/></g>
<g><path style="opacity:1" fill="#e5e9ec" d="M 407.5,199.5 C 434.167,199.5 460.833,199.5 487.5,199.5C 487.5,236.833 487.5,274.167 487.5,311.5C 460.833,311.5 434.167,311.5 407.5,311.5C 407.5,274.167 407.5,236.833 407.5,199.5 Z"/></g>
<g><path style="opacity:1" fill="#fe826d" d="M 247.5,215.5 C 252.833,215.5 258.167,215.5 263.5,215.5C 263.5,247.5 263.5,279.5 263.5,311.5C 258.167,311.5 252.833,311.5 247.5,311.5C 247.5,279.5 247.5,247.5 247.5,215.5 Z"/></g>
<g><path style="opacity:1" fill="#000000" d="M 423.5,215.5 C 439.5,215.5 455.5,215.5 471.5,215.5C 471.5,220.833 471.5,226.167 471.5,231.5C 455.5,231.5 439.5,231.5 423.5,231.5C 423.5,226.167 423.5,220.833 423.5,215.5 Z"/></g>
<g><path style="opacity:1" fill="#f7d36e" d="M 62.5,215.5 C 91.6068,213.791 110.44,226.791 119,254.5C 121.346,285.334 107.513,304.167 77.5,311C 47.6003,312.106 29.767,297.94 24,268.5C 22.6652,249.335 29.8319,234.169 45.5,223C 51.0464,219.886 56.7131,217.386 62.5,215.5 Z"/></g>
<g><path style="opacity:1" fill="#040302" d="M 64.5,231.5 C 89.7936,230.515 102.627,242.515 103,267.5C 98.3161,287.826 85.4828,296.993 64.5,295C 46.1309,288.78 37.9642,275.946 40,256.5C 43.6829,243.651 51.8496,235.318 64.5,231.5 Z"/></g>
<g><path style="opacity:1" fill="#fe826d" d="M 311.5,231.5 C 316.833,231.5 322.167,231.5 327.5,231.5C 327.5,258.167 327.5,284.833 327.5,311.5C 322.167,311.5 316.833,311.5 311.5,311.5C 311.5,284.833 311.5,258.167 311.5,231.5 Z"/></g>
<g><path style="opacity:1" fill="#fe826d" d="M 183.5,247.5 C 188.833,247.5 194.167,247.5 199.5,247.5C 199.5,268.833 199.5,290.167 199.5,311.5C 194.167,311.5 188.833,311.5 183.5,311.5C 183.5,290.167 183.5,268.833 183.5,247.5 Z"/></g>
<g><path style="opacity:1" fill="#000000" d="M 423.5,247.5 C 439.5,247.5 455.5,247.5 471.5,247.5C 471.5,252.833 471.5,258.167 471.5,263.5C 455.5,263.5 439.5,263.5 423.5,263.5C 423.5,258.167 423.5,252.833 423.5,247.5 Z"/></g>
<g><path style="opacity:1" fill="#fae6a4" d="M 66.5,247.5 C 82.6784,247.168 89.1784,254.834 86,270.5C 80.0392,279.283 72.2058,281.449 62.5,277C 52.0827,265.501 53.4161,255.667 66.5,247.5 Z"/></g>
<g><path style="opacity:1" fill="#68d5f3" d="M 134.5,271.5 C 145.5,271.5 156.5,271.5 167.5,271.5C 167.5,284.833 167.5,298.167 167.5,311.5C 162.167,311.5 156.833,311.5 151.5,311.5C 151.5,316.833 151.5,322.167 151.5,327.5C 220.833,327.5 290.167,327.5 359.5,327.5C 359.5,322.167 359.5,316.833 359.5,311.5C 354.167,311.5 348.833,311.5 343.5,311.5C 343.5,298.167 343.5,284.833 343.5,271.5C 359.5,271.5 375.5,271.5 391.5,271.5C 391.5,290.167 391.5,308.833 391.5,327.5C 412.833,327.5 434.167,327.5 455.5,327.5C 455.5,332.833 455.5,338.167 455.5,343.5C 322.167,343.5 188.833,343.5 55.5,343.5C 55.1707,337.463 55.5041,331.463 56.5,325.5C 86.7499,331.145 110.25,321.145 127,295.5C 131.012,287.965 133.512,279.965 134.5,271.5 Z"/></g>
<g><path style="opacity:1" fill="#000000" d="M 423.5,279.5 C 439.5,279.5 455.5,279.5 471.5,279.5C 471.5,284.833 471.5,290.167 471.5,295.5C 455.5,295.5 439.5,295.5 423.5,295.5C 423.5,290.167 423.5,284.833 423.5,279.5 Z"/></g>
<g><path style="opacity:1" fill="#cbd0d8" d="M 55.5,359.5 C 188.833,359.5 322.167,359.5 455.5,359.5C 455.666,369.506 455.5,379.506 455,389.5C 451.74,398.427 445.573,404.261 436.5,407C 315.5,407.667 194.5,407.667 73.5,407C 64.5725,403.74 58.7392,397.573 56,388.5C 55.5002,378.839 55.3335,369.172 55.5,359.5 Z"/></g>
<g><path style="opacity:1" fill="#0a0a0b" d="M 220.5,375.5 C 231.167,376.003 233.833,380.836 228.5,390C 219.42,393.215 215.253,390.048 216,380.5C 217.025,378.313 218.525,376.646 220.5,375.5 Z"/></g>
<g><path style="opacity:1" fill="#0a0a0b" d="M 252.5,375.5 C 263.167,376.003 265.833,380.836 260.5,390C 251.42,393.215 247.253,390.048 248,380.5C 249.025,378.313 250.525,376.646 252.5,375.5 Z"/></g>
<g><path style="opacity:1" fill="#0a0a0b" d="M 284.5,375.5 C 295.167,376.003 297.833,380.836 292.5,390C 283.42,393.215 279.253,390.048 280,380.5C 281.025,378.313 282.525,376.646 284.5,375.5 Z"/></g>
<g><path style="opacity:1" fill="#a9b2bc" d="M 191.5,423.5 C 234.167,423.5 276.833,423.5 319.5,423.5C 319.5,434.167 319.5,444.833 319.5,455.5C 276.833,455.5 234.167,455.5 191.5,455.5C 191.5,444.833 191.5,434.167 191.5,423.5 Z"/></g>
<g><path style="opacity:1" fill="#959ea9" d="M 161.5,471.5 C 223.834,471.333 286.168,471.5 348.5,472C 356.921,474.259 362.588,479.426 365.5,487.5C 292.167,487.5 218.833,487.5 145.5,487.5C 148.497,479.836 153.831,474.503 161.5,471.5 Z"/></g>
</svg>
