<?xml version="1.0" encoding="UTF-8"?>
<!DOCTYPE svg PUBLIC "-//W3C//DTD SVG 1.1//EN" "http://www.w3.org/Graphics/SVG/1.1/DTD/svg11.dtd">
<svg xmlns="http://www.w3.org/2000/svg" version="1.1" width="512px" height="512px" style="shape-rendering:geometricPrecision; text-rendering:geometricPrecision; image-rendering:optimizeQuality; fill-rule:evenodd; clip-rule:evenodd" xmlns:xlink="http://www.w3.org/1999/xlink">
<g><path style="opacity:0.959" fill="#000000" d="M 436.5,7.5 C 471.018,4.55224 493.185,19.5522 503,52.5C 506.284,87.9482 490.784,110.282 456.5,119.5C 455.333,171.497 455.167,223.497 456,275.5C 497.799,311.908 512.133,357.241 499,411.5C 481.55,463.618 445.717,494.118 391.5,503C 329.089,507.223 284.255,481.39 257,425.5C 251.624,411.997 248.457,397.997 247.5,383.5C 167.5,383.5 87.5,383.5 7.5,383.5C 7.5,276.833 7.5,170.167 7.5,63.5C 135.5,63.5 263.5,63.5 391.5,63.5C 393.237,34.1032 408.237,15.4365 436.5,7.5 Z M 439.5,24.5 C 463.48,22.3393 478.98,32.6726 486,55.5C 488.648,79.5012 478.482,95.0012 455.5,102C 431.499,104.648 415.999,94.4817 409,71.5C 406.559,47.474 416.726,31.8074 439.5,24.5 Z M 23.5,79.5 C 146.835,79.1667 270.168,79.5 393.5,80.5C 396.08,86.309 398.58,91.9757 401,97.5C 385.261,113.741 369.094,129.408 352.5,144.5C 345.826,143.432 339.159,143.265 332.5,144C 328,139.5 323.5,135 319,130.5C 322.253,117.963 319.087,107.463 309.5,99C 296.291,92.59 284.791,94.7566 275,105.5C 273.725,107.717 272.725,110.051 272,112.5C 271.529,118.538 271.529,124.538 272,130.5C 259.5,143 247,155.5 234.5,168C 228.538,167.529 222.538,167.529 216.5,168C 202.518,173.457 197.018,183.624 200,198.5C 205.457,212.482 215.624,217.982 230.5,215C 238.667,212.167 244.167,206.667 247,198.5C 247.471,192.462 247.471,186.462 247,180.5C 259.74,167.258 272.906,154.591 286.5,142.5C 293.174,143.568 299.841,143.735 306.5,143C 311,147.5 315.5,152 320,156.5C 316.747,169.037 319.913,179.537 329.5,188C 344.991,195.545 357.157,192.045 366,177.5C 367.018,174.257 367.518,170.924 367.5,167.5C 367.139,163.8 366.973,160.133 367,156.5C 382.681,140.653 398.514,124.986 414.5,109.5C 421.806,114.486 429.806,117.819 438.5,119.5C 439.833,167.5 439.833,215.5 438.5,263.5C 403.742,245.412 367.742,242.579 330.5,255C 310.945,262.562 294.111,274.062 280,289.5C 279.5,278.172 279.333,266.838 279.5,255.5C 263.5,255.5 247.5,255.5 231.5,255.5C 231.5,287.5 231.5,319.5 231.5,351.5C 237.537,351.171 243.537,351.504 249.5,352.5C 248.274,357.415 247.607,362.415 247.5,367.5C 172.833,367.5 98.1667,367.5 23.5,367.5C 23.5,271.5 23.5,175.5 23.5,79.5 Z M 292.5,112.5 C 301.85,112.365 304.517,116.532 300.5,125C 291.956,128.322 288.123,125.489 289,116.5C 289.69,114.65 290.856,113.316 292.5,112.5 Z M 340.5,160.5 C 349.85,160.365 352.517,164.532 348.5,173C 339.956,176.322 336.123,173.489 337,164.5C 337.69,162.65 338.856,161.316 340.5,160.5 Z M 220.5,184.5 C 229.85,184.365 232.517,188.532 228.5,197C 219.956,200.322 216.123,197.489 217,188.5C 217.69,186.65 218.856,185.316 220.5,184.5 Z M 183.5,239.5 C 188.833,239.5 194.167,239.5 199.5,239.5C 199.5,271.5 199.5,303.5 199.5,335.5C 194.167,335.5 188.833,335.5 183.5,335.5C 183.5,303.5 183.5,271.5 183.5,239.5 Z M 361.5,264.5 C 363.5,264.5 365.5,264.5 367.5,264.5C 367.5,274.833 367.5,285.167 367.5,295.5C 336.369,299.802 314.202,316.136 301,344.5C 293.529,365.57 293.695,386.57 301.5,407.5C 293.083,413.395 284.25,418.728 275,423.5C 254.696,374.24 263.196,330.74 300.5,293C 318.076,277.545 338.41,268.045 361.5,264.5 Z M 383.5,264.5 C 429.529,270.041 461.695,294.041 480,336.5C 489.767,366.028 488.434,395.028 476,423.5C 466.75,418.728 457.917,413.395 449.5,407.5C 463.373,367.965 454.04,335.131 421.5,309C 409.931,301.421 397.264,296.921 383.5,295.5C 383.5,285.167 383.5,274.833 383.5,264.5 Z M 247.5,271.5 C 252.833,271.5 258.167,271.5 263.5,271.5C 263.667,285.504 263.5,299.504 263,313.5C 259.285,320.263 256.118,327.263 253.5,334.5C 251.604,335.466 249.604,335.799 247.5,335.5C 247.5,314.167 247.5,292.833 247.5,271.5 Z M 55.5,287.5 C 60.8333,287.5 66.1667,287.5 71.5,287.5C 71.5,303.5 71.5,319.5 71.5,335.5C 66.1667,335.5 60.8333,335.5 55.5,335.5C 55.5,319.5 55.5,303.5 55.5,287.5 Z M 119.5,303.5 C 124.833,303.5 130.167,303.5 135.5,303.5C 135.5,314.167 135.5,324.833 135.5,335.5C 130.167,335.5 124.833,335.5 119.5,335.5C 119.5,324.833 119.5,314.167 119.5,303.5 Z M 374.5,311.5 C 408.369,314.01 429.536,331.676 438,364.5C 441.101,400.71 425.601,424.877 391.5,437C 356.132,443.233 330.965,430.067 316,397.5C 306.531,362.552 317.364,336.052 348.5,318C 356.936,314.352 365.603,312.186 374.5,311.5 Z M 368.5,344.5 C 385.58,342.452 397.746,349.119 405,364.5C 409.771,383.119 403.604,396.619 386.5,405C 367.881,409.771 354.381,403.604 346,386.5C 341.236,365.685 348.736,351.685 368.5,344.5 Z M 308.5,423.5 C 314.535,428.024 320.201,433.191 325.5,439C 350.498,456.776 377.498,460.443 406.5,450C 413.324,447.091 419.658,443.424 425.5,439C 430.733,433.767 435.9,428.6 441,423.5C 449.929,428.044 458.429,433.21 466.5,439C 444.217,469.814 413.884,485.98 375.5,487.5C 337.116,485.98 306.783,469.814 284.5,439C 292.365,433.571 300.365,428.404 308.5,423.5 Z"/></g>
<g><path style="opacity:1" fill="#000000" d="M 39.5,95.5 C 44.8333,95.5 50.1667,95.5 55.5,95.5C 55.5,100.833 55.5,106.167 55.5,111.5C 50.1667,111.5 44.8333,111.5 39.5,111.5C 39.5,106.167 39.5,100.833 39.5,95.5 Z"/></g>
<g><path style="opacity:1" fill="#000000" d="M 71.5,95.5 C 108.833,95.5 146.167,95.5 183.5,95.5C 183.5,100.833 183.5,106.167 183.5,111.5C 146.167,111.5 108.833,111.5 71.5,111.5C 71.5,106.167 71.5,100.833 71.5,95.5 Z"/></g>
<g><path style="opacity:1" fill="#000000" d="M 39.5,127.5 C 44.8333,127.5 50.1667,127.5 55.5,127.5C 55.5,132.833 55.5,138.167 55.5,143.5C 50.1667,143.5 44.8333,143.5 39.5,143.5C 39.5,138.167 39.5,132.833 39.5,127.5 Z"/></g>
<g><path style="opacity:1" fill="#000000" d="M 71.5,127.5 C 108.833,127.5 146.167,127.5 183.5,127.5C 183.5,132.833 183.5,138.167 183.5,143.5C 146.167,143.5 108.833,143.5 71.5,143.5C 71.5,138.167 71.5,132.833 71.5,127.5 Z"/></g>
<g><path style="opacity:1" fill="#000000" d="M 39.5,159.5 C 44.8333,159.5 50.1667,159.5 55.5,159.5C 55.5,164.833 55.5,170.167 55.5,175.5C 50.1667,175.5 44.8333,175.5 39.5,175.5C 39.5,170.167 39.5,164.833 39.5,159.5 Z"/></g>
<g><path style="opacity:1" fill="#000000" d="M 71.5,159.5 C 108.833,159.5 146.167,159.5 183.5,159.5C 183.5,164.833 183.5,170.167 183.5,175.5C 146.167,175.5 108.833,175.5 71.5,175.5C 71.5,170.167 71.5,164.833 71.5,159.5 Z"/></g>
<g><path style="opacity:1" fill="#000000" d="M 39.5,191.5 C 44.8333,191.5 50.1667,191.5 55.5,191.5C 55.5,196.833 55.5,202.167 55.5,207.5C 50.1667,207.5 44.8333,207.5 39.5,207.5C 39.5,202.167 39.5,196.833 39.5,191.5 Z"/></g>
<g><path style="opacity:1" fill="#000000" d="M 71.5,191.5 C 108.833,191.5 146.167,191.5 183.5,191.5C 183.5,196.833 183.5,202.167 183.5,207.5C 146.167,207.5 108.833,207.5 71.5,207.5C 71.5,202.167 71.5,196.833 71.5,191.5 Z"/></g>
<g><path style="opacity:1" fill="#000000" d="M 167.5,223.5 C 183.5,223.5 199.5,223.5 215.5,223.5C 215.5,266.167 215.5,308.833 215.5,351.5C 199.5,351.5 183.5,351.5 167.5,351.5C 167.5,308.833 167.5,266.167 167.5,223.5 Z M 183.5,239.5 C 183.5,271.5 183.5,303.5 183.5,335.5C 188.833,335.5 194.167,335.5 199.5,335.5C 199.5,303.5 199.5,271.5 199.5,239.5C 194.167,239.5 188.833,239.5 183.5,239.5 Z"/></g>
<g><path style="opacity:1" fill="#000000" d="M 39.5,271.5 C 55.5,271.5 71.5,271.5 87.5,271.5C 87.5,298.167 87.5,324.833 87.5,351.5C 71.5,351.5 55.5,351.5 39.5,351.5C 39.5,324.833 39.5,298.167 39.5,271.5 Z M 55.5,287.5 C 55.5,303.5 55.5,319.5 55.5,335.5C 60.8333,335.5 66.1667,335.5 71.5,335.5C 71.5,319.5 71.5,303.5 71.5,287.5C 66.1667,287.5 60.8333,287.5 55.5,287.5 Z"/></g>
<g><path style="opacity:1" fill="#000000" d="M 103.5,287.5 C 119.5,287.5 135.5,287.5 151.5,287.5C 151.5,308.833 151.5,330.167 151.5,351.5C 135.5,351.5 119.5,351.5 103.5,351.5C 103.5,330.167 103.5,308.833 103.5,287.5 Z M 119.5,303.5 C 119.5,314.167 119.5,324.833 119.5,335.5C 124.833,335.5 130.167,335.5 135.5,335.5C 135.5,324.833 135.5,314.167 135.5,303.5C 130.167,303.5 124.833,303.5 119.5,303.5 Z"/></g>
<g><path style="opacity:0.93" fill="#000000" d="M 365.5,327.5 C 395.16,324.564 414.326,337.231 423,365.5C 426.421,395.18 413.921,414.346 385.5,423C 355.82,426.421 336.654,413.921 328,385.5C 324.699,355.735 337.199,336.402 365.5,327.5 Z M 368.5,344.5 C 348.736,351.685 341.236,365.685 346,386.5C 354.381,403.604 367.881,409.771 386.5,405C 403.604,396.619 409.771,383.119 405,364.5C 397.746,349.119 385.58,342.452 368.5,344.5 Z"/></g>
</svg>
